<?xml version="1.0" encoding="UTF-8" standalone="no"?>
<!DOCTYPE svg PUBLIC "-//W3C//DTD SVG 1.1//EN"
 "http://www.w3.org/Graphics/SVG/1.1/DTD/svg11.dtd">
<!-- Generated by graphviz version 2.26.3 (20100126.1600)
 -->
<!-- Title: G Pages: 1 -->
<svg width="680pt" height="125pt"
 viewBox="0.00 0.00 680.00 125.00" xmlns="http://www.w3.org/2000/svg" xmlns:xlink="http://www.w3.org/1999/xlink">
<g id="graph1" class="graph" transform="scale(1 1) rotate(0) translate(4 121)">
<title>G</title>
<polygon fill="white" stroke="white" points="-4,5 -4,-121 677,-121 677,5 -4,5"/>
<g id="graph2" class="cluster"><title>cluster_0</title>
<polygon fill="none" stroke="yellowgreen" points="290,-11 290,-109 570,-109 570,-11 290,-11"/>
<text text-anchor="middle" x="430" y="-92.4" font-family="Times Roman,serif" font-size="14.00">Android OS end&#45;user apps</text>
</g>
<!-- k6nele -->
<g id="node2" class="node"><title>k6nele</title>
<polygon fill="none" stroke="black" points="360,-65 298,-65 298,-29 360,-29 360,-65"/>
<text text-anchor="middle" x="329" y="-43.4" font-family="Times Roman,serif" font-size="14.00">Kõnele</text>
</g>
<!-- Arvutaja -->
<g id="node3" class="node"><title>Arvutaja</title>
<polygon fill="none" stroke="black" points="472,-55 396,-55 396,-19 472,-19 472,-55"/>
<text text-anchor="middle" x="434" y="-33.4" font-family="Times Roman,serif" font-size="14.00">Arvutaja</text>
</g>
<!-- k6nele&#45;&gt;Arvutaja -->
<g id="edge5" class="edge"><title>k6nele&#45;&gt;Arvutaja</title>
<path fill="none" stroke="black" d="M370.188,-43.0773C375.168,-42.603 380.291,-42.1152 385.365,-41.6319"/>
<polygon fill="black" stroke="black" points="369.842,-39.5943 360.219,-44.0267 370.506,-46.5628 369.842,-39.5943"/>
<polygon fill="black" stroke="black" points="386.028,-45.0846 395.652,-40.6522 385.365,-38.1162 386.028,-45.0846"/>
</g>
<!-- other -->
<g id="node4" class="node"><title>other</title>
<text text-anchor="middle" x="535" y="-52.4" font-family="Times Roman,serif" font-size="14.00">other</text>
<text text-anchor="middle" x="535" y="-34.4" font-family="Times Roman,serif" font-size="14.00">apps</text>
</g>
<!-- k6nele&#45;&gt;other -->
<g id="edge7" class="edge"><title>k6nele&#45;&gt;other</title>
<path fill="none" stroke="black" d="M369.839,-59.0735C378.407,-61.1224 387.441,-62.9311 396,-64 429.517,-68.1859 438.515,-68.4384 472,-64 480.463,-62.8782 489.403,-60.9437 497.805,-58.7722"/>
<polygon fill="black" stroke="black" points="370.605,-55.657 360.051,-56.5879 368.882,-62.4417 370.605,-55.657"/>
<polygon fill="black" stroke="black" points="499.007,-62.0719 507.72,-56.0446 497.15,-55.3227 499.007,-62.0719"/>
</g>
<!-- Arvutaja&#45;&gt;other -->
<g id="edge13" class="edge"><title>Arvutaja&#45;&gt;other</title>
<path fill="none" stroke="black" d="M472.184,-40.7806C480.511,-41.605 489.313,-42.4766 497.609,-43.2979"/>
<polygon fill="black" stroke="black" points="497.476,-46.8017 507.772,-44.3041 498.165,-39.8358 497.476,-46.8017"/>
</g>
<!-- external -->
<g id="node6" class="node"><title>external</title>
<text text-anchor="middle" x="635" y="-52.4" font-family="Times Roman,serif" font-size="14.00">external</text>
<text text-anchor="middle" x="635" y="-34.4" font-family="Times Roman,serif" font-size="14.00">devices</text>
</g>
<!-- other&#45;&gt;external -->
<g id="edge15" class="edge"><title>other&#45;&gt;external</title>
<path fill="none" stroke="black" d="M562.061,-47C569.961,-47 578.835,-47 587.602,-47"/>
<polygon fill="black" stroke="black" points="587.78,-50.5001 597.78,-47 587.78,-43.5001 587.78,-50.5001"/>
</g>
<!-- grammars -->
<g id="node5" class="node"><title>grammars</title>
<ellipse fill="none" stroke="black" cx="61" cy="-47" rx="60.8112" ry="31.1127"/>
<text text-anchor="middle" x="61" y="-52.4" font-family="Times Roman,serif" font-size="14.00">CNL</text>
<text text-anchor="middle" x="61" y="-34.4" font-family="Times Roman,serif" font-size="14.00">grammars</text>
</g>
<!-- grammars&#45;&gt;k6nele -->
<g id="edge11" class="edge"><title>grammars&#45;&gt;k6nele</title>
<path fill="none" stroke="black" d="M121.513,-51.3218C133.593,-52.0214 146.195,-52.6352 158,-53 204.2,-54.4275 215.824,-55.0635 262,-53 270.294,-52.6294 279.149,-52.0018 287.613,-51.2887"/>
<polygon fill="black" stroke="black" points="288.032,-54.7653 297.68,-50.3879 287.408,-47.7932 288.032,-54.7653"/>
</g>
<!-- server -->
<g id="node7" class="node"><title>server</title>
<polygon fill="none" stroke="black" points="262,-44 158,-44 158,-2.13163e-14 262,-7.10543e-15 262,-44"/>
<text text-anchor="middle" x="210" y="-27.4" font-family="Times Roman,serif" font-size="14.00">ASR server</text>
<text text-anchor="middle" x="210" y="-9.4" font-family="Times Roman,serif" font-size="14.00">(HTTP/JSON)</text>
</g>
<!-- grammars&#45;&gt;server -->
<g id="edge9" class="edge"><title>grammars&#45;&gt;server</title>
<path fill="none" stroke="black" d="M119.034,-37.2628C128.395,-35.6921 138.121,-34.0602 147.581,-32.473"/>
<polygon fill="black" stroke="black" points="148.427,-35.88 157.71,-30.7734 147.269,-28.9765 148.427,-35.88"/>
</g>
<!-- server&#45;&gt;k6nele -->
<g id="edge3" class="edge"><title>server&#45;&gt;k6nele</title>
<path fill="none" stroke="black" d="M272.183,-35.0637C277.44,-36.1682 282.669,-37.2667 287.706,-38.3248"/>
<polygon fill="black" stroke="black" points="272.701,-31.5962 262.195,-32.9654 271.262,-38.4466 272.701,-31.5962"/>
<polygon fill="black" stroke="black" points="287.215,-41.7979 297.721,-40.4287 288.654,-34.9475 287.215,-41.7979"/>
</g>
</g>
</svg>
