<?xml version="1.0" encoding="UTF-8" standalone="no"?>
<!DOCTYPE svg PUBLIC "-//W3C//DTD SVG 1.1//EN"
 "http://www.w3.org/Graphics/SVG/1.1/DTD/svg11.dtd">
<!-- Generated by graphviz version 2.26.3 (20100126.1600)
 -->
<!-- Title: G Pages: 1 -->
<svg width="678pt" height="332pt"
 viewBox="0.00 0.00 678.00 332.00" xmlns="http://www.w3.org/2000/svg" xmlns:xlink="http://www.w3.org/1999/xlink">
<g id="graph1" class="graph" transform="scale(1 1) rotate(0) translate(4 328)">
<title>G</title>
<polygon fill="white" stroke="white" points="-4,5 -4,-328 675,-328 675,5 -4,5"/>
<!-- Action -->
<g id="node1" class="node"><title>Action</title>
<polygon fill="none" stroke="black" points="209,-324 149,-324 149,-288 209,-288 209,-324"/>
<text text-anchor="middle" x="179" y="-302.4" font-family="Times Roman,serif" font-size="14.00">Action</text>
</g>
<!-- Alarm -->
<g id="node3" class="node"><title>Alarm</title>
<polygon fill="none" stroke="black" points="99,-252 43,-252 43,-216 99,-216 99,-252"/>
<text text-anchor="middle" x="71" y="-230.4" font-family="Times Roman,serif" font-size="14.00">Alarm</text>
</g>
<!-- Action&#45;&gt;Alarm -->
<g id="edge2" class="edge"><title>Action&#45;&gt;Alarm</title>
<path fill="none" stroke="red" stroke-width="2" d="M151.747,-287.831C138.061,-278.707 121.309,-267.539 106.617,-257.745"/>
<polygon fill="red" stroke="red" points="108.506,-254.798 98.2442,-252.163 104.623,-260.622 108.506,-254.798"/>
</g>
<!-- Calc -->
<g id="node5" class="node"><title>Calc</title>
<polygon fill="none" stroke="black" points="540,-252 486,-252 486,-216 540,-216 540,-252"/>
<text text-anchor="middle" x="513" y="-230.4" font-family="Times Roman,serif" font-size="14.00">Calc</text>
</g>
<!-- Action&#45;&gt;Calc -->
<g id="edge4" class="edge"><title>Action&#45;&gt;Calc</title>
<path fill="none" stroke="red" stroke-width="2" d="M209.229,-299.483C270.505,-286.274 409.174,-256.382 475.841,-242.01"/>
<polygon fill="red" stroke="red" points="476.862,-245.371 485.9,-239.842 475.387,-238.528 476.862,-245.371"/>
</g>
<!-- Direction -->
<g id="node7" class="node"><title>Direction</title>
<polygon fill="none" stroke="black" points="219,-252 139,-252 139,-216 219,-216 219,-252"/>
<text text-anchor="middle" x="179" y="-230.4" font-family="Times Roman,serif" font-size="14.00">Direction</text>
</g>
<!-- Action&#45;&gt;Direction -->
<g id="edge6" class="edge"><title>Action&#45;&gt;Direction</title>
<path fill="none" stroke="red" stroke-width="2" d="M179,-287.831C179,-280.131 179,-270.974 179,-262.417"/>
<polygon fill="red" stroke="red" points="182.5,-262.413 179,-252.413 175.5,-262.413 182.5,-262.413"/>
</g>
<!-- Date -->
<g id="node14" class="node"><title>Date</title>
<polygon fill="none" stroke="black" points="54,-180 2.13163e-14,-180 0,-144 54,-144 54,-180"/>
<text text-anchor="middle" x="27" y="-158.4" font-family="Times Roman,serif" font-size="14.00">Date</text>
</g>
<!-- Alarm&#45;&gt;Date -->
<g id="edge12" class="edge"><title>Alarm&#45;&gt;Date</title>
<path fill="none" stroke="red" stroke-width="2" d="M59.8969,-215.831C54.9326,-207.708 48.9778,-197.964 43.5072,-189.012"/>
<polygon fill="red" stroke="red" points="46.4536,-187.121 38.2526,-180.413 40.4806,-190.771 46.4536,-187.121"/>
</g>
<!-- Expr -->
<g id="node19" class="node"><title>Expr</title>
<polygon fill="none" stroke="black" points="540,-180 486,-180 486,-144 540,-144 540,-180"/>
<text text-anchor="middle" x="513" y="-158.4" font-family="Times Roman,serif" font-size="14.00">Expr</text>
</g>
<!-- Calc&#45;&gt;Expr -->
<g id="edge18" class="edge"><title>Calc&#45;&gt;Expr</title>
<path fill="none" stroke="red" stroke-width="2" d="M513,-215.831C513,-208.131 513,-198.974 513,-190.417"/>
<polygon fill="red" stroke="red" points="516.5,-190.413 513,-180.413 509.5,-190.413 516.5,-190.413"/>
</g>
<!-- Unitconv -->
<g id="node21" class="node"><title>Unitconv</title>
<polygon fill="none" stroke="black" points="636,-180 558,-180 558,-144 636,-144 636,-180"/>
<text text-anchor="middle" x="597" y="-158.4" font-family="Times Roman,serif" font-size="14.00">Unitconv</text>
</g>
<!-- Calc&#45;&gt;Unitconv -->
<g id="edge20" class="edge"><title>Calc&#45;&gt;Unitconv</title>
<path fill="none" stroke="red" stroke-width="2" d="M534.197,-215.831C544.443,-207.048 556.9,-196.371 568.01,-186.849"/>
<polygon fill="red" stroke="red" points="570.495,-189.328 575.81,-180.163 565.94,-184.013 570.495,-189.328"/>
</g>
<!-- Address -->
<g id="node22" class="node"><title>Address</title>
<polygon fill="none" stroke="black" points="214,-180 144,-180 144,-144 214,-144 214,-180"/>
<text text-anchor="middle" x="179" y="-158.4" font-family="Times Roman,serif" font-size="14.00">Address</text>
</g>
<!-- Direction&#45;&gt;Address -->
<g id="edge36" class="edge"><title>Direction&#45;&gt;Address</title>
<path fill="none" stroke="red" stroke-width="2" d="M179,-215.831C179,-208.131 179,-198.974 179,-190.417"/>
<polygon fill="red" stroke="red" points="182.5,-190.413 179,-180.413 175.5,-190.413 182.5,-190.413"/>
</g>
<!-- Symbols -->
<g id="node8" class="node"><title>Symbols</title>
<polygon fill="none" stroke="black" points="388,-180 314,-180 314,-144 388,-144 388,-180"/>
<text text-anchor="middle" x="351" y="-158.4" font-family="Times Roman,serif" font-size="14.00">Symbols</text>
</g>
<!-- Digit -->
<g id="node10" class="node"><title>Digit</title>
<polygon fill="none" stroke="black" points="388,-108 334,-108 334,-72 388,-72 388,-108"/>
<text text-anchor="middle" x="361" y="-86.4" font-family="Times Roman,serif" font-size="14.00">Digit</text>
</g>
<!-- Symbols&#45;&gt;Digit -->
<g id="edge8" class="edge"><title>Symbols&#45;&gt;Digit</title>
<path fill="none" stroke="red" stroke-width="2" d="M353.523,-143.831C354.593,-136.131 355.865,-126.974 357.053,-118.417"/>
<polygon fill="red" stroke="red" points="360.534,-118.8 358.443,-108.413 353.6,-117.837 360.534,-118.8"/>
</g>
<!-- Letter -->
<g id="node12" class="node"><title>Letter</title>
<polygon fill="none" stroke="black" points="464,-108 406,-108 406,-72 464,-72 464,-108"/>
<text text-anchor="middle" x="435" y="-86.4" font-family="Times Roman,serif" font-size="14.00">Letter</text>
</g>
<!-- Symbols&#45;&gt;Letter -->
<g id="edge10" class="edge"><title>Symbols&#45;&gt;Letter</title>
<path fill="none" stroke="red" stroke-width="2" d="M372.197,-143.831C382.443,-135.048 394.9,-124.371 406.01,-114.849"/>
<polygon fill="red" stroke="red" points="408.495,-117.328 413.81,-108.163 403.94,-112.013 408.495,-117.328"/>
</g>
<!-- Numeral -->
<g id="node16" class="node"><title>Numeral</title>
<polygon fill="none" stroke="black" points="370,-36 296,-36 296,-1.77636e-14 370,-3.55271e-15 370,-36"/>
<text text-anchor="middle" x="333" y="-14.4" font-family="Times Roman,serif" font-size="14.00">Numeral</text>
</g>
<!-- Digit&#45;&gt;Numeral -->
<g id="edge14" class="edge"><title>Digit&#45;&gt;Numeral</title>
<path fill="none" stroke="red" stroke-width="2" d="M353.934,-71.8314C350.874,-63.9617 347.222,-54.5712 343.832,-45.8533"/>
<polygon fill="red" stroke="red" points="347.047,-44.4647 340.161,-36.4133 340.523,-47.0019 347.047,-44.4647"/>
</g>
<!-- Date&#45;&gt;Numeral -->
<g id="edge16" class="edge"><title>Date&#45;&gt;Numeral</title>
<path fill="none" stroke="red" stroke-width="2" d="M19.6688,-143.819C12.9331,-123.815 6.29066,-91.8716 23,-72 56.0171,-32.7344 207.448,-22.0181 285.769,-19.0952"/>
<polygon fill="red" stroke="red" points="285.986,-22.5899 295.859,-18.7467 285.744,-15.594 285.986,-22.5899"/>
</g>
<!-- Fraction -->
<g id="node30" class="node"><title>Fraction</title>
<polygon fill="none" stroke="black" points="554,-108 482,-108 482,-72 554,-72 554,-108"/>
<text text-anchor="middle" x="518" y="-86.4" font-family="Times Roman,serif" font-size="14.00">Fraction</text>
</g>
<!-- Expr&#45;&gt;Fraction -->
<g id="edge38" class="edge"><title>Expr&#45;&gt;Fraction</title>
<path fill="none" stroke="red" stroke-width="2" d="M514.262,-143.831C514.796,-136.131 515.432,-126.974 516.027,-118.417"/>
<polygon fill="red" stroke="red" points="519.52,-118.632 516.721,-108.413 512.537,-118.147 519.52,-118.632"/>
</g>
<!-- Unitconv&#45;&gt;Fraction -->
<g id="edge40" class="edge"><title>Unitconv&#45;&gt;Fraction</title>
<path fill="none" stroke="red" stroke-width="2" d="M577.065,-143.831C567.522,-135.134 555.94,-124.578 545.569,-115.127"/>
<polygon fill="red" stroke="red" points="547.677,-112.312 537.929,-108.163 542.962,-117.486 547.677,-112.312"/>
</g>
<!-- Unit -->
<g id="node39" class="node"><title>Unit</title>
<polygon fill="none" stroke="black" points="626,-108 572,-108 572,-72 626,-72 626,-108"/>
<text text-anchor="middle" x="599" y="-86.4" font-family="Times Roman,serif" font-size="14.00">Unit</text>
</g>
<!-- Unitconv&#45;&gt;Unit -->
<g id="edge42" class="edge"><title>Unitconv&#45;&gt;Unit</title>
<path fill="none" stroke="red" stroke-width="2" d="M597.505,-143.831C597.719,-136.131 597.973,-126.974 598.211,-118.417"/>
<polygon fill="red" stroke="red" points="601.709,-118.507 598.489,-108.413 594.712,-118.312 601.709,-118.507"/>
</g>
<!-- Address&#45;&gt;Numeral -->
<g id="edge28" class="edge"><title>Address&#45;&gt;Numeral</title>
<path fill="none" stroke="red" stroke-width="2" d="M214.092,-150.949C237.106,-142.261 266.603,-128.218 287,-108 304.511,-90.6431 316.657,-65.227 324.053,-45.8272"/>
<polygon fill="red" stroke="red" points="327.387,-46.8996 327.49,-36.3053 320.802,-44.5227 327.387,-46.8996"/>
</g>
<!-- Eeppl -->
<g id="node24" class="node"><title>Eeppl</title>
<polygon fill="none" stroke="black" points="86,-108 32,-108 32,-72 86,-72 86,-108"/>
<text text-anchor="middle" x="59" y="-86.4" font-family="Times Roman,serif" font-size="14.00">Eeppl</text>
</g>
<!-- Address&#45;&gt;Eeppl -->
<g id="edge22" class="edge"><title>Address&#45;&gt;Eeppl</title>
<path fill="none" stroke="red" stroke-width="2" d="M148.719,-143.831C132.4,-134.04 112.158,-121.895 95.0327,-111.62"/>
<polygon fill="red" stroke="red" points="96.7745,-108.583 86.3988,-106.439 93.173,-114.586 96.7745,-108.583"/>
</g>
<!-- Town -->
<g id="node26" class="node"><title>Town</title>
<polygon fill="none" stroke="black" points="158,-108 104,-108 104,-72 158,-72 158,-108"/>
<text text-anchor="middle" x="131" y="-86.4" font-family="Times Roman,serif" font-size="14.00">Town</text>
</g>
<!-- Address&#45;&gt;Town -->
<g id="edge24" class="edge"><title>Address&#45;&gt;Town</title>
<path fill="none" stroke="red" stroke-width="2" d="M166.888,-143.831C161.472,-135.708 154.976,-125.964 149.008,-117.012"/>
<polygon fill="red" stroke="red" points="151.735,-114.792 143.276,-108.413 145.91,-118.675 151.735,-114.792"/>
</g>
<!-- Tallinnstreet -->
<g id="node28" class="node"><title>Tallinnstreet</title>
<polygon fill="none" stroke="black" points="278,-108 176,-108 176,-72 278,-72 278,-108"/>
<text text-anchor="middle" x="227" y="-86.4" font-family="Times Roman,serif" font-size="14.00">Tallinnstreet</text>
</g>
<!-- Address&#45;&gt;Tallinnstreet -->
<g id="edge26" class="edge"><title>Address&#45;&gt;Tallinnstreet</title>
<path fill="none" stroke="red" stroke-width="2" d="M191.112,-143.831C196.528,-135.708 203.024,-125.964 208.992,-117.012"/>
<polygon fill="red" stroke="red" points="212.09,-118.675 214.724,-108.413 206.265,-114.792 212.09,-118.675"/>
</g>
<!-- Fraction&#45;&gt;Numeral -->
<g id="edge30" class="edge"><title>Fraction&#45;&gt;Numeral</title>
<path fill="none" stroke="red" stroke-width="2" d="M481.666,-75.4217C478.736,-74.2596 475.819,-73.1076 473,-72 442.011,-59.8263 407.071,-46.3489 379.848,-35.9037"/>
<polygon fill="red" stroke="red" points="380.779,-32.5124 370.189,-32.2006 378.273,-39.0485 380.779,-32.5124"/>
</g>
<!-- Estvrp -->
<g id="node32" class="node"><title>Estvrp</title>
<polygon fill="none" stroke="black" points="466,-180 406,-180 406,-144 466,-144 466,-180"/>
<text text-anchor="middle" x="436" y="-158.4" font-family="Times Roman,serif" font-size="14.00">Estvrp</text>
</g>
<!-- Estvrp&#45;&gt;Digit -->
<g id="edge32" class="edge"><title>Estvrp&#45;&gt;Digit</title>
<path fill="none" stroke="red" stroke-width="2" d="M417.074,-143.831C408.014,-135.134 397.019,-124.578 387.173,-115.127"/>
<polygon fill="red" stroke="red" points="389.557,-112.563 379.92,-108.163 384.71,-117.613 389.557,-112.563"/>
</g>
<!-- Estvrp&#45;&gt;Letter -->
<g id="edge34" class="edge"><title>Estvrp&#45;&gt;Letter</title>
<path fill="none" stroke="red" stroke-width="2" d="M435.748,-143.831C435.641,-136.131 435.514,-126.974 435.395,-118.417"/>
<polygon fill="red" stroke="red" points="438.894,-118.364 435.256,-108.413 431.895,-118.461 438.894,-118.364"/>
</g>
<!-- Prefix -->
<g id="node41" class="node"><title>Prefix</title>
<polygon fill="none" stroke="black" points="670,-36 614,-36 614,-1.77636e-14 670,-3.55271e-15 670,-36"/>
<text text-anchor="middle" x="642" y="-14.4" font-family="Times Roman,serif" font-size="14.00">Prefix</text>
</g>
<!-- Unit&#45;&gt;Prefix -->
<g id="edge44" class="edge"><title>Unit&#45;&gt;Prefix</title>
<path fill="none" stroke="red" stroke-width="2" d="M609.851,-71.8314C614.702,-63.7079 620.522,-53.9637 625.868,-45.0118"/>
<polygon fill="red" stroke="red" points="628.881,-46.7933 631.003,-36.4133 622.871,-43.2041 628.881,-46.7933"/>
</g>
<!-- Currency -->
<g id="node43" class="node"><title>Currency</title>
<polygon fill="none" stroke="black" points="596,-36 516,-36 516,-1.77636e-14 596,-3.55271e-15 596,-36"/>
<text text-anchor="middle" x="556" y="-14.4" font-family="Times Roman,serif" font-size="14.00">Currency</text>
</g>
<!-- Unit&#45;&gt;Currency -->
<g id="edge46" class="edge"><title>Unit&#45;&gt;Currency</title>
<path fill="none" stroke="red" stroke-width="2" d="M588.149,-71.8314C583.298,-63.7079 577.478,-53.9637 572.132,-45.0118"/>
<polygon fill="red" stroke="red" points="575.129,-43.2041 566.997,-36.4133 569.119,-46.7933 575.129,-43.2041"/>
</g>
</g>
</svg>
