<?xml version="1.0" encoding="UTF-8" standalone="no"?>
<!DOCTYPE svg PUBLIC "-//W3C//DTD SVG 1.1//EN"
 "http://www.w3.org/Graphics/SVG/1.1/DTD/svg11.dtd">
<!-- Generated by graphviz version 2.26.3 (20100126.1600)
 -->
<!-- Title: G Pages: 1 -->
<svg width="556pt" height="342pt"
 viewBox="0.00 0.00 556.00 342.00" xmlns="http://www.w3.org/2000/svg" xmlns:xlink="http://www.w3.org/1999/xlink">
<g id="graph1" class="graph" transform="scale(1 1) rotate(0) translate(4 338)">
<title>G</title>
<polygon fill="white" stroke="white" points="-4,5 -4,-338 553,-338 553,5 -4,5"/>
<!-- Action -->
<g id="node1" class="node"><title>Action</title>
<ellipse fill="none" stroke="black" cx="202" cy="-315" rx="41.9273" ry="18.3848"/>
<text text-anchor="middle" x="202" y="-311.4" font-family="Times Roman,serif" font-size="14.00">Action</text>
</g>
<!-- Direction -->
<g id="node3" class="node"><title>Direction</title>
<ellipse fill="none" stroke="black" cx="158" cy="-241" rx="56.0679" ry="18.3848"/>
<text text-anchor="middle" x="158" y="-237.4" font-family="Times Roman,serif" font-size="14.00">Direction</text>
</g>
<!-- Action&#45;&gt;Direction -->
<g id="edge2" class="edge"><title>Action&#45;&gt;Direction</title>
<path fill="none" stroke="red" stroke-width="2" d="M191.349,-297.087C186.183,-288.399 179.869,-277.779 174.129,-268.126"/>
<polygon fill="red" stroke="red" points="176.978,-266.069 168.859,-259.262 170.961,-269.647 176.978,-266.069"/>
</g>
<!-- Calc -->
<g id="node5" class="node"><title>Calc</title>
<ellipse fill="none" stroke="black" cx="288" cy="-241" rx="31.8198" ry="18.3848"/>
<text text-anchor="middle" x="288" y="-237.4" font-family="Times Roman,serif" font-size="14.00">Calc</text>
</g>
<!-- Action&#45;&gt;Calc -->
<g id="edge4" class="edge"><title>Action&#45;&gt;Calc</title>
<path fill="none" stroke="red" stroke-width="2" d="M221.515,-298.208C233.581,-287.826 249.205,-274.382 262.275,-263.135"/>
<polygon fill="red" stroke="red" points="264.732,-265.639 270.029,-256.464 260.166,-260.333 264.732,-265.639"/>
</g>
<!-- Address -->
<g id="node12" class="node"><title>Address</title>
<ellipse fill="none" stroke="black" cx="146" cy="-167" rx="50.2046" ry="18.3848"/>
<text text-anchor="middle" x="146" y="-163.4" font-family="Times Roman,serif" font-size="14.00">Address</text>
</g>
<!-- Direction&#45;&gt;Address -->
<g id="edge24" class="edge"><title>Direction&#45;&gt;Address</title>
<path fill="none" stroke="red" stroke-width="2" d="M154.972,-222.327C153.664,-214.264 152.105,-204.648 150.656,-195.711"/>
<polygon fill="red" stroke="red" points="154.083,-194.978 149.027,-185.667 147.173,-196.099 154.083,-194.978"/>
</g>
<!-- Exp -->
<g id="node6" class="node"><title>Exp</title>
<ellipse fill="none" stroke="black" cx="288" cy="-167" rx="29.1951" ry="18.3848"/>
<text text-anchor="middle" x="288" y="-163.4" font-family="Times Roman,serif" font-size="14.00">Exp</text>
</g>
<!-- Calc&#45;&gt;Exp -->
<g id="edge8" class="edge"><title>Calc&#45;&gt;Exp</title>
<path fill="none" stroke="red" stroke-width="2" d="M288,-222.327C288,-214.264 288,-204.648 288,-195.711"/>
<polygon fill="red" stroke="red" points="291.5,-195.667 288,-185.667 284.5,-195.667 291.5,-195.667"/>
</g>
<!-- Unitconv -->
<g id="node11" class="node"><title>Unitconv</title>
<ellipse fill="none" stroke="black" cx="390" cy="-167" rx="55.1543" ry="18.3848"/>
<text text-anchor="middle" x="390" y="-163.4" font-family="Times Roman,serif" font-size="14.00">Unitconv</text>
</g>
<!-- Calc&#45;&gt;Unitconv -->
<g id="edge10" class="edge"><title>Calc&#45;&gt;Unitconv</title>
<path fill="none" stroke="red" stroke-width="2" d="M308.152,-226.38C322.49,-215.978 342.038,-201.796 358.434,-189.901"/>
<polygon fill="red" stroke="red" points="360.638,-192.626 366.677,-183.921 356.528,-186.96 360.638,-192.626"/>
</g>
<!-- Fraction -->
<g id="node8" class="node"><title>Fraction</title>
<ellipse fill="none" stroke="black" cx="295" cy="-93" rx="50.9117" ry="18.3848"/>
<text text-anchor="middle" x="295" y="-89.4" font-family="Times Roman,serif" font-size="14.00">Fraction</text>
</g>
<!-- Exp&#45;&gt;Fraction -->
<g id="edge6" class="edge"><title>Exp&#45;&gt;Fraction</title>
<path fill="none" stroke="red" stroke-width="2" d="M289.766,-148.327C290.529,-140.264 291.439,-130.648 292.284,-121.711"/>
<polygon fill="red" stroke="red" points="295.777,-121.953 293.234,-111.667 288.808,-121.293 295.777,-121.953"/>
</g>
<!-- Numerals -->
<g id="node18" class="node"><title>Numerals</title>
<ellipse fill="none" stroke="black" cx="232" cy="-19" rx="57.9828" ry="18.3848"/>
<text text-anchor="middle" x="232" y="-15.4" font-family="Times Roman,serif" font-size="14.00">Numerals</text>
</g>
<!-- Fraction&#45;&gt;Numerals -->
<g id="edge18" class="edge"><title>Fraction&#45;&gt;Numerals</title>
<path fill="none" stroke="red" stroke-width="2" d="M279.749,-75.0867C271.991,-65.9737 262.422,-54.7335 253.892,-44.7143"/>
<polygon fill="red" stroke="red" points="256.476,-42.3503 247.328,-37.0049 251.146,-46.8881 256.476,-42.3503"/>
</g>
<!-- Unitconv&#45;&gt;Fraction -->
<g id="edge26" class="edge"><title>Unitconv&#45;&gt;Fraction</title>
<path fill="none" stroke="red" stroke-width="2" d="M367.966,-149.837C355.045,-139.772 338.554,-126.927 324.52,-115.995"/>
<polygon fill="red" stroke="red" points="326.627,-113.199 316.587,-109.815 322.325,-118.721 326.627,-113.199"/>
</g>
<!-- Unit -->
<g id="node28" class="node"><title>Unit</title>
<ellipse fill="none" stroke="black" cx="396" cy="-93" rx="32.0265" ry="18.3848"/>
<text text-anchor="middle" x="396" y="-89.4" font-family="Times Roman,serif" font-size="14.00">Unit</text>
</g>
<!-- Unitconv&#45;&gt;Unit -->
<g id="edge28" class="edge"><title>Unitconv&#45;&gt;Unit</title>
<path fill="none" stroke="red" stroke-width="2" d="M391.514,-148.327C392.168,-140.264 392.947,-130.648 393.672,-121.711"/>
<polygon fill="red" stroke="red" points="397.167,-121.918 394.486,-111.667 390.19,-121.352 397.167,-121.918"/>
</g>
<!-- Town -->
<g id="node14" class="node"><title>Town</title>
<ellipse fill="none" stroke="black" cx="37" cy="-93" rx="36.977" ry="18.3848"/>
<text text-anchor="middle" x="37" y="-89.4" font-family="Times Roman,serif" font-size="14.00">Town</text>
</g>
<!-- Address&#45;&gt;Town -->
<g id="edge12" class="edge"><title>Address&#45;&gt;Town</title>
<path fill="none" stroke="red" stroke-width="2" d="M121.809,-150.577C105.893,-139.772 84.9206,-125.533 67.8135,-113.919"/>
<polygon fill="red" stroke="red" points="69.5067,-110.838 59.2673,-108.117 65.5749,-116.63 69.5067,-110.838"/>
</g>
<!-- StreetF -->
<g id="node16" class="node"><title>StreetF</title>
<ellipse fill="none" stroke="black" cx="140" cy="-93" rx="48.0833" ry="18.3848"/>
<text text-anchor="middle" x="140" y="-89.4" font-family="Times Roman,serif" font-size="14.00">StreetF</text>
</g>
<!-- Address&#45;&gt;StreetF -->
<g id="edge14" class="edge"><title>Address&#45;&gt;StreetF</title>
<path fill="none" stroke="red" stroke-width="2" d="M144.486,-148.327C143.832,-140.264 143.053,-130.648 142.328,-121.711"/>
<polygon fill="red" stroke="red" points="145.81,-121.352 141.514,-111.667 138.833,-121.918 145.81,-121.352"/>
</g>
<!-- Address&#45;&gt;Numerals -->
<g id="edge16" class="edge"><title>Address&#45;&gt;Numerals</title>
<path fill="none" stroke="red" stroke-width="2" d="M165.422,-149.652C175.881,-139.497 188.371,-125.955 197,-112 209.459,-91.8514 218.623,-66.5593 224.441,-47.4392"/>
<polygon fill="red" stroke="red" points="227.814,-48.374 227.254,-37.794 221.094,-46.4142 227.814,-48.374"/>
</g>
<!-- Estvrp -->
<g id="node20" class="node"><title>Estvrp</title>
<ellipse fill="none" stroke="black" cx="420" cy="-315" rx="43.1335" ry="18.3848"/>
<text text-anchor="middle" x="420" y="-311.4" font-family="Times Roman,serif" font-size="14.00">Estvrp</text>
</g>
<!-- Digit -->
<g id="node22" class="node"><title>Digit</title>
<ellipse fill="none" stroke="black" cx="373" cy="-241" rx="34.8574" ry="18.3848"/>
<text text-anchor="middle" x="373" y="-237.4" font-family="Times Roman,serif" font-size="14.00">Digit</text>
</g>
<!-- Estvrp&#45;&gt;Digit -->
<g id="edge20" class="edge"><title>Estvrp&#45;&gt;Digit</title>
<path fill="none" stroke="red" stroke-width="2" d="M408.623,-297.087C402.965,-288.179 396.016,-277.239 389.763,-267.393"/>
<polygon fill="red" stroke="red" points="392.588,-265.313 384.273,-258.748 386.68,-269.066 392.588,-265.313"/>
</g>
<!-- Letter -->
<g id="node24" class="node"><title>Letter</title>
<ellipse fill="none" stroke="black" cx="467" cy="-241" rx="41.2167" ry="18.3848"/>
<text text-anchor="middle" x="467" y="-237.4" font-family="Times Roman,serif" font-size="14.00">Letter</text>
</g>
<!-- Estvrp&#45;&gt;Letter -->
<g id="edge22" class="edge"><title>Estvrp&#45;&gt;Letter</title>
<path fill="none" stroke="red" stroke-width="2" d="M431.377,-297.087C436.993,-288.244 443.881,-277.399 450.099,-267.61"/>
<polygon fill="red" stroke="red" points="453.158,-269.323 455.564,-259.005 447.249,-265.57 453.158,-269.323"/>
</g>
<!-- Prefix -->
<g id="node30" class="node"><title>Prefix</title>
<ellipse fill="none" stroke="black" cx="379" cy="-19" rx="39.0967" ry="18.3848"/>
<text text-anchor="middle" x="379" y="-15.4" font-family="Times Roman,serif" font-size="14.00">Prefix</text>
</g>
<!-- Unit&#45;&gt;Prefix -->
<g id="edge30" class="edge"><title>Unit&#45;&gt;Prefix</title>
<path fill="none" stroke="red" stroke-width="2" d="M391.71,-74.3267C389.823,-66.114 387.567,-56.2897 385.482,-47.2139"/>
<polygon fill="red" stroke="red" points="388.88,-46.3735 383.23,-37.411 382.057,-47.9408 388.88,-46.3735"/>
</g>
<!-- Currency -->
<g id="node32" class="node"><title>Currency</title>
<ellipse fill="none" stroke="black" cx="492" cy="-19" rx="56.0679" ry="18.3848"/>
<text text-anchor="middle" x="492" y="-15.4" font-family="Times Roman,serif" font-size="14.00">Currency</text>
</g>
<!-- Unit&#45;&gt;Currency -->
<g id="edge32" class="edge"><title>Unit&#45;&gt;Currency</title>
<path fill="none" stroke="red" stroke-width="2" d="M415.427,-78.025C428.741,-67.7625 446.665,-53.9457 461.825,-42.2602"/>
<polygon fill="red" stroke="red" points="464.132,-44.9007 469.915,-36.0235 459.859,-39.3566 464.132,-44.9007"/>
</g>
</g>
</svg>
