<?xml version="1.0" encoding="UTF-8" standalone="no"?>
<!DOCTYPE svg PUBLIC "-//W3C//DTD SVG 1.1//EN"
 "http://www.w3.org/Graphics/SVG/1.1/DTD/svg11.dtd">
<!-- Generated by graphviz version 2.26.3 (20100126.1600)
 -->
<!-- Title: G Pages: 1 -->
<svg width="2484pt" height="404pt"
 viewBox="0.00 0.00 2484.00 404.00" xmlns="http://www.w3.org/2000/svg" xmlns:xlink="http://www.w3.org/1999/xlink">
<g id="graph1" class="graph" transform="scale(1 1) rotate(0) translate(4 400)">
<title>G</title>
<polygon fill="white" stroke="white" points="-4,5 -4,-400 2481,-400 2481,5 -4,5"/>
<!-- Action -->
<g id="node1" class="node"><title>Action</title>
<polygon fill="none" stroke="black" points="514,-396 454,-396 454,-360 514,-360 514,-396"/>
<text text-anchor="middle" x="484" y="-374.4" font-family="Times Roman,serif" font-size="14.00">Action</text>
</g>
<!-- Direction -->
<g id="node3" class="node"><title>Direction</title>
<polygon fill="none" stroke="black" points="567,-324 487,-324 487,-288 567,-288 567,-324"/>
<text text-anchor="middle" x="527" y="-302.4" font-family="Times Roman,serif" font-size="14.00">Direction</text>
</g>
<!-- Action&#45;&gt;Direction -->
<g id="edge2" class="edge"><title>Action&#45;&gt;Direction</title>
<path fill="none" stroke="red" stroke-width="2" d="M494.851,-359.831C499.702,-351.708 505.522,-341.964 510.868,-333.012"/>
<polygon fill="red" stroke="red" points="513.881,-334.793 516.003,-324.413 507.871,-331.204 513.881,-334.793"/>
</g>
<!-- Calc -->
<g id="node5" class="node"><title>Calc</title>
<polygon fill="none" stroke="black" points="467,-324 413,-324 413,-288 467,-288 467,-324"/>
<text text-anchor="middle" x="440" y="-302.4" font-family="Times Roman,serif" font-size="14.00">Calc</text>
</g>
<!-- Action&#45;&gt;Calc -->
<g id="edge4" class="edge"><title>Action&#45;&gt;Calc</title>
<path fill="none" stroke="red" stroke-width="2" d="M472.897,-359.831C467.933,-351.708 461.978,-341.964 456.507,-333.012"/>
<polygon fill="red" stroke="red" points="459.454,-331.121 451.253,-324.413 453.481,-334.771 459.454,-331.121"/>
</g>
<!-- Address -->
<g id="node75" class="node"><title>Address</title>
<polygon fill="none" stroke="black" points="567,-180 497,-180 497,-144 567,-144 567,-180"/>
<text text-anchor="middle" x="532" y="-158.4" font-family="Times Roman,serif" font-size="14.00">Address</text>
</g>
<!-- Direction&#45;&gt;Address -->
<g id="edge122" class="edge"><title>Direction&#45;&gt;Address</title>
<path fill="none" stroke="red" stroke-width="2" d="M527.633,-287.762C528.486,-263.201 530.012,-219.247 531.015,-190.354"/>
<polygon fill="red" stroke="red" points="534.523,-190.205 531.372,-180.09 527.527,-189.962 534.523,-190.205"/>
</g>
<!-- Exp -->
<g id="node42" class="node"><title>Exp</title>
<polygon fill="none" stroke="black" points="467,-252 413,-252 413,-216 467,-216 467,-252"/>
<text text-anchor="middle" x="440" y="-230.4" font-family="Times Roman,serif" font-size="14.00">Exp</text>
</g>
<!-- Calc&#45;&gt;Exp -->
<g id="edge58" class="edge"><title>Calc&#45;&gt;Exp</title>
<path fill="none" stroke="red" stroke-width="2" d="M440,-287.831C440,-280.131 440,-270.974 440,-262.417"/>
<polygon fill="red" stroke="red" points="443.5,-262.413 440,-252.413 436.5,-262.413 443.5,-262.413"/>
</g>
<!-- Unitconv -->
<g id="node63" class="node"><title>Unitconv</title>
<polygon fill="none" stroke="black" points="395,-252 317,-252 317,-216 395,-216 395,-252"/>
<text text-anchor="middle" x="356" y="-230.4" font-family="Times Roman,serif" font-size="14.00">Unitconv</text>
</g>
<!-- Calc&#45;&gt;Unitconv -->
<g id="edge60" class="edge"><title>Calc&#45;&gt;Unitconv</title>
<path fill="none" stroke="red" stroke-width="2" d="M418.803,-287.831C408.557,-279.048 396.1,-268.371 384.99,-258.849"/>
<polygon fill="red" stroke="red" points="387.06,-256.013 377.19,-252.163 382.505,-261.328 387.06,-256.013"/>
</g>
<!-- ActionEst -->
<g id="node6" class="node"><title>ActionEst</title>
<polygon fill="none" stroke="black" points="1074,-396 992,-396 992,-360 1074,-360 1074,-396"/>
<text text-anchor="middle" x="1033" y="-374.4" font-family="Times Roman,serif" font-size="14.00">ActionEst</text>
</g>
<!-- DirectionEst -->
<g id="node8" class="node"><title>DirectionEst</title>
<polygon fill="none" stroke="black" points="1134,-324 1034,-324 1034,-288 1134,-288 1134,-324"/>
<text text-anchor="middle" x="1084" y="-302.4" font-family="Times Roman,serif" font-size="14.00">DirectionEst</text>
</g>
<!-- ActionEst&#45;&gt;DirectionEst -->
<g id="edge6" class="edge"><title>ActionEst&#45;&gt;DirectionEst</title>
<path fill="none" stroke="green" stroke-width="2" d="M1045.87,-359.831C1051.68,-351.623 1058.67,-341.761 1065.06,-332.732"/>
<polygon fill="green" stroke="green" points="1068.03,-334.597 1070.96,-324.413 1062.32,-330.55 1068.03,-334.597"/>
</g>
<!-- CalcEst -->
<g id="node10" class="node"><title>CalcEst</title>
<polygon fill="none" stroke="black" points="1016,-324 950,-324 950,-288 1016,-288 1016,-324"/>
<text text-anchor="middle" x="983" y="-302.4" font-family="Times Roman,serif" font-size="14.00">CalcEst</text>
</g>
<!-- ActionEst&#45;&gt;CalcEst -->
<g id="edge8" class="edge"><title>ActionEst&#45;&gt;CalcEst</title>
<path fill="none" stroke="green" stroke-width="2" d="M1020.38,-359.831C1014.68,-351.623 1007.83,-341.761 1001.56,-332.732"/>
<polygon fill="green" stroke="green" points="1004.37,-330.631 995.787,-324.413 998.616,-334.623 1004.37,-330.631"/>
</g>
<!-- AddressEst -->
<g id="node81" class="node"><title>AddressEst</title>
<polygon fill="none" stroke="black" points="1131,-180 1039,-180 1039,-144 1131,-144 1131,-180"/>
<text text-anchor="middle" x="1085" y="-158.4" font-family="Times Roman,serif" font-size="14.00">AddressEst</text>
</g>
<!-- DirectionEst&#45;&gt;AddressEst -->
<g id="edge118" class="edge"><title>DirectionEst&#45;&gt;AddressEst</title>
<path fill="none" stroke="green" stroke-width="2" d="M1084.13,-287.762C1084.3,-263.201 1084.6,-219.247 1084.8,-190.354"/>
<polygon fill="green" stroke="green" points="1088.3,-190.114 1084.87,-180.09 1081.3,-190.065 1088.3,-190.114"/>
</g>
<!-- ExpEstl -->
<g id="node48" class="node"><title>ExpEstl</title>
<polygon fill="none" stroke="black" points="1057,-252 989,-252 989,-216 1057,-216 1057,-252"/>
<text text-anchor="middle" x="1023" y="-230.4" font-family="Times Roman,serif" font-size="14.00">ExpEstl</text>
</g>
<!-- CalcEst&#45;&gt;ExpEstl -->
<g id="edge54" class="edge"><title>CalcEst&#45;&gt;ExpEstl</title>
<path fill="none" stroke="green" stroke-width="2" d="M993.094,-287.831C997.56,-279.792 1002.91,-270.167 1007.84,-261.292"/>
<polygon fill="green" stroke="green" points="1010.97,-262.855 1012.77,-252.413 1004.85,-259.455 1010.97,-262.855"/>
</g>
<!-- UnitconvEst -->
<g id="node60" class="node"><title>UnitconvEst</title>
<polygon fill="none" stroke="black" points="889,-252 789,-252 789,-216 889,-216 889,-252"/>
<text text-anchor="middle" x="839" y="-230.4" font-family="Times Roman,serif" font-size="14.00">UnitconvEst</text>
</g>
<!-- CalcEst&#45;&gt;UnitconvEst -->
<g id="edge56" class="edge"><title>CalcEst&#45;&gt;UnitconvEst</title>
<path fill="none" stroke="green" stroke-width="2" d="M949.963,-289.482C930.506,-279.753 905.617,-267.308 884.343,-256.671"/>
<polygon fill="green" stroke="green" points="885.675,-253.424 875.165,-252.083 882.544,-259.685 885.675,-253.424"/>
</g>
<!-- ActionApp -->
<g id="node11" class="node"><title>ActionApp</title>
<polygon fill="none" stroke="black" points="1301,-396 1215,-396 1215,-360 1301,-360 1301,-396"/>
<text text-anchor="middle" x="1258" y="-374.4" font-family="Times Roman,serif" font-size="14.00">ActionApp</text>
</g>
<!-- DirectionApp -->
<g id="node13" class="node"><title>DirectionApp</title>
<polygon fill="none" stroke="black" points="1258,-324 1152,-324 1152,-288 1258,-288 1258,-324"/>
<text text-anchor="middle" x="1205" y="-302.4" font-family="Times Roman,serif" font-size="14.00">DirectionApp</text>
</g>
<!-- ActionApp&#45;&gt;DirectionApp -->
<g id="edge10" class="edge"><title>ActionApp&#45;&gt;DirectionApp</title>
<path fill="none" stroke="green" stroke-width="2" d="M1244.63,-359.831C1238.58,-351.623 1231.32,-341.761 1224.68,-332.732"/>
<polygon fill="green" stroke="green" points="1227.3,-330.392 1218.55,-324.413 1221.66,-334.542 1227.3,-330.392"/>
</g>
<!-- CalcApp -->
<g id="node15" class="node"><title>CalcApp</title>
<polygon fill="none" stroke="black" points="1346,-324 1276,-324 1276,-288 1346,-288 1346,-324"/>
<text text-anchor="middle" x="1311" y="-302.4" font-family="Times Roman,serif" font-size="14.00">CalcApp</text>
</g>
<!-- ActionApp&#45;&gt;CalcApp -->
<g id="edge12" class="edge"><title>ActionApp&#45;&gt;CalcApp</title>
<path fill="none" stroke="green" stroke-width="2" d="M1271.37,-359.831C1277.42,-351.623 1284.68,-341.761 1291.32,-332.732"/>
<polygon fill="green" stroke="green" points="1294.34,-334.542 1297.45,-324.413 1288.7,-330.392 1294.34,-334.542"/>
</g>
<!-- AddressApp -->
<g id="node90" class="node"><title>AddressApp</title>
<polygon fill="none" stroke="black" points="1245,-180 1149,-180 1149,-144 1245,-144 1245,-180"/>
<text text-anchor="middle" x="1197" y="-158.4" font-family="Times Roman,serif" font-size="14.00">AddressApp</text>
</g>
<!-- DirectionApp&#45;&gt;AddressApp -->
<g id="edge120" class="edge"><title>DirectionApp&#45;&gt;AddressApp</title>
<path fill="none" stroke="green" stroke-width="2" d="M1203.99,-287.762C1202.62,-263.201 1200.18,-219.247 1198.58,-190.354"/>
<polygon fill="green" stroke="green" points="1202.05,-189.88 1198,-180.09 1195.07,-190.268 1202.05,-189.88"/>
</g>
<!-- ExpApp -->
<g id="node39" class="node"><title>ExpApp</title>
<polygon fill="none" stroke="black" points="1345,-252 1277,-252 1277,-216 1345,-216 1345,-252"/>
<text text-anchor="middle" x="1311" y="-230.4" font-family="Times Roman,serif" font-size="14.00">ExpApp</text>
</g>
<!-- CalcApp&#45;&gt;ExpApp -->
<g id="edge62" class="edge"><title>CalcApp&#45;&gt;ExpApp</title>
<path fill="none" stroke="green" stroke-width="2" d="M1311,-287.831C1311,-280.131 1311,-270.974 1311,-262.417"/>
<polygon fill="green" stroke="green" points="1314.5,-262.413 1311,-252.413 1307.5,-262.413 1314.5,-262.413"/>
</g>
<!-- UnitconvApp -->
<g id="node66" class="node"><title>UnitconvApp</title>
<polygon fill="none" stroke="black" points="1467,-252 1363,-252 1363,-216 1467,-216 1467,-252"/>
<text text-anchor="middle" x="1415" y="-230.4" font-family="Times Roman,serif" font-size="14.00">UnitconvApp</text>
</g>
<!-- CalcApp&#45;&gt;UnitconvApp -->
<g id="edge64" class="edge"><title>CalcApp&#45;&gt;UnitconvApp</title>
<path fill="none" stroke="green" stroke-width="2" d="M1337.24,-287.831C1350.3,-278.793 1366.25,-267.748 1380.3,-258.02"/>
<polygon fill="green" stroke="green" points="1382.54,-260.733 1388.76,-252.163 1378.55,-254.977 1382.54,-260.733"/>
</g>
<!-- SymbolsEst -->
<g id="node16" class="node"><title>SymbolsEst</title>
<polygon fill="none" stroke="black" points="1723,-180 1629,-180 1629,-144 1723,-144 1723,-180"/>
<text text-anchor="middle" x="1676" y="-158.4" font-family="Times Roman,serif" font-size="14.00">SymbolsEst</text>
</g>
<!-- DigitEst -->
<g id="node18" class="node"><title>DigitEst</title>
<polygon fill="none" stroke="black" points="2050,-108 1980,-108 1980,-72 2050,-72 2050,-108"/>
<text text-anchor="middle" x="2015" y="-86.4" font-family="Times Roman,serif" font-size="14.00">DigitEst</text>
</g>
<!-- SymbolsEst&#45;&gt;DigitEst -->
<g id="edge14" class="edge"><title>SymbolsEst&#45;&gt;DigitEst</title>
<path fill="none" stroke="green" stroke-width="2" d="M1723.13,-154.595C1790.15,-143.869 1910.62,-123.821 1969.73,-107.987"/>
<polygon fill="green" stroke="green" points="1971.01,-111.263 1979.68,-105.183 1969.11,-104.524 1971.01,-111.263"/>
</g>
<!-- LetterEst -->
<g id="node20" class="node"><title>LetterEst</title>
<polygon fill="none" stroke="black" points="1644,-108 1564,-108 1564,-72 1644,-72 1644,-108"/>
<text text-anchor="middle" x="1604" y="-86.4" font-family="Times Roman,serif" font-size="14.00">LetterEst</text>
</g>
<!-- SymbolsEst&#45;&gt;LetterEst -->
<g id="edge16" class="edge"><title>SymbolsEst&#45;&gt;LetterEst</title>
<path fill="none" stroke="green" stroke-width="2" d="M1657.83,-143.831C1649.28,-135.285 1638.94,-124.944 1629.62,-115.62"/>
<polygon fill="green" stroke="green" points="1631.96,-113.009 1622.41,-108.413 1627.01,-117.959 1631.96,-113.009"/>
</g>
<!-- _concrete_ -->
<g id="node32" class="node"><title>_concrete_</title>
<polygon fill="none" stroke="black" points="1593,-36 1503,-36 1503,-1.77636e-14 1593,-3.55271e-15 1593,-36"/>
<text text-anchor="middle" x="1548" y="-14.4" font-family="Times Roman,serif" font-size="14.00">_concrete_</text>
</g>
<!-- DigitEst&#45;&gt;_concrete_ -->
<g id="edge26" class="edge"><title>DigitEst&#45;&gt;_concrete_</title>
<path fill="none" stroke="green" stroke-width="2" d="M1979.73,-74.6451C1976.81,-73.6572 1973.87,-72.7571 1971,-72 1841.93,-37.9901 1684.86,-25.1008 1603.24,-20.4516"/>
<polygon fill="green" stroke="green" points="1603.37,-16.9534 1593.19,-19.8993 1602.99,-23.9429 1603.37,-16.9534"/>
</g>
<!-- LetterEst&#45;&gt;_concrete_ -->
<g id="edge32" class="edge"><title>LetterEst&#45;&gt;_concrete_</title>
<path fill="none" stroke="green" stroke-width="2" d="M1589.87,-71.8314C1583.42,-63.5386 1575.66,-53.557 1568.57,-44.4533"/>
<polygon fill="green" stroke="green" points="1571.22,-42.158 1562.32,-36.4133 1565.7,-46.4556 1571.22,-42.158"/>
</g>
<!-- Symbols -->
<g id="node21" class="node"><title>Symbols</title>
<polygon fill="none" stroke="black" points="152,-180 78,-180 78,-144 152,-144 152,-180"/>
<text text-anchor="middle" x="115" y="-158.4" font-family="Times Roman,serif" font-size="14.00">Symbols</text>
</g>
<!-- Digit -->
<g id="node23" class="node"><title>Digit</title>
<polygon fill="none" stroke="black" points="136,-108 82,-108 82,-72 136,-72 136,-108"/>
<text text-anchor="middle" x="109" y="-86.4" font-family="Times Roman,serif" font-size="14.00">Digit</text>
</g>
<!-- Symbols&#45;&gt;Digit -->
<g id="edge18" class="edge"><title>Symbols&#45;&gt;Digit</title>
<path fill="none" stroke="red" stroke-width="2" d="M113.486,-143.831C112.844,-136.131 112.081,-126.974 111.368,-118.417"/>
<polygon fill="red" stroke="red" points="114.853,-118.088 110.534,-108.413 107.877,-118.669 114.853,-118.088"/>
</g>
<!-- Letter -->
<g id="node25" class="node"><title>Letter</title>
<polygon fill="none" stroke="black" points="64,-108 6,-108 6,-72 64,-72 64,-108"/>
<text text-anchor="middle" x="35" y="-86.4" font-family="Times Roman,serif" font-size="14.00">Letter</text>
</g>
<!-- Symbols&#45;&gt;Letter -->
<g id="edge20" class="edge"><title>Symbols&#45;&gt;Letter</title>
<path fill="none" stroke="red" stroke-width="2" d="M94.8126,-143.831C85.1486,-135.134 73.4204,-124.578 62.9184,-115.127"/>
<polygon fill="red" stroke="red" points="64.9553,-112.251 55.1809,-108.163 60.2725,-117.454 64.9553,-112.251"/>
</g>
<!-- _abstract_ -->
<g id="node35" class="node"><title>_abstract_</title>
<polygon fill="none" stroke="black" points="384,-36 296,-36 296,-1.77636e-14 384,-3.55271e-15 384,-36"/>
<text text-anchor="middle" x="340" y="-14.4" font-family="Times Roman,serif" font-size="14.00">_abstract_</text>
</g>
<!-- Digit&#45;&gt;_abstract_ -->
<g id="edge30" class="edge"><title>Digit&#45;&gt;_abstract_</title>
<path fill="none" stroke="red" stroke-width="2" d="M136.271,-75.6816C139.183,-74.3585 142.13,-73.1029 145,-72 191.552,-54.11 246.443,-39.4551 286.106,-29.949"/>
<polygon fill="red" stroke="red" points="286.922,-33.3526 295.848,-27.6443 285.311,-26.5407 286.922,-33.3526"/>
</g>
<!-- Letter&#45;&gt;_abstract_ -->
<g id="edge34" class="edge"><title>Letter&#45;&gt;_abstract_</title>
<path fill="none" stroke="red" stroke-width="2" d="M64.168,-75.3223C67.113,-74.1016 70.0906,-72.9673 73,-72 144.673,-48.1717 230.834,-33.0577 285.511,-25.0589"/>
<polygon fill="red" stroke="red" points="286.277,-28.485 295.678,-23.6006 285.283,-21.5559 286.277,-28.485"/>
</g>
<!-- SymbolsApp -->
<g id="node26" class="node"><title>SymbolsApp</title>
<polygon fill="none" stroke="black" points="2150,-180 2050,-180 2050,-144 2150,-144 2150,-180"/>
<text text-anchor="middle" x="2100" y="-158.4" font-family="Times Roman,serif" font-size="14.00">SymbolsApp</text>
</g>
<!-- DigitApp -->
<g id="node28" class="node"><title>DigitApp</title>
<polygon fill="none" stroke="black" points="2144,-108 2068,-108 2068,-72 2144,-72 2144,-108"/>
<text text-anchor="middle" x="2106" y="-86.4" font-family="Times Roman,serif" font-size="14.00">DigitApp</text>
</g>
<!-- SymbolsApp&#45;&gt;DigitApp -->
<g id="edge22" class="edge"><title>SymbolsApp&#45;&gt;DigitApp</title>
<path fill="none" stroke="green" stroke-width="2" d="M2101.51,-143.831C2102.16,-136.131 2102.92,-126.974 2103.63,-118.417"/>
<polygon fill="green" stroke="green" points="2107.12,-118.669 2104.47,-108.413 2100.15,-118.088 2107.12,-118.669"/>
</g>
<!-- LetterApp -->
<g id="node30" class="node"><title>LetterApp</title>
<polygon fill="none" stroke="black" points="2248,-108 2162,-108 2162,-72 2248,-72 2248,-108"/>
<text text-anchor="middle" x="2205" y="-86.4" font-family="Times Roman,serif" font-size="14.00">LetterApp</text>
</g>
<!-- SymbolsApp&#45;&gt;LetterApp -->
<g id="edge24" class="edge"><title>SymbolsApp&#45;&gt;LetterApp</title>
<path fill="none" stroke="green" stroke-width="2" d="M2126.5,-143.831C2139.68,-134.793 2155.78,-123.748 2169.97,-114.02"/>
<polygon fill="green" stroke="green" points="2172.24,-116.705 2178.51,-108.163 2168.29,-110.932 2172.24,-116.705"/>
</g>
<!-- DigitApp&#45;&gt;_concrete_ -->
<g id="edge28" class="edge"><title>DigitApp&#45;&gt;_concrete_</title>
<path fill="none" stroke="green" stroke-width="2" d="M2067.78,-74.4321C2064.84,-73.5198 2061.89,-72.6932 2059,-72 1896.37,-32.9749 1697.89,-22.1477 1603.29,-19.1475"/>
<polygon fill="green" stroke="green" points="1603.19,-15.6432 1593.09,-18.842 1602.98,-22.6401 1603.19,-15.6432"/>
</g>
<!-- LetterApp&#45;&gt;_concrete_ -->
<g id="edge36" class="edge"><title>LetterApp&#45;&gt;_concrete_</title>
<path fill="none" stroke="green" stroke-width="2" d="M2161.81,-74.1662C2158.85,-73.3549 2155.9,-72.6206 2153,-72 2048.84,-49.6765 1732.29,-28.9562 1603.44,-21.2118"/>
<polygon fill="green" stroke="green" points="1603.59,-17.7142 1593.4,-20.6114 1603.17,-24.7018 1603.59,-17.7142"/>
</g>
<!-- FractionApp -->
<g id="node41" class="node"><title>FractionApp</title>
<polygon fill="none" stroke="black" points="1361,-180 1263,-180 1263,-144 1361,-144 1361,-180"/>
<text text-anchor="middle" x="1312" y="-158.4" font-family="Times Roman,serif" font-size="14.00">FractionApp</text>
</g>
<!-- ExpApp&#45;&gt;FractionApp -->
<g id="edge38" class="edge"><title>ExpApp&#45;&gt;FractionApp</title>
<path fill="none" stroke="green" stroke-width="2" d="M1311.25,-215.831C1311.36,-208.131 1311.49,-198.974 1311.61,-190.417"/>
<polygon fill="green" stroke="green" points="1315.1,-190.461 1311.74,-180.413 1308.11,-190.364 1315.1,-190.461"/>
</g>
<!-- decimal -->
<g id="node73" class="node"><title>decimal</title>
<polygon fill="none" stroke="black" points="1322,-108 1254,-108 1254,-72 1322,-72 1322,-108"/>
<text text-anchor="middle" x="1288" y="-86.4" font-family="Times Roman,serif" font-size="14.00">decimal</text>
</g>
<!-- FractionApp&#45;&gt;decimal -->
<g id="edge102" class="edge"><title>FractionApp&#45;&gt;decimal</title>
<path fill="none" stroke="green" stroke-width="2" d="M1305.94,-143.831C1303.35,-136.046 1300.26,-126.773 1297.38,-118.135"/>
<polygon fill="green" stroke="green" points="1300.62,-116.793 1294.14,-108.413 1293.98,-119.007 1300.62,-116.793"/>
</g>
<!-- Fraction -->
<g id="node44" class="node"><title>Fraction</title>
<polygon fill="none" stroke="black" points="475,-180 403,-180 403,-144 475,-144 475,-180"/>
<text text-anchor="middle" x="439" y="-158.4" font-family="Times Roman,serif" font-size="14.00">Fraction</text>
</g>
<!-- Exp&#45;&gt;Fraction -->
<g id="edge40" class="edge"><title>Exp&#45;&gt;Fraction</title>
<path fill="none" stroke="red" stroke-width="2" d="M439.748,-215.831C439.641,-208.131 439.514,-198.974 439.395,-190.417"/>
<polygon fill="red" stroke="red" points="442.894,-190.364 439.256,-180.413 435.895,-190.461 442.894,-190.364"/>
</g>
<!-- Numerals -->
<g id="node69" class="node"><title>Numerals</title>
<polygon fill="none" stroke="black" points="480,-108 398,-108 398,-72 480,-72 480,-108"/>
<text text-anchor="middle" x="439" y="-86.4" font-family="Times Roman,serif" font-size="14.00">Numerals</text>
</g>
<!-- Fraction&#45;&gt;Numerals -->
<g id="edge104" class="edge"><title>Fraction&#45;&gt;Numerals</title>
<path fill="none" stroke="red" stroke-width="2" d="M439,-143.831C439,-136.131 439,-126.974 439,-118.417"/>
<polygon fill="red" stroke="red" points="442.5,-118.413 439,-108.413 435.5,-118.413 442.5,-118.413"/>
</g>
<!-- ExpEst -->
<g id="node45" class="node"><title>ExpEst</title>
<polygon fill="none" stroke="black" points="971,-252 907,-252 907,-216 971,-216 971,-252"/>
<text text-anchor="middle" x="939" y="-230.4" font-family="Times Roman,serif" font-size="14.00">ExpEst</text>
</g>
<!-- FractionEst -->
<g id="node47" class="node"><title>FractionEst</title>
<polygon fill="none" stroke="black" points="1004,-180 910,-180 910,-144 1004,-144 1004,-180"/>
<text text-anchor="middle" x="957" y="-158.4" font-family="Times Roman,serif" font-size="14.00">FractionEst</text>
</g>
<!-- ExpEst&#45;&gt;FractionEst -->
<g id="edge42" class="edge"><title>ExpEst&#45;&gt;FractionEst</title>
<path fill="none" stroke="green" stroke-width="2" d="M943.542,-215.831C945.488,-208.046 947.807,-198.773 949.966,-190.135"/>
<polygon fill="green" stroke="green" points="953.367,-190.964 952.397,-180.413 946.576,-189.266 953.367,-190.964"/>
</g>
<!-- estonian -->
<g id="node71" class="node"><title>estonian</title>
<polygon fill="none" stroke="black" points="1036,-108 960,-108 960,-72 1036,-72 1036,-108"/>
<text text-anchor="middle" x="998" y="-86.4" font-family="Times Roman,serif" font-size="14.00">estonian</text>
</g>
<!-- FractionEst&#45;&gt;estonian -->
<g id="edge100" class="edge"><title>FractionEst&#45;&gt;estonian</title>
<path fill="none" stroke="green" stroke-width="2" d="M967.346,-143.831C971.924,-135.792 977.405,-126.167 982.459,-117.292"/>
<polygon fill="green" stroke="green" points="985.608,-118.835 987.515,-108.413 979.525,-115.371 985.608,-118.835"/>
</g>
<!-- ExpEstl&#45;&gt;FractionEst -->
<g id="edge44" class="edge"><title>ExpEstl&#45;&gt;FractionEst</title>
<path fill="none" stroke="green" stroke-width="2" d="M1006.35,-215.831C998.589,-207.369 989.22,-197.149 980.739,-187.897"/>
<polygon fill="green" stroke="green" points="983.216,-185.42 973.879,-180.413 978.056,-190.15 983.216,-185.42"/>
</g>
<!-- Go -->
<g id="node50" class="node"><title>Go</title>
<polygon fill="none" stroke="black" points="208,-108 154,-108 154,-72 208,-72 208,-108"/>
<text text-anchor="middle" x="181" y="-86.4" font-family="Times Roman,serif" font-size="14.00">Go</text>
</g>
<!-- Go&#45;&gt;_abstract_ -->
<g id="edge46" class="edge"><title>Go&#45;&gt;_abstract_</title>
<path fill="none" stroke="red" stroke-width="2" d="M208.056,-76.2907C211.063,-74.821 214.09,-73.3652 217,-72 240.185,-61.1226 266.112,-49.6409 288.162,-40.0748"/>
<polygon fill="red" stroke="red" points="289.566,-43.2811 297.355,-36.0997 286.787,-36.856 289.566,-43.2811"/>
</g>
<!-- GoEst -->
<g id="node52" class="node"><title>GoEst</title>
<polygon fill="none" stroke="black" points="1720,-108 1662,-108 1662,-72 1720,-72 1720,-108"/>
<text text-anchor="middle" x="1691" y="-86.4" font-family="Times Roman,serif" font-size="14.00">GoEst</text>
</g>
<!-- GoEst&#45;&gt;_concrete_ -->
<g id="edge48" class="edge"><title>GoEst&#45;&gt;_concrete_</title>
<path fill="none" stroke="green" stroke-width="2" d="M1661.72,-75.256C1641.9,-65.2759 1615.33,-51.9003 1592.86,-40.5868"/>
<polygon fill="green" stroke="green" points="1594.34,-37.4134 1583.83,-36.0423 1591.19,-43.6656 1594.34,-37.4134"/>
</g>
<!-- GoApp -->
<g id="node54" class="node"><title>GoApp</title>
<polygon fill="none" stroke="black" points="1800,-108 1738,-108 1738,-72 1800,-72 1800,-108"/>
<text text-anchor="middle" x="1769" y="-86.4" font-family="Times Roman,serif" font-size="14.00">GoApp</text>
</g>
<!-- GoApp&#45;&gt;_concrete_ -->
<g id="edge50" class="edge"><title>GoApp&#45;&gt;_concrete_</title>
<path fill="none" stroke="green" stroke-width="2" d="M1737.72,-75.4508C1734.79,-74.2329 1731.85,-73.0628 1729,-72 1687.43,-56.5223 1639.25,-42.3231 1603.05,-32.3735"/>
<polygon fill="green" stroke="green" points="1603.75,-28.9348 1593.18,-29.6823 1601.9,-35.6885 1603.75,-28.9348"/>
</g>
<!-- GoEng -->
<g id="node56" class="node"><title>GoEng</title>
<polygon fill="none" stroke="black" points="1880,-108 1818,-108 1818,-72 1880,-72 1880,-108"/>
<text text-anchor="middle" x="1849" y="-86.4" font-family="Times Roman,serif" font-size="14.00">GoEng</text>
</g>
<!-- GoEng&#45;&gt;_concrete_ -->
<g id="edge52" class="edge"><title>GoEng&#45;&gt;_concrete_</title>
<path fill="none" stroke="green" stroke-width="2" d="M1817.81,-75.1869C1814.87,-74.0243 1811.9,-72.9392 1809,-72 1739.53,-49.4826 1656.51,-34.2049 1603.06,-25.7988"/>
<polygon fill="green" stroke="green" points="1603.52,-22.3288 1593.1,-24.259 1602.45,-29.2465 1603.52,-22.3288"/>
</g>
<!-- UnitconvEst&#45;&gt;FractionEst -->
<g id="edge160" class="edge"><title>UnitconvEst&#45;&gt;FractionEst</title>
<path fill="none" stroke="green" stroke-width="2" d="M868.776,-215.831C883.869,-206.622 902.376,-195.33 918.534,-185.471"/>
<polygon fill="green" stroke="green" points="920.52,-188.359 927.233,-180.163 916.874,-182.384 920.52,-188.359"/>
</g>
<!-- UnitEst -->
<g id="node118" class="node"><title>UnitEst</title>
<polygon fill="none" stroke="black" points="873,-180 805,-180 805,-144 873,-144 873,-180"/>
<text text-anchor="middle" x="839" y="-158.4" font-family="Times Roman,serif" font-size="14.00">UnitEst</text>
</g>
<!-- UnitconvEst&#45;&gt;UnitEst -->
<g id="edge162" class="edge"><title>UnitconvEst&#45;&gt;UnitEst</title>
<path fill="none" stroke="green" stroke-width="2" d="M839,-215.831C839,-208.131 839,-198.974 839,-190.417"/>
<polygon fill="green" stroke="green" points="842.5,-190.413 839,-180.413 835.5,-190.413 842.5,-190.413"/>
</g>
<!-- Unitconv&#45;&gt;Fraction -->
<g id="edge138" class="edge"><title>Unitconv&#45;&gt;Fraction</title>
<path fill="none" stroke="red" stroke-width="2" d="M376.944,-215.831C387.069,-207.048 399.378,-196.371 410.355,-186.849"/>
<polygon fill="red" stroke="red" points="412.802,-189.359 418.062,-180.163 408.215,-184.072 412.802,-189.359"/>
</g>
<!-- Unit -->
<g id="node124" class="node"><title>Unit</title>
<polygon fill="none" stroke="black" points="367,-180 313,-180 313,-144 367,-144 367,-180"/>
<text text-anchor="middle" x="340" y="-158.4" font-family="Times Roman,serif" font-size="14.00">Unit</text>
</g>
<!-- Unitconv&#45;&gt;Unit -->
<g id="edge140" class="edge"><title>Unitconv&#45;&gt;Unit</title>
<path fill="none" stroke="red" stroke-width="2" d="M351.963,-215.831C350.251,-208.131 348.217,-198.974 346.315,-190.417"/>
<polygon fill="red" stroke="red" points="349.678,-189.416 344.092,-180.413 342.845,-190.934 349.678,-189.416"/>
</g>
<!-- UnitconvApp&#45;&gt;FractionApp -->
<g id="edge154" class="edge"><title>UnitconvApp&#45;&gt;FractionApp</title>
<path fill="none" stroke="green" stroke-width="2" d="M1389.01,-215.831C1376.08,-206.793 1360.28,-195.748 1346.36,-186.02"/>
<polygon fill="green" stroke="green" points="1348.18,-183.024 1337.98,-180.163 1344.17,-188.761 1348.18,-183.024"/>
</g>
<!-- UnitApp -->
<g id="node130" class="node"><title>UnitApp</title>
<polygon fill="none" stroke="black" points="1451,-180 1379,-180 1379,-144 1451,-144 1451,-180"/>
<text text-anchor="middle" x="1415" y="-158.4" font-family="Times Roman,serif" font-size="14.00">UnitApp</text>
</g>
<!-- UnitconvApp&#45;&gt;UnitApp -->
<g id="edge156" class="edge"><title>UnitconvApp&#45;&gt;UnitApp</title>
<path fill="none" stroke="green" stroke-width="2" d="M1415,-215.831C1415,-208.131 1415,-198.974 1415,-190.417"/>
<polygon fill="green" stroke="green" points="1418.5,-190.413 1415,-180.413 1411.5,-190.413 1418.5,-190.413"/>
</g>
<!-- english -->
<g id="node67" class="node"><title>english</title>
<polygon fill="none" stroke="black" points="1962,-108 1898,-108 1898,-72 1962,-72 1962,-108"/>
<text text-anchor="middle" x="1930" y="-86.4" font-family="Times Roman,serif" font-size="14.00">english</text>
</g>
<!-- english&#45;&gt;_concrete_ -->
<g id="edge66" class="edge"><title>english&#45;&gt;_concrete_</title>
<path fill="none" stroke="green" stroke-width="2" d="M1897.61,-74.8812C1894.73,-73.8129 1891.83,-72.8316 1889,-72 1790.66,-43.1505 1671.58,-28.7498 1603.32,-22.3663"/>
<polygon fill="green" stroke="green" points="1603.5,-18.868 1593.22,-21.4458 1602.86,-25.8391 1603.5,-18.868"/>
</g>
<!-- Numerals&#45;&gt;_abstract_ -->
<g id="edge68" class="edge"><title>Numerals&#45;&gt;_abstract_</title>
<path fill="none" stroke="red" stroke-width="2" d="M414.018,-71.8314C401.707,-62.8779 386.689,-51.9558 373.406,-42.2955"/>
<polygon fill="red" stroke="red" points="375.12,-39.214 364.974,-36.1628 371.003,-44.8752 375.12,-39.214"/>
</g>
<!-- estonian&#45;&gt;_concrete_ -->
<g id="edge70" class="edge"><title>estonian&#45;&gt;_concrete_</title>
<path fill="none" stroke="green" stroke-width="2" d="M1035.74,-72.0617C1035.83,-72.041 1035.92,-72.0205 1036,-72 1198.55,-32.8513 1397.49,-22.0657 1492.51,-19.1086"/>
<polygon fill="green" stroke="green" points="1492.86,-22.5999 1502.76,-18.8079 1492.66,-15.6029 1492.86,-22.5999"/>
</g>
<!-- estonian&#45;&gt;_concrete_ -->
<g id="edge124" class="edge"><title>estonian&#45;&gt;_concrete_</title>
<path fill="none" stroke="green" stroke-width="2" d="M1036.04,-77.4778C1042.02,-75.3701 1048.14,-73.4117 1054,-72 1210.42,-34.3266 1400.54,-22.9189 1492.74,-19.4773"/>
<polygon fill="green" stroke="green" points="1493.09,-22.9673 1502.96,-19.1139 1492.84,-15.9717 1493.09,-22.9673"/>
</g>
<!-- decimal&#45;&gt;_concrete_ -->
<g id="edge72" class="edge"><title>decimal&#45;&gt;_concrete_</title>
<path fill="none" stroke="green" stroke-width="2" d="M1321.54,-72.1537C1321.69,-72.1022 1321.85,-72.0509 1322,-72 1379.16,-53.0469 1446.72,-37.2362 1493.1,-27.7183"/>
<polygon fill="green" stroke="green" points="1493.84,-31.1385 1502.95,-25.7261 1492.45,-24.2774 1493.84,-31.1385"/>
</g>
<!-- decimal&#45;&gt;_concrete_ -->
<g id="edge126" class="edge"><title>decimal&#45;&gt;_concrete_</title>
<path fill="none" stroke="green" stroke-width="2" d="M1322.46,-78.5005C1328.32,-76.184 1334.32,-73.8848 1340,-72 1391.17,-55.0326 1450.68,-40.5835 1492.99,-30.9133"/>
<polygon fill="green" stroke="green" points="1493.84,-34.3087 1502.82,-28.6809 1492.29,-27.4825 1493.84,-34.3087"/>
</g>
<!-- Address&#45;&gt;Numerals -->
<g id="edge78" class="edge"><title>Address&#45;&gt;Numerals</title>
<path fill="none" stroke="red" stroke-width="2" d="M508.532,-143.831C496.967,-134.878 482.86,-123.956 470.382,-114.295"/>
<polygon fill="red" stroke="red" points="472.51,-111.517 462.46,-108.163 468.225,-117.052 472.51,-111.517"/>
</g>
<!-- Town -->
<g id="node77" class="node"><title>Town</title>
<polygon fill="none" stroke="black" points="638,-108 584,-108 584,-72 638,-72 638,-108"/>
<text text-anchor="middle" x="611" y="-86.4" font-family="Times Roman,serif" font-size="14.00">Town</text>
</g>
<!-- Address&#45;&gt;Town -->
<g id="edge74" class="edge"><title>Address&#45;&gt;Town</title>
<path fill="none" stroke="red" stroke-width="2" d="M551.935,-143.831C561.478,-135.134 573.06,-124.578 583.431,-115.127"/>
<polygon fill="red" stroke="red" points="586.038,-117.486 591.071,-108.163 581.323,-112.312 586.038,-117.486"/>
</g>
<!-- StreetF -->
<g id="node79" class="node"><title>StreetF</title>
<polygon fill="none" stroke="black" points="566,-108 498,-108 498,-72 566,-72 566,-108"/>
<text text-anchor="middle" x="532" y="-86.4" font-family="Times Roman,serif" font-size="14.00">StreetF</text>
</g>
<!-- Address&#45;&gt;StreetF -->
<g id="edge76" class="edge"><title>Address&#45;&gt;StreetF</title>
<path fill="none" stroke="red" stroke-width="2" d="M532,-143.831C532,-136.131 532,-126.974 532,-118.417"/>
<polygon fill="red" stroke="red" points="535.5,-118.413 532,-108.413 528.5,-118.413 535.5,-118.413"/>
</g>
<!-- Town&#45;&gt;_abstract_ -->
<g id="edge98" class="edge"><title>Town&#45;&gt;_abstract_</title>
<path fill="none" stroke="red" stroke-width="2" d="M583.778,-75.5503C580.856,-74.2528 577.894,-73.0391 575,-72 514.677,-50.3381 442.45,-35.2715 394.136,-26.6596"/>
<polygon fill="red" stroke="red" points="394.656,-23.1975 384.202,-24.9198 393.448,-30.0925 394.656,-23.1975"/>
</g>
<!-- StreetF&#45;&gt;_abstract_ -->
<g id="edge86" class="edge"><title>StreetF&#45;&gt;_abstract_</title>
<path fill="none" stroke="red" stroke-width="2" d="M497.794,-75.5043C494.827,-74.3007 491.865,-73.118 489,-72 457.703,-59.7864 422.364,-46.9389 393.959,-36.8408"/>
<polygon fill="red" stroke="red" points="394.813,-33.4305 384.219,-33.3891 392.475,-40.0284 394.813,-33.4305"/>
</g>
<!-- AddressEst&#45;&gt;estonian -->
<g id="edge84" class="edge"><title>AddressEst&#45;&gt;estonian</title>
<path fill="none" stroke="green" stroke-width="2" d="M1063.05,-143.831C1052.33,-134.963 1039.28,-124.164 1027.69,-114.572"/>
<polygon fill="green" stroke="green" points="1029.88,-111.842 1019.95,-108.163 1025.42,-117.235 1029.88,-111.842"/>
</g>
<!-- TownEst -->
<g id="node83" class="node"><title>TownEst</title>
<polygon fill="none" stroke="black" points="1128,-108 1054,-108 1054,-72 1128,-72 1128,-108"/>
<text text-anchor="middle" x="1091" y="-86.4" font-family="Times Roman,serif" font-size="14.00">TownEst</text>
</g>
<!-- AddressEst&#45;&gt;TownEst -->
<g id="edge80" class="edge"><title>AddressEst&#45;&gt;TownEst</title>
<path fill="none" stroke="green" stroke-width="2" d="M1086.51,-143.831C1087.16,-136.131 1087.92,-126.974 1088.63,-118.417"/>
<polygon fill="green" stroke="green" points="1092.12,-118.669 1089.47,-108.413 1085.15,-118.088 1092.12,-118.669"/>
</g>
<!-- StreetFEst -->
<g id="node85" class="node"><title>StreetFEst</title>
<polygon fill="none" stroke="black" points="1236,-108 1146,-108 1146,-72 1236,-72 1236,-108"/>
<text text-anchor="middle" x="1191" y="-86.4" font-family="Times Roman,serif" font-size="14.00">StreetFEst</text>
</g>
<!-- AddressEst&#45;&gt;StreetFEst -->
<g id="edge82" class="edge"><title>AddressEst&#45;&gt;StreetFEst</title>
<path fill="none" stroke="green" stroke-width="2" d="M1111.75,-143.831C1125.06,-134.793 1141.32,-123.748 1155.64,-114.02"/>
<polygon fill="green" stroke="green" points="1157.95,-116.677 1164.26,-108.163 1154.02,-110.886 1157.95,-116.677"/>
</g>
<!-- TownEst&#45;&gt;_concrete_ -->
<g id="edge88" class="edge"><title>TownEst&#45;&gt;_concrete_</title>
<path fill="none" stroke="green" stroke-width="2" d="M1128.16,-74.5894C1131.12,-73.6277 1134.09,-72.7479 1137,-72 1261.73,-39.9091 1412.93,-26.2959 1492.63,-21.0089"/>
<polygon fill="green" stroke="green" points="1493.17,-24.4815 1502.93,-20.3462 1492.72,-17.4959 1493.17,-24.4815"/>
</g>
<!-- StreetFEst&#45;&gt;_concrete_ -->
<g id="edge90" class="edge"><title>StreetFEst&#45;&gt;_concrete_</title>
<path fill="none" stroke="green" stroke-width="2" d="M1236.23,-74.3922C1239.19,-73.5374 1242.13,-72.7308 1245,-72 1330.42,-50.2739 1431.57,-34.1258 1492.7,-25.3879"/>
<polygon fill="green" stroke="green" points="1493.49,-28.8116 1502.9,-23.9462 1492.51,-21.8805 1493.49,-28.8116"/>
</g>
<!-- AddressApp&#45;&gt;decimal -->
<g id="edge96" class="edge"><title>AddressApp&#45;&gt;decimal</title>
<path fill="none" stroke="green" stroke-width="2" d="M1219.96,-143.831C1231.17,-134.963 1244.82,-124.164 1256.94,-114.572"/>
<polygon fill="green" stroke="green" points="1259.37,-117.112 1265.04,-108.163 1255.03,-111.623 1259.37,-117.112"/>
</g>
<!-- AddressApp&#45;&gt;TownEst -->
<g id="edge92" class="edge"><title>AddressApp&#45;&gt;TownEst</title>
<path fill="none" stroke="green" stroke-width="2" d="M1170.25,-143.831C1156.94,-134.793 1140.68,-123.748 1126.36,-114.02"/>
<polygon fill="green" stroke="green" points="1127.98,-110.886 1117.74,-108.163 1124.05,-116.677 1127.98,-110.886"/>
</g>
<!-- AddressApp&#45;&gt;StreetFEst -->
<g id="edge94" class="edge"><title>AddressApp&#45;&gt;StreetFEst</title>
<path fill="none" stroke="green" stroke-width="2" d="M1195.49,-143.831C1194.84,-136.131 1194.08,-126.974 1193.37,-118.417"/>
<polygon fill="green" stroke="green" points="1196.85,-118.088 1192.53,-108.413 1189.88,-118.669 1196.85,-118.088"/>
</g>
<!-- EstvrpEst -->
<g id="node98" class="node"><title>EstvrpEst</title>
<polygon fill="none" stroke="black" points="1895,-180 1813,-180 1813,-144 1895,-144 1895,-180"/>
<text text-anchor="middle" x="1854" y="-158.4" font-family="Times Roman,serif" font-size="14.00">EstvrpEst</text>
</g>
<!-- EstvrpEst&#45;&gt;DigitEst -->
<g id="edge106" class="edge"><title>EstvrpEst&#45;&gt;DigitEst</title>
<path fill="none" stroke="green" stroke-width="2" d="M1894.63,-143.831C1917.82,-133.46 1946.92,-120.448 1970.69,-109.814"/>
<polygon fill="green" stroke="green" points="1972.15,-112.995 1979.85,-105.717 1969.3,-106.605 1972.15,-112.995"/>
</g>
<!-- EstvrpEst&#45;&gt;LetterEst -->
<g id="edge108" class="edge"><title>EstvrpEst&#45;&gt;LetterEst</title>
<path fill="none" stroke="green" stroke-width="2" d="M1812.88,-152.101C1774.11,-142.511 1714.23,-127.047 1653.72,-108.1"/>
<polygon fill="green" stroke="green" points="1654.6,-104.706 1644.01,-105.029 1652.49,-111.381 1654.6,-104.706"/>
</g>
<!-- Estvrp -->
<g id="node101" class="node"><title>Estvrp</title>
<polygon fill="none" stroke="black" points="60,-180 2.84217e-14,-180 3.55271e-15,-144 60,-144 60,-180"/>
<text text-anchor="middle" x="30" y="-158.4" font-family="Times Roman,serif" font-size="14.00">Estvrp</text>
</g>
<!-- Estvrp&#45;&gt;Digit -->
<g id="edge110" class="edge"><title>Estvrp&#45;&gt;Digit</title>
<path fill="none" stroke="red" stroke-width="2" d="M49.935,-143.831C59.4783,-135.134 71.0599,-124.578 81.4306,-115.127"/>
<polygon fill="red" stroke="red" points="84.038,-117.486 89.0713,-108.163 79.3228,-112.312 84.038,-117.486"/>
</g>
<!-- Estvrp&#45;&gt;Letter -->
<g id="edge112" class="edge"><title>Estvrp&#45;&gt;Letter</title>
<path fill="none" stroke="red" stroke-width="2" d="M31.2617,-143.831C31.7965,-136.131 32.4323,-126.974 33.0266,-118.417"/>
<polygon fill="red" stroke="red" points="36.52,-118.632 33.7213,-108.413 29.5368,-118.147 36.52,-118.632"/>
</g>
<!-- EstvrpApp -->
<g id="node104" class="node"><title>EstvrpApp</title>
<polygon fill="none" stroke="black" points="2254,-180 2168,-180 2168,-144 2254,-144 2254,-180"/>
<text text-anchor="middle" x="2211" y="-158.4" font-family="Times Roman,serif" font-size="14.00">EstvrpApp</text>
</g>
<!-- EstvrpApp&#45;&gt;DigitApp -->
<g id="edge114" class="edge"><title>EstvrpApp&#45;&gt;DigitApp</title>
<path fill="none" stroke="green" stroke-width="2" d="M2184.5,-143.831C2171.32,-134.793 2155.22,-123.748 2141.03,-114.02"/>
<polygon fill="green" stroke="green" points="2142.71,-110.932 2132.49,-108.163 2138.76,-116.705 2142.71,-110.932"/>
</g>
<!-- EstvrpApp&#45;&gt;LetterApp -->
<g id="edge116" class="edge"><title>EstvrpApp&#45;&gt;LetterApp</title>
<path fill="none" stroke="green" stroke-width="2" d="M2209.49,-143.831C2208.84,-136.131 2208.08,-126.974 2207.37,-118.417"/>
<polygon fill="green" stroke="green" points="2210.85,-118.088 2206.53,-108.413 2203.88,-118.669 2210.85,-118.088"/>
</g>
<!-- CurrencyApp -->
<g id="node112" class="node"><title>CurrencyApp</title>
<polygon fill="none" stroke="black" points="1546,-108 1440,-108 1440,-72 1546,-72 1546,-108"/>
<text text-anchor="middle" x="1493" y="-86.4" font-family="Times Roman,serif" font-size="14.00">CurrencyApp</text>
</g>
<!-- CurrencyApp&#45;&gt;_concrete_ -->
<g id="edge128" class="edge"><title>CurrencyApp&#45;&gt;_concrete_</title>
<path fill="none" stroke="green" stroke-width="2" d="M1506.88,-71.8314C1513.21,-63.5386 1520.84,-53.557 1527.79,-44.4533"/>
<polygon fill="green" stroke="green" points="1530.65,-46.4847 1533.93,-36.4133 1525.08,-42.2353 1530.65,-46.4847"/>
</g>
<!-- Prefix -->
<g id="node114" class="node"><title>Prefix</title>
<polygon fill="none" stroke="black" points="282,-108 226,-108 226,-72 282,-72 282,-108"/>
<text text-anchor="middle" x="254" y="-86.4" font-family="Times Roman,serif" font-size="14.00">Prefix</text>
</g>
<!-- Prefix&#45;&gt;_abstract_ -->
<g id="edge130" class="edge"><title>Prefix&#45;&gt;_abstract_</title>
<path fill="none" stroke="red" stroke-width="2" d="M275.701,-71.8314C286.192,-63.0485 298.946,-52.3712 310.319,-42.8489"/>
<polygon fill="red" stroke="red" points="312.885,-45.2659 318.306,-36.1628 308.391,-39.8986 312.885,-45.2659"/>
</g>
<!-- CurrencyEst -->
<g id="node116" class="node"><title>CurrencyEst</title>
<polygon fill="none" stroke="black" points="846,-108 746,-108 746,-72 846,-72 846,-108"/>
<text text-anchor="middle" x="796" y="-86.4" font-family="Times Roman,serif" font-size="14.00">CurrencyEst</text>
</g>
<!-- CurrencyEst&#45;&gt;_concrete_ -->
<g id="edge132" class="edge"><title>CurrencyEst&#45;&gt;_concrete_</title>
<path fill="none" stroke="green" stroke-width="2" d="M846.026,-73.925C849.046,-73.208 852.054,-72.5573 855,-72 977.042,-48.9159 1350.89,-28.0407 1492.68,-20.7475"/>
<polygon fill="green" stroke="green" points="1493.08,-24.232 1502.88,-20.2257 1492.72,-17.2412 1493.08,-24.232"/>
</g>
<!-- UnitEst&#45;&gt;CurrencyEst -->
<g id="edge136" class="edge"><title>UnitEst&#45;&gt;CurrencyEst</title>
<path fill="none" stroke="green" stroke-width="2" d="M828.149,-143.831C823.298,-135.708 817.478,-125.964 812.132,-117.012"/>
<polygon fill="green" stroke="green" points="815.129,-115.204 806.997,-108.413 809.119,-118.793 815.129,-115.204"/>
</g>
<!-- PrefixEst -->
<g id="node120" class="node"><title>PrefixEst</title>
<polygon fill="none" stroke="black" points="942,-108 864,-108 864,-72 942,-72 942,-108"/>
<text text-anchor="middle" x="903" y="-86.4" font-family="Times Roman,serif" font-size="14.00">PrefixEst</text>
</g>
<!-- UnitEst&#45;&gt;PrefixEst -->
<g id="edge134" class="edge"><title>UnitEst&#45;&gt;PrefixEst</title>
<path fill="none" stroke="green" stroke-width="2" d="M855.15,-143.831C862.672,-135.369 871.757,-125.149 879.98,-115.897"/>
<polygon fill="green" stroke="green" points="882.605,-118.213 886.633,-108.413 877.373,-113.562 882.605,-118.213"/>
</g>
<!-- PrefixEst&#45;&gt;_concrete_ -->
<g id="edge142" class="edge"><title>PrefixEst&#45;&gt;_concrete_</title>
<path fill="none" stroke="green" stroke-width="2" d="M942.029,-74.3879C945.037,-73.4858 948.05,-72.6736 951,-72 1053.26,-48.6501 1364.65,-28.5904 1492.4,-21.1174"/>
<polygon fill="green" stroke="green" points="1492.96,-24.5914 1502.74,-20.5172 1492.55,-17.6032 1492.96,-24.5914"/>
</g>
<!-- Unit&#45;&gt;Prefix -->
<g id="edge164" class="edge"><title>Unit&#45;&gt;Prefix</title>
<path fill="none" stroke="red" stroke-width="2" d="M318.299,-143.831C307.808,-135.048 295.054,-124.371 283.681,-114.849"/>
<polygon fill="red" stroke="red" points="285.609,-111.899 275.694,-108.163 281.115,-117.266 285.609,-111.899"/>
</g>
<!-- Currency -->
<g id="node137" class="node"><title>Currency</title>
<polygon fill="none" stroke="black" points="380,-108 300,-108 300,-72 380,-72 380,-108"/>
<text text-anchor="middle" x="340" y="-86.4" font-family="Times Roman,serif" font-size="14.00">Currency</text>
</g>
<!-- Unit&#45;&gt;Currency -->
<g id="edge166" class="edge"><title>Unit&#45;&gt;Currency</title>
<path fill="none" stroke="red" stroke-width="2" d="M340,-143.831C340,-136.131 340,-126.974 340,-118.417"/>
<polygon fill="red" stroke="red" points="343.5,-118.413 340,-108.413 336.5,-118.413 343.5,-118.413"/>
</g>
<!-- CountryApp -->
<g id="node126" class="node"><title>CountryApp</title>
<polygon fill="none" stroke="black" points="2364,-108 2266,-108 2266,-72 2364,-72 2364,-108"/>
<text text-anchor="middle" x="2315" y="-86.4" font-family="Times Roman,serif" font-size="14.00">CountryApp</text>
</g>
<!-- CountryApp&#45;&gt;_concrete_ -->
<g id="edge144" class="edge"><title>CountryApp&#45;&gt;_concrete_</title>
<path fill="none" stroke="green" stroke-width="2" d="M2265.83,-73.915C2262.86,-73.2005 2259.9,-72.5531 2257,-72 2131.9,-48.1389 1747.87,-27.6615 1603.57,-20.6143"/>
<polygon fill="green" stroke="green" points="1603.36,-17.0998 1593.2,-20.1107 1603.02,-24.0915 1603.36,-17.0998"/>
</g>
<!-- PrefixApp -->
<g id="node128" class="node"><title>PrefixApp</title>
<polygon fill="none" stroke="black" points="1422,-108 1340,-108 1340,-72 1422,-72 1422,-108"/>
<text text-anchor="middle" x="1381" y="-86.4" font-family="Times Roman,serif" font-size="14.00">PrefixApp</text>
</g>
<!-- PrefixApp&#45;&gt;_concrete_ -->
<g id="edge146" class="edge"><title>PrefixApp&#45;&gt;_concrete_</title>
<path fill="none" stroke="green" stroke-width="2" d="M1422.28,-72.2022C1444.79,-62.4968 1472.86,-50.3961 1496.76,-40.0918"/>
<polygon fill="green" stroke="green" points="1498.24,-43.2663 1506.03,-36.0931 1495.47,-36.8383 1498.24,-43.2663"/>
</g>
<!-- UnitApp&#45;&gt;CurrencyApp -->
<g id="edge150" class="edge"><title>UnitApp&#45;&gt;CurrencyApp</title>
<path fill="none" stroke="green" stroke-width="2" d="M1434.68,-143.831C1444.11,-135.134 1455.54,-124.578 1465.78,-115.127"/>
<polygon fill="green" stroke="green" points="1468.35,-117.517 1473.32,-108.163 1463.6,-112.374 1468.35,-117.517"/>
</g>
<!-- UnitApp&#45;&gt;PrefixApp -->
<g id="edge148" class="edge"><title>UnitApp&#45;&gt;PrefixApp</title>
<path fill="none" stroke="green" stroke-width="2" d="M1406.42,-143.831C1402.66,-135.877 1398.17,-126.369 1394.02,-117.572"/>
<polygon fill="green" stroke="green" points="1397.13,-115.961 1389.7,-108.413 1390.8,-118.95 1397.13,-115.961"/>
</g>
<!-- CountryEst -->
<g id="node133" class="node"><title>CountryEst</title>
<polygon fill="none" stroke="black" points="2476,-108 2382,-108 2382,-72 2476,-72 2476,-108"/>
<text text-anchor="middle" x="2429" y="-86.4" font-family="Times Roman,serif" font-size="14.00">CountryEst</text>
</g>
<!-- CountryEst&#45;&gt;_concrete_ -->
<g id="edge152" class="edge"><title>CountryEst&#45;&gt;_concrete_</title>
<path fill="none" stroke="green" stroke-width="2" d="M2381.86,-73.9474C2378.88,-73.2135 2375.91,-72.554 2373,-72 2224.68,-43.7549 1762.97,-25.4643 1603.13,-19.8424"/>
<polygon fill="green" stroke="green" points="1603.16,-16.3414 1593.04,-19.4905 1602.91,-23.3372 1603.16,-16.3414"/>
</g>
<!-- Currency&#45;&gt;_abstract_ -->
<g id="edge158" class="edge"><title>Currency&#45;&gt;_abstract_</title>
<path fill="none" stroke="red" stroke-width="2" d="M340,-71.8314C340,-64.131 340,-54.9743 340,-46.4166"/>
<polygon fill="red" stroke="red" points="343.5,-46.4132 340,-36.4133 336.5,-46.4133 343.5,-46.4132"/>
</g>
<!-- Country -->
<g id="node143" class="node"><title>Country</title>
<polygon fill="none" stroke="black" points="728,-108 656,-108 656,-72 728,-72 728,-108"/>
<text text-anchor="middle" x="692" y="-86.4" font-family="Times Roman,serif" font-size="14.00">Country</text>
</g>
<!-- Country&#45;&gt;_abstract_ -->
<g id="edge168" class="edge"><title>Country&#45;&gt;_abstract_</title>
<path fill="none" stroke="red" stroke-width="2" d="M655.874,-74.8051C652.897,-73.7813 649.913,-72.8293 647,-72 560.101,-47.2646 455.973,-31.825 394.048,-24.0769"/>
<polygon fill="red" stroke="red" points="394.462,-20.6014 384.109,-22.8541 393.607,-27.549 394.462,-20.6014"/>
</g>
</g>
</svg>
