<?xml version="1.0" encoding="UTF-8" standalone="no"?>
<!DOCTYPE svg PUBLIC "-//W3C//DTD SVG 1.1//EN"
 "http://www.w3.org/Graphics/SVG/1.1/DTD/svg11.dtd">
<!-- Generated by graphviz version 2.26.3 (20100126.1600)
 -->
<!-- Title: G Pages: 1 -->
<svg width="808pt" height="404pt"
 viewBox="0.00 0.00 808.00 404.00" xmlns="http://www.w3.org/2000/svg" xmlns:xlink="http://www.w3.org/1999/xlink">
<g id="graph1" class="graph" transform="scale(1 1) rotate(0) translate(4 400)">
<title>G</title>
<polygon fill="white" stroke="white" points="-4,5 -4,-400 805,-400 805,5 -4,5"/>
<!-- Action -->
<g id="node1" class="node"><title>Action</title>
<polygon fill="none" stroke="black" points="185,-396 125,-396 125,-360 185,-360 185,-396"/>
<text text-anchor="middle" x="155" y="-374.4" font-family="Times Roman,serif" font-size="14.00">Action</text>
</g>
<!-- Direction -->
<g id="node3" class="node"><title>Direction</title>
<polygon fill="none" stroke="black" points="152,-324 72,-324 72,-288 152,-288 152,-324"/>
<text text-anchor="middle" x="112" y="-302.4" font-family="Times Roman,serif" font-size="14.00">Direction</text>
</g>
<!-- Action&#45;&gt;Direction -->
<g id="edge2" class="edge"><title>Action&#45;&gt;Direction</title>
<path fill="none" stroke="red" stroke-width="2" d="M144.149,-359.831C139.298,-351.708 133.478,-341.964 128.132,-333.012"/>
<polygon fill="red" stroke="red" points="131.129,-331.204 122.997,-324.413 125.119,-334.793 131.129,-331.204"/>
</g>
<!-- Calc -->
<g id="node5" class="node"><title>Calc</title>
<polygon fill="none" stroke="black" points="225,-324 171,-324 171,-288 225,-288 225,-324"/>
<text text-anchor="middle" x="198" y="-302.4" font-family="Times Roman,serif" font-size="14.00">Calc</text>
</g>
<!-- Action&#45;&gt;Calc -->
<g id="edge4" class="edge"><title>Action&#45;&gt;Calc</title>
<path fill="none" stroke="red" stroke-width="2" d="M165.851,-359.831C170.702,-351.708 176.522,-341.964 181.868,-333.012"/>
<polygon fill="red" stroke="red" points="184.881,-334.793 187.003,-324.413 178.871,-331.204 184.881,-334.793"/>
</g>
<!-- Address -->
<g id="node21" class="node"><title>Address</title>
<polygon fill="none" stroke="black" points="141,-180 71,-180 71,-144 141,-144 141,-180"/>
<text text-anchor="middle" x="106" y="-158.4" font-family="Times Roman,serif" font-size="14.00">Address</text>
</g>
<!-- Direction&#45;&gt;Address -->
<g id="edge38" class="edge"><title>Direction&#45;&gt;Address</title>
<path fill="none" stroke="red" stroke-width="2" d="M111.24,-287.762C110.217,-263.201 108.385,-219.247 107.181,-190.354"/>
<polygon fill="red" stroke="red" points="110.667,-189.935 106.754,-180.09 103.673,-190.227 110.667,-189.935"/>
</g>
<!-- Exp -->
<g id="node11" class="node"><title>Exp</title>
<polygon fill="none" stroke="black" points="225,-252 171,-252 171,-216 225,-216 225,-252"/>
<text text-anchor="middle" x="198" y="-230.4" font-family="Times Roman,serif" font-size="14.00">Exp</text>
</g>
<!-- Calc&#45;&gt;Exp -->
<g id="edge14" class="edge"><title>Calc&#45;&gt;Exp</title>
<path fill="none" stroke="red" stroke-width="2" d="M198,-287.831C198,-280.131 198,-270.974 198,-262.417"/>
<polygon fill="red" stroke="red" points="201.5,-262.413 198,-252.413 194.5,-262.413 201.5,-262.413"/>
</g>
<!-- Unitconv -->
<g id="node18" class="node"><title>Unitconv</title>
<polygon fill="none" stroke="black" points="321,-252 243,-252 243,-216 321,-216 321,-252"/>
<text text-anchor="middle" x="282" y="-230.4" font-family="Times Roman,serif" font-size="14.00">Unitconv</text>
</g>
<!-- Calc&#45;&gt;Unitconv -->
<g id="edge16" class="edge"><title>Calc&#45;&gt;Unitconv</title>
<path fill="none" stroke="red" stroke-width="2" d="M219.197,-287.831C229.443,-279.048 241.9,-268.371 253.01,-258.849"/>
<polygon fill="red" stroke="red" points="255.495,-261.328 260.81,-252.163 250.94,-256.013 255.495,-261.328"/>
</g>
<!-- Digit -->
<g id="node6" class="node"><title>Digit</title>
<polygon fill="none" stroke="black" points="484,-108 430,-108 430,-72 484,-72 484,-108"/>
<text text-anchor="middle" x="457" y="-86.4" font-family="Times Roman,serif" font-size="14.00">Digit</text>
</g>
<!-- _abstract_ -->
<g id="node8" class="node"><title>_abstract_</title>
<polygon fill="none" stroke="black" points="416,-36 328,-36 328,-1.77636e-14 416,-3.55271e-15 416,-36"/>
<text text-anchor="middle" x="372" y="-14.4" font-family="Times Roman,serif" font-size="14.00">_abstract_</text>
</g>
<!-- Digit&#45;&gt;_abstract_ -->
<g id="edge6" class="edge"><title>Digit&#45;&gt;_abstract_</title>
<path fill="none" stroke="red" stroke-width="2" d="M435.551,-71.8314C425.182,-63.0485 412.577,-52.3712 401.335,-42.8489"/>
<polygon fill="red" stroke="red" points="403.335,-39.9556 393.442,-36.1628 398.81,-45.297 403.335,-39.9556"/>
</g>
<!-- Letter -->
<g id="node9" class="node"><title>Letter</title>
<polygon fill="none" stroke="black" points="560,-108 502,-108 502,-72 560,-72 560,-108"/>
<text text-anchor="middle" x="531" y="-86.4" font-family="Times Roman,serif" font-size="14.00">Letter</text>
</g>
<!-- Letter&#45;&gt;_abstract_ -->
<g id="edge8" class="edge"><title>Letter&#45;&gt;_abstract_</title>
<path fill="none" stroke="red" stroke-width="2" d="M501.986,-76.1736C498.956,-74.7546 495.918,-73.3421 493,-72 469.879,-61.3664 444.145,-49.8389 422.373,-40.1758"/>
<polygon fill="red" stroke="red" points="423.55,-36.8692 412.99,-36.0174 420.714,-43.2689 423.55,-36.8692"/>
</g>
<!-- Fraction -->
<g id="node13" class="node"><title>Fraction</title>
<polygon fill="none" stroke="black" points="235,-180 163,-180 163,-144 235,-144 235,-180"/>
<text text-anchor="middle" x="199" y="-158.4" font-family="Times Roman,serif" font-size="14.00">Fraction</text>
</g>
<!-- Exp&#45;&gt;Fraction -->
<g id="edge10" class="edge"><title>Exp&#45;&gt;Fraction</title>
<path fill="none" stroke="red" stroke-width="2" d="M198.252,-215.831C198.359,-208.131 198.486,-198.974 198.605,-190.417"/>
<polygon fill="red" stroke="red" points="202.105,-190.461 198.744,-180.413 195.106,-190.364 202.105,-190.461"/>
</g>
<!-- Numerals -->
<g id="node19" class="node"><title>Numerals</title>
<polygon fill="none" stroke="black" points="240,-108 158,-108 158,-72 240,-72 240,-108"/>
<text text-anchor="middle" x="199" y="-86.4" font-family="Times Roman,serif" font-size="14.00">Numerals</text>
</g>
<!-- Fraction&#45;&gt;Numerals -->
<g id="edge32" class="edge"><title>Fraction&#45;&gt;Numerals</title>
<path fill="none" stroke="red" stroke-width="2" d="M199,-143.831C199,-136.131 199,-126.974 199,-118.417"/>
<polygon fill="red" stroke="red" points="202.5,-118.413 199,-108.413 195.5,-118.413 202.5,-118.413"/>
</g>
<!-- Go -->
<g id="node14" class="node"><title>Go</title>
<polygon fill="none" stroke="black" points="632,-108 578,-108 578,-72 632,-72 632,-108"/>
<text text-anchor="middle" x="605" y="-86.4" font-family="Times Roman,serif" font-size="14.00">Go</text>
</g>
<!-- Go&#45;&gt;_abstract_ -->
<g id="edge12" class="edge"><title>Go&#45;&gt;_abstract_</title>
<path fill="none" stroke="red" stroke-width="2" d="M577.732,-75.6739C574.819,-74.3523 571.871,-73.0992 569,-72 521.828,-53.9425 466.166,-39.2628 426.063,-29.792"/>
<polygon fill="red" stroke="red" points="426.75,-26.3585 416.217,-27.4974 425.161,-33.1758 426.75,-26.3585"/>
</g>
<!-- Unitconv&#45;&gt;Fraction -->
<g id="edge44" class="edge"><title>Unitconv&#45;&gt;Fraction</title>
<path fill="none" stroke="red" stroke-width="2" d="M261.056,-215.831C250.931,-207.048 238.622,-196.371 227.645,-186.849"/>
<polygon fill="red" stroke="red" points="229.785,-184.072 219.938,-180.163 225.198,-189.359 229.785,-184.072"/>
</g>
<!-- Unit -->
<g id="node41" class="node"><title>Unit</title>
<polygon fill="none" stroke="black" points="313,-180 259,-180 259,-144 313,-144 313,-180"/>
<text text-anchor="middle" x="286" y="-158.4" font-family="Times Roman,serif" font-size="14.00">Unit</text>
</g>
<!-- Unitconv&#45;&gt;Unit -->
<g id="edge46" class="edge"><title>Unitconv&#45;&gt;Unit</title>
<path fill="none" stroke="red" stroke-width="2" d="M283.009,-215.831C283.437,-208.131 283.946,-198.974 284.421,-190.417"/>
<polygon fill="red" stroke="red" points="287.917,-190.592 284.977,-180.413 280.928,-190.204 287.917,-190.592"/>
</g>
<!-- Numerals&#45;&gt;_abstract_ -->
<g id="edge40" class="edge"><title>Numerals&#45;&gt;_abstract_</title>
<path fill="none" stroke="red" stroke-width="2" d="M236.703,-71.8314C260.652,-61.4426 291.934,-48.4035 318.422,-37.7602"/>
<polygon fill="red" stroke="red" points="319.954,-40.9173 327.942,-33.9568 317.357,-34.4169 319.954,-40.9173"/>
</g>
<!-- Numerals&#45;&gt;_abstract_ -->
<g id="edge18" class="edge"><title>Numerals&#45;&gt;_abstract_</title>
<path fill="none" stroke="red" stroke-width="2" d="M240.438,-75.0816C265.939,-64.9932 298.604,-51.4946 325.047,-40.157"/>
<polygon fill="red" stroke="red" points="326.686,-43.2617 334.483,-36.088 323.914,-36.8339 326.686,-43.2617"/>
</g>
<!-- Address&#45;&gt;Numerals -->
<g id="edge24" class="edge"><title>Address&#45;&gt;Numerals</title>
<path fill="none" stroke="red" stroke-width="2" d="M129.468,-143.831C141.033,-134.878 155.14,-123.956 167.618,-114.295"/>
<polygon fill="red" stroke="red" points="169.775,-117.052 175.54,-108.163 165.49,-111.517 169.775,-117.052"/>
</g>
<!-- Town -->
<g id="node23" class="node"><title>Town</title>
<polygon fill="none" stroke="black" points="54,-108 2.13163e-14,-108 0,-72 54,-72 54,-108"/>
<text text-anchor="middle" x="27" y="-86.4" font-family="Times Roman,serif" font-size="14.00">Town</text>
</g>
<!-- Address&#45;&gt;Town -->
<g id="edge20" class="edge"><title>Address&#45;&gt;Town</title>
<path fill="none" stroke="red" stroke-width="2" d="M86.065,-143.831C76.5217,-135.134 64.9401,-124.578 54.5694,-115.127"/>
<polygon fill="red" stroke="red" points="56.6772,-112.312 46.9287,-108.163 51.962,-117.486 56.6772,-112.312"/>
</g>
<!-- StreetF -->
<g id="node25" class="node"><title>StreetF</title>
<polygon fill="none" stroke="black" points="140,-108 72,-108 72,-72 140,-72 140,-108"/>
<text text-anchor="middle" x="106" y="-86.4" font-family="Times Roman,serif" font-size="14.00">StreetF</text>
</g>
<!-- Address&#45;&gt;StreetF -->
<g id="edge22" class="edge"><title>Address&#45;&gt;StreetF</title>
<path fill="none" stroke="red" stroke-width="2" d="M106,-143.831C106,-136.131 106,-126.974 106,-118.417"/>
<polygon fill="red" stroke="red" points="109.5,-118.413 106,-108.413 102.5,-118.413 109.5,-118.413"/>
</g>
<!-- Town&#45;&gt;_abstract_ -->
<g id="edge30" class="edge"><title>Town&#45;&gt;_abstract_</title>
<path fill="none" stroke="red" stroke-width="2" d="M54.1674,-75.3922C57.1001,-74.1255 60.0799,-72.9623 63,-72 149.599,-43.4625 255.096,-29.1551 317.729,-22.671"/>
<polygon fill="red" stroke="red" points="318.181,-26.1433 327.78,-21.6597 317.48,-19.1784 318.181,-26.1433"/>
</g>
<!-- StreetF&#45;&gt;_abstract_ -->
<g id="edge28" class="edge"><title>StreetF&#45;&gt;_abstract_</title>
<path fill="none" stroke="red" stroke-width="2" d="M140.082,-75.1576C143.076,-74.0293 146.078,-72.9587 149,-72 205.653,-53.4137 272.292,-38.1014 317.872,-28.5884"/>
<polygon fill="red" stroke="red" points="318.753,-31.9804 327.839,-26.5306 317.338,-25.1249 318.753,-31.9804"/>
</g>
<!-- Street -->
<g id="node27" class="node"><title>Street</title>
<polygon fill="none" stroke="black" points="710,-108 650,-108 650,-72 710,-72 710,-108"/>
<text text-anchor="middle" x="680" y="-86.4" font-family="Times Roman,serif" font-size="14.00">Street</text>
</g>
<!-- Street&#45;&gt;_abstract_ -->
<g id="edge26" class="edge"><title>Street&#45;&gt;_abstract_</title>
<path fill="none" stroke="red" stroke-width="2" d="M649.616,-75.1563C646.738,-74.0002 643.836,-72.9249 641,-72 568.463,-48.3431 481.387,-33.1496 426.363,-25.09"/>
<polygon fill="red" stroke="red" points="426.533,-21.5785 416.136,-23.6202 425.537,-28.5073 426.533,-21.5785"/>
</g>
<!-- Estvrp -->
<g id="node32" class="node"><title>Estvrp</title>
<polygon fill="none" stroke="black" points="524,-180 464,-180 464,-144 524,-144 524,-180"/>
<text text-anchor="middle" x="494" y="-158.4" font-family="Times Roman,serif" font-size="14.00">Estvrp</text>
</g>
<!-- Estvrp&#45;&gt;Digit -->
<g id="edge34" class="edge"><title>Estvrp&#45;&gt;Digit</title>
<path fill="none" stroke="red" stroke-width="2" d="M484.663,-143.831C480.576,-135.877 475.69,-126.369 471.169,-117.572"/>
<polygon fill="red" stroke="red" points="474.146,-115.708 466.462,-108.413 467.92,-118.907 474.146,-115.708"/>
</g>
<!-- Estvrp&#45;&gt;Letter -->
<g id="edge36" class="edge"><title>Estvrp&#45;&gt;Letter</title>
<path fill="none" stroke="red" stroke-width="2" d="M503.337,-143.831C507.424,-135.877 512.31,-126.369 516.831,-117.572"/>
<polygon fill="red" stroke="red" points="520.08,-118.907 521.538,-108.413 513.854,-115.708 520.08,-118.907"/>
</g>
<!-- Prefix -->
<g id="node37" class="node"><title>Prefix</title>
<polygon fill="none" stroke="black" points="314,-108 258,-108 258,-72 314,-72 314,-108"/>
<text text-anchor="middle" x="286" y="-86.4" font-family="Times Roman,serif" font-size="14.00">Prefix</text>
</g>
<!-- Prefix&#45;&gt;_abstract_ -->
<g id="edge42" class="edge"><title>Prefix&#45;&gt;_abstract_</title>
<path fill="none" stroke="red" stroke-width="2" d="M307.701,-71.8314C318.192,-63.0485 330.946,-52.3712 342.319,-42.8489"/>
<polygon fill="red" stroke="red" points="344.885,-45.2659 350.306,-36.1628 340.391,-39.8986 344.885,-45.2659"/>
</g>
<!-- Unit&#45;&gt;Prefix -->
<g id="edge50" class="edge"><title>Unit&#45;&gt;Prefix</title>
<path fill="none" stroke="red" stroke-width="2" d="M286,-143.831C286,-136.131 286,-126.974 286,-118.417"/>
<polygon fill="red" stroke="red" points="289.5,-118.413 286,-108.413 282.5,-118.413 289.5,-118.413"/>
</g>
<!-- Currency -->
<g id="node42" class="node"><title>Currency</title>
<polygon fill="none" stroke="black" points="412,-108 332,-108 332,-72 412,-72 412,-108"/>
<text text-anchor="middle" x="372" y="-86.4" font-family="Times Roman,serif" font-size="14.00">Currency</text>
</g>
<!-- Unit&#45;&gt;Currency -->
<g id="edge52" class="edge"><title>Unit&#45;&gt;Currency</title>
<path fill="none" stroke="red" stroke-width="2" d="M307.701,-143.831C318.192,-135.048 330.946,-124.371 342.319,-114.849"/>
<polygon fill="red" stroke="red" points="344.885,-117.266 350.306,-108.163 340.391,-111.899 344.885,-117.266"/>
</g>
<!-- Currency&#45;&gt;_abstract_ -->
<g id="edge48" class="edge"><title>Currency&#45;&gt;_abstract_</title>
<path fill="none" stroke="red" stroke-width="2" d="M372,-71.8314C372,-64.131 372,-54.9743 372,-46.4166"/>
<polygon fill="red" stroke="red" points="375.5,-46.4132 372,-36.4133 368.5,-46.4133 375.5,-46.4132"/>
</g>
<!-- Country -->
<g id="node46" class="node"><title>Country</title>
<polygon fill="none" stroke="black" points="800,-108 728,-108 728,-72 800,-72 800,-108"/>
<text text-anchor="middle" x="764" y="-86.4" font-family="Times Roman,serif" font-size="14.00">Country</text>
</g>
<!-- Country&#45;&gt;_abstract_ -->
<g id="edge54" class="edge"><title>Country&#45;&gt;_abstract_</title>
<path fill="none" stroke="red" stroke-width="2" d="M727.892,-74.7413C724.911,-73.7318 721.921,-72.8005 719,-72 617.628,-44.2231 495.421,-29.3683 426.415,-22.6284"/>
<polygon fill="red" stroke="red" points="426.506,-19.1212 416.218,-21.6539 425.84,-26.0895 426.506,-19.1212"/>
</g>
</g>
</svg>
