<?xml version="1.0" encoding="UTF-8" standalone="no"?>
<!DOCTYPE svg PUBLIC "-//W3C//DTD SVG 1.1//EN"
 "http://www.w3.org/Graphics/SVG/1.1/DTD/svg11.dtd">
<!-- Generated by graphviz version 2.26.3 (20100126.1600)
 -->
<!-- Title: G Pages: 1 -->
<svg width="1034pt" height="404pt"
 viewBox="0.00 0.00 1034.00 404.00" xmlns="http://www.w3.org/2000/svg" xmlns:xlink="http://www.w3.org/1999/xlink">
<g id="graph1" class="graph" transform="scale(1 1) rotate(0) translate(4 400)">
<title>G</title>
<polygon fill="white" stroke="white" points="-4,5 -4,-400 1031,-400 1031,5 -4,5"/>
<!-- Action -->
<g id="node1" class="node"><title>Action</title>
<polygon fill="none" stroke="black" points="572,-396 512,-396 512,-360 572,-360 572,-396"/>
<text text-anchor="middle" x="542" y="-374.4" font-family="Times Roman,serif" font-size="14.00">Action</text>
</g>
<!-- Direction -->
<g id="node3" class="node"><title>Direction</title>
<polygon fill="none" stroke="black" points="540,-324 460,-324 460,-288 540,-288 540,-324"/>
<text text-anchor="middle" x="500" y="-302.4" font-family="Times Roman,serif" font-size="14.00">Direction</text>
</g>
<!-- Action&#45;&gt;Direction -->
<g id="edge2" class="edge"><title>Action&#45;&gt;Direction</title>
<path fill="none" stroke="red" stroke-width="2" d="M531.402,-359.831C526.712,-351.792 521.097,-342.167 515.92,-333.292"/>
<polygon fill="red" stroke="red" points="518.803,-331.288 510.741,-324.413 512.757,-334.815 518.803,-331.288"/>
</g>
<!-- Calc -->
<g id="node5" class="node"><title>Calc</title>
<polygon fill="none" stroke="black" points="612,-324 558,-324 558,-288 612,-288 612,-324"/>
<text text-anchor="middle" x="585" y="-302.4" font-family="Times Roman,serif" font-size="14.00">Calc</text>
</g>
<!-- Action&#45;&gt;Calc -->
<g id="edge4" class="edge"><title>Action&#45;&gt;Calc</title>
<path fill="none" stroke="red" stroke-width="2" d="M552.851,-359.831C557.702,-351.708 563.522,-341.964 568.868,-333.012"/>
<polygon fill="red" stroke="red" points="571.881,-334.793 574.003,-324.413 565.871,-331.204 571.881,-334.793"/>
</g>
<!-- Address -->
<g id="node26" class="node"><title>Address</title>
<polygon fill="none" stroke="black" points="535,-180 465,-180 465,-144 535,-144 535,-180"/>
<text text-anchor="middle" x="500" y="-158.4" font-family="Times Roman,serif" font-size="14.00">Address</text>
</g>
<!-- Direction&#45;&gt;Address -->
<g id="edge54" class="edge"><title>Direction&#45;&gt;Address</title>
<path fill="none" stroke="red" stroke-width="2" d="M500,-287.762C500,-263.201 500,-219.247 500,-190.354"/>
<polygon fill="red" stroke="red" points="503.5,-190.09 500,-180.09 496.5,-190.09 503.5,-190.09"/>
</g>
<!-- Exp -->
<g id="node18" class="node"><title>Exp</title>
<polygon fill="none" stroke="black" points="680,-252 626,-252 626,-216 680,-216 680,-252"/>
<text text-anchor="middle" x="653" y="-230.4" font-family="Times Roman,serif" font-size="14.00">Exp</text>
</g>
<!-- Calc&#45;&gt;Exp -->
<g id="edge22" class="edge"><title>Calc&#45;&gt;Exp</title>
<path fill="none" stroke="red" stroke-width="2" d="M602.159,-287.831C610.151,-279.369 619.804,-269.149 628.542,-259.897"/>
<polygon fill="red" stroke="red" points="631.288,-262.087 635.61,-252.413 626.199,-257.28 631.288,-262.087"/>
</g>
<!-- Unitconv -->
<g id="node25" class="node"><title>Unitconv</title>
<polygon fill="none" stroke="black" points="608,-252 530,-252 530,-216 608,-216 608,-252"/>
<text text-anchor="middle" x="569" y="-230.4" font-family="Times Roman,serif" font-size="14.00">Unitconv</text>
</g>
<!-- Calc&#45;&gt;Unitconv -->
<g id="edge24" class="edge"><title>Calc&#45;&gt;Unitconv</title>
<path fill="none" stroke="red" stroke-width="2" d="M580.963,-287.831C579.251,-280.131 577.217,-270.974 575.315,-262.417"/>
<polygon fill="red" stroke="red" points="578.678,-261.416 573.092,-252.413 571.845,-262.934 578.678,-261.416"/>
</g>
<!-- Symbols -->
<g id="node6" class="node"><title>Symbols</title>
<polygon fill="none" stroke="black" points="152,-180 78,-180 78,-144 152,-144 152,-180"/>
<text text-anchor="middle" x="115" y="-158.4" font-family="Times Roman,serif" font-size="14.00">Symbols</text>
</g>
<!-- Digit -->
<g id="node8" class="node"><title>Digit</title>
<polygon fill="none" stroke="black" points="136,-108 82,-108 82,-72 136,-72 136,-108"/>
<text text-anchor="middle" x="109" y="-86.4" font-family="Times Roman,serif" font-size="14.00">Digit</text>
</g>
<!-- Symbols&#45;&gt;Digit -->
<g id="edge6" class="edge"><title>Symbols&#45;&gt;Digit</title>
<path fill="none" stroke="red" stroke-width="2" d="M113.486,-143.831C112.844,-136.131 112.081,-126.974 111.368,-118.417"/>
<polygon fill="red" stroke="red" points="114.853,-118.088 110.534,-108.413 107.877,-118.669 114.853,-118.088"/>
</g>
<!-- Letter -->
<g id="node10" class="node"><title>Letter</title>
<polygon fill="none" stroke="black" points="64,-108 6,-108 6,-72 64,-72 64,-108"/>
<text text-anchor="middle" x="35" y="-86.4" font-family="Times Roman,serif" font-size="14.00">Letter</text>
</g>
<!-- Symbols&#45;&gt;Letter -->
<g id="edge8" class="edge"><title>Symbols&#45;&gt;Letter</title>
<path fill="none" stroke="red" stroke-width="2" d="M94.8126,-143.831C85.1486,-135.134 73.4204,-124.578 62.9184,-115.127"/>
<polygon fill="red" stroke="red" points="64.9553,-112.251 55.1809,-108.163 60.2725,-117.454 64.9553,-112.251"/>
</g>
<!-- _abstract_ -->
<g id="node12" class="node"><title>_abstract_</title>
<polygon fill="none" stroke="black" points="505,-36 417,-36 417,-1.77636e-14 505,-3.55271e-15 505,-36"/>
<text text-anchor="middle" x="461" y="-14.4" font-family="Times Roman,serif" font-size="14.00">_abstract_</text>
</g>
<!-- Digit&#45;&gt;_abstract_ -->
<g id="edge10" class="edge"><title>Digit&#45;&gt;_abstract_</title>
<path fill="none" stroke="red" stroke-width="2" d="M136.164,-75.3809C139.097,-74.1164 142.078,-72.9568 145,-72 234.059,-42.8373 342.667,-28.6762 406.581,-22.3987"/>
<polygon fill="red" stroke="red" points="407.206,-25.8551 416.829,-21.4223 406.542,-18.8866 407.206,-25.8551"/>
</g>
<!-- Letter&#45;&gt;_abstract_ -->
<g id="edge16" class="edge"><title>Letter&#45;&gt;_abstract_</title>
<path fill="none" stroke="red" stroke-width="2" d="M64.1087,-75.1345C67.0658,-73.9519 70.0623,-72.8777 73,-72 188.605,-37.4604 330.315,-24.8593 406.432,-20.3775"/>
<polygon fill="red" stroke="red" points="406.94,-23.8545 416.727,-19.7975 406.546,-16.8656 406.94,-23.8545"/>
</g>
<!-- Numeral -->
<g id="node13" class="node"><title>Numeral</title>
<polygon fill="none" stroke="black" points="702,-108 628,-108 628,-72 702,-72 702,-108"/>
<text text-anchor="middle" x="665" y="-86.4" font-family="Times Roman,serif" font-size="14.00">Numeral</text>
</g>
<!-- Numeral&#45;&gt;_abstract_ -->
<g id="edge12" class="edge"><title>Numeral&#45;&gt;_abstract_</title>
<path fill="none" stroke="red" stroke-width="2" d="M627.896,-75.3206C624.892,-74.1812 621.899,-73.062 619,-72 584.491,-59.3581 545.412,-45.9938 514.753,-35.7231"/>
<polygon fill="red" stroke="red" points="515.704,-32.351 505.111,-32.502 513.486,-38.9903 515.704,-32.351"/>
</g>
<!-- Eeppl -->
<g id="node15" class="node"><title>Eeppl</title>
<polygon fill="none" stroke="black" points="452,-108 398,-108 398,-72 452,-72 452,-108"/>
<text text-anchor="middle" x="425" y="-86.4" font-family="Times Roman,serif" font-size="14.00">Eeppl</text>
</g>
<!-- Eeppl&#45;&gt;_abstract_ -->
<g id="edge14" class="edge"><title>Eeppl&#45;&gt;_abstract_</title>
<path fill="none" stroke="red" stroke-width="2" d="M434.084,-71.8314C438.061,-63.8771 442.815,-54.369 447.214,-45.5723"/>
<polygon fill="red" stroke="red" points="450.452,-46.9228 451.793,-36.4133 444.191,-43.7923 450.452,-46.9228"/>
</g>
<!-- Fraction -->
<g id="node20" class="node"><title>Fraction</title>
<polygon fill="none" stroke="black" points="689,-180 617,-180 617,-144 689,-144 689,-180"/>
<text text-anchor="middle" x="653" y="-158.4" font-family="Times Roman,serif" font-size="14.00">Fraction</text>
</g>
<!-- Exp&#45;&gt;Fraction -->
<g id="edge18" class="edge"><title>Exp&#45;&gt;Fraction</title>
<path fill="none" stroke="red" stroke-width="2" d="M653,-215.831C653,-208.131 653,-198.974 653,-190.417"/>
<polygon fill="red" stroke="red" points="656.5,-190.413 653,-180.413 649.5,-190.413 656.5,-190.413"/>
</g>
<!-- Fraction&#45;&gt;Numeral -->
<g id="edge38" class="edge"><title>Fraction&#45;&gt;Numeral</title>
<path fill="none" stroke="red" stroke-width="2" d="M656.028,-143.831C657.312,-136.131 658.838,-126.974 660.264,-118.417"/>
<polygon fill="red" stroke="red" points="663.739,-118.853 661.931,-108.413 656.835,-117.702 663.739,-118.853"/>
</g>
<!-- Go -->
<g id="node21" class="node"><title>Go</title>
<polygon fill="none" stroke="black" points="380,-108 326,-108 326,-72 380,-72 380,-108"/>
<text text-anchor="middle" x="353" y="-86.4" font-family="Times Roman,serif" font-size="14.00">Go</text>
</g>
<!-- Go&#45;&gt;_abstract_ -->
<g id="edge20" class="edge"><title>Go&#45;&gt;_abstract_</title>
<path fill="none" stroke="red" stroke-width="2" d="M380.253,-71.8314C393.939,-62.7074 410.691,-51.539 425.383,-41.7449"/>
<polygon fill="red" stroke="red" points="427.377,-44.6221 433.756,-36.1628 423.494,-38.7977 427.377,-44.6221"/>
</g>
<!-- Unitconv&#45;&gt;Fraction -->
<g id="edge58" class="edge"><title>Unitconv&#45;&gt;Fraction</title>
<path fill="none" stroke="red" stroke-width="2" d="M590.197,-215.831C600.443,-207.048 612.9,-196.371 624.01,-186.849"/>
<polygon fill="red" stroke="red" points="626.495,-189.328 631.81,-180.163 621.94,-184.013 626.495,-189.328"/>
</g>
<!-- Unit -->
<g id="node52" class="node"><title>Unit</title>
<polygon fill="none" stroke="black" points="295,-180 241,-180 241,-144 295,-144 295,-180"/>
<text text-anchor="middle" x="268" y="-158.4" font-family="Times Roman,serif" font-size="14.00">Unit</text>
</g>
<!-- Unitconv&#45;&gt;Unit -->
<g id="edge60" class="edge"><title>Unitconv&#45;&gt;Unit</title>
<path fill="none" stroke="red" stroke-width="2" d="M529.958,-224.661C471.706,-210.727 362.771,-184.669 305.455,-170.959"/>
<polygon fill="red" stroke="red" points="305.917,-167.471 295.378,-168.549 304.289,-174.279 305.917,-167.471"/>
</g>
<!-- Address&#45;&gt;Numeral -->
<g id="edge32" class="edge"><title>Address&#45;&gt;Numeral</title>
<path fill="none" stroke="red" stroke-width="2" d="M535.397,-146.554C559.685,-135.956 592.165,-121.782 618.534,-110.276"/>
<polygon fill="red" stroke="red" points="620.18,-113.377 627.945,-106.169 617.38,-106.961 620.18,-113.377"/>
</g>
<!-- Address&#45;&gt;Eeppl -->
<g id="edge26" class="edge"><title>Address&#45;&gt;Eeppl</title>
<path fill="none" stroke="red" stroke-width="2" d="M481.074,-143.831C472.014,-135.134 461.019,-124.578 451.173,-115.127"/>
<polygon fill="red" stroke="red" points="453.557,-112.563 443.92,-108.163 448.71,-117.613 453.557,-112.563"/>
</g>
<!-- Town -->
<g id="node29" class="node"><title>Town</title>
<polygon fill="none" stroke="black" points="524,-108 470,-108 470,-72 524,-72 524,-108"/>
<text text-anchor="middle" x="497" y="-86.4" font-family="Times Roman,serif" font-size="14.00">Town</text>
</g>
<!-- Address&#45;&gt;Town -->
<g id="edge28" class="edge"><title>Address&#45;&gt;Town</title>
<path fill="none" stroke="red" stroke-width="2" d="M499.243,-143.831C498.922,-136.131 498.541,-126.974 498.184,-118.417"/>
<polygon fill="red" stroke="red" points="501.681,-118.259 497.767,-108.413 494.687,-118.55 501.681,-118.259"/>
</g>
<!-- StreetF -->
<g id="node31" class="node"><title>StreetF</title>
<polygon fill="none" stroke="black" points="610,-108 542,-108 542,-72 610,-72 610,-108"/>
<text text-anchor="middle" x="576" y="-86.4" font-family="Times Roman,serif" font-size="14.00">StreetF</text>
</g>
<!-- Address&#45;&gt;StreetF -->
<g id="edge30" class="edge"><title>Address&#45;&gt;StreetF</title>
<path fill="none" stroke="red" stroke-width="2" d="M519.178,-143.831C528.359,-135.134 539.501,-124.578 549.478,-115.127"/>
<polygon fill="red" stroke="red" points="551.976,-117.581 556.828,-108.163 547.161,-112.499 551.976,-117.581"/>
</g>
<!-- Town&#45;&gt;_abstract_ -->
<g id="edge36" class="edge"><title>Town&#45;&gt;_abstract_</title>
<path fill="none" stroke="red" stroke-width="2" d="M487.916,-71.8314C483.939,-63.8771 479.185,-54.369 474.786,-45.5723"/>
<polygon fill="red" stroke="red" points="477.809,-43.7923 470.207,-36.4133 471.548,-46.9228 477.809,-43.7923"/>
</g>
<!-- StreetF&#45;&gt;_abstract_ -->
<g id="edge34" class="edge"><title>StreetF&#45;&gt;_abstract_</title>
<path fill="none" stroke="red" stroke-width="2" d="M546.981,-71.8314C532.271,-62.6221 514.236,-51.3301 498.488,-41.4706"/>
<polygon fill="red" stroke="red" points="500.343,-38.5029 490.01,-36.1628 496.629,-44.436 500.343,-38.5029"/>
</g>
<!-- Estvrp -->
<g id="node36" class="node"><title>Estvrp</title>
<polygon fill="none" stroke="black" points="60,-180 2.84217e-14,-180 3.55271e-15,-144 60,-144 60,-180"/>
<text text-anchor="middle" x="30" y="-158.4" font-family="Times Roman,serif" font-size="14.00">Estvrp</text>
</g>
<!-- Estvrp&#45;&gt;Digit -->
<g id="edge40" class="edge"><title>Estvrp&#45;&gt;Digit</title>
<path fill="none" stroke="red" stroke-width="2" d="M49.935,-143.831C59.4783,-135.134 71.0599,-124.578 81.4306,-115.127"/>
<polygon fill="red" stroke="red" points="84.038,-117.486 89.0713,-108.163 79.3228,-112.312 84.038,-117.486"/>
</g>
<!-- Estvrp&#45;&gt;Letter -->
<g id="edge42" class="edge"><title>Estvrp&#45;&gt;Letter</title>
<path fill="none" stroke="red" stroke-width="2" d="M31.2617,-143.831C31.7965,-136.131 32.4323,-126.974 33.0266,-118.417"/>
<polygon fill="red" stroke="red" points="36.52,-118.632 33.7213,-108.413 29.5368,-118.147 36.52,-118.632"/>
</g>
<!-- Tallinnaddress -->
<g id="node39" class="node"><title>Tallinnaddress</title>
<polygon fill="none" stroke="black" points="824,-180 712,-180 712,-144 824,-144 824,-180"/>
<text text-anchor="middle" x="768" y="-158.4" font-family="Times Roman,serif" font-size="14.00">Tallinnaddress</text>
</g>
<!-- Tallinnaddress&#45;&gt;Numeral -->
<g id="edge48" class="edge"><title>Tallinnaddress&#45;&gt;Numeral</title>
<path fill="none" stroke="red" stroke-width="2" d="M742.009,-143.831C729.078,-134.793 713.278,-123.748 699.362,-114.02"/>
<polygon fill="red" stroke="red" points="701.184,-111.024 690.983,-108.163 697.174,-116.761 701.184,-111.024"/>
</g>
<!-- Tallinnplace -->
<g id="node41" class="node"><title>Tallinnplace</title>
<polygon fill="none" stroke="black" points="816,-108 720,-108 720,-72 816,-72 816,-108"/>
<text text-anchor="middle" x="768" y="-86.4" font-family="Times Roman,serif" font-size="14.00">Tallinnplace</text>
</g>
<!-- Tallinnaddress&#45;&gt;Tallinnplace -->
<g id="edge44" class="edge"><title>Tallinnaddress&#45;&gt;Tallinnplace</title>
<path fill="none" stroke="red" stroke-width="2" d="M768,-143.831C768,-136.131 768,-126.974 768,-118.417"/>
<polygon fill="red" stroke="red" points="771.5,-118.413 768,-108.413 764.5,-118.413 771.5,-118.413"/>
</g>
<!-- Tallinnstreet -->
<g id="node43" class="node"><title>Tallinnstreet</title>
<polygon fill="none" stroke="black" points="936,-108 834,-108 834,-72 936,-72 936,-108"/>
<text text-anchor="middle" x="885" y="-86.4" font-family="Times Roman,serif" font-size="14.00">Tallinnstreet</text>
</g>
<!-- Tallinnaddress&#45;&gt;Tallinnstreet -->
<g id="edge46" class="edge"><title>Tallinnaddress&#45;&gt;Tallinnstreet</title>
<path fill="none" stroke="red" stroke-width="2" d="M797.524,-143.831C812.489,-134.622 830.839,-123.33 846.86,-113.471"/>
<polygon fill="red" stroke="red" points="848.803,-116.385 855.485,-108.163 845.134,-110.423 848.803,-116.385"/>
</g>
<!-- Tallinnplace&#45;&gt;_abstract_ -->
<g id="edge52" class="edge"><title>Tallinnplace&#45;&gt;_abstract_</title>
<path fill="none" stroke="red" stroke-width="2" d="M719.89,-74.4608C716.89,-73.5995 713.909,-72.7717 711,-72 644.145,-54.2649 566.09,-38.1196 515.216,-28.1956"/>
<polygon fill="red" stroke="red" points="515.584,-24.7019 505.101,-26.2346 514.252,-31.574 515.584,-24.7019"/>
</g>
<!-- Tallinnstreet&#45;&gt;_abstract_ -->
<g id="edge50" class="edge"><title>Tallinnstreet&#45;&gt;_abstract_</title>
<path fill="none" stroke="red" stroke-width="2" d="M833.741,-74.0924C830.795,-73.3434 827.866,-72.639 825,-72 716.239,-47.7512 586.708,-31.4778 515.199,-23.5686"/>
<polygon fill="red" stroke="red" points="515.4,-20.0698 505.078,-22.4624 514.639,-27.0284 515.4,-20.0698"/>
</g>
<!-- Prefix -->
<g id="node48" class="node"><title>Prefix</title>
<polygon fill="none" stroke="black" points="210,-108 154,-108 154,-72 210,-72 210,-108"/>
<text text-anchor="middle" x="182" y="-86.4" font-family="Times Roman,serif" font-size="14.00">Prefix</text>
</g>
<!-- Prefix&#45;&gt;_abstract_ -->
<g id="edge56" class="edge"><title>Prefix&#45;&gt;_abstract_</title>
<path fill="none" stroke="red" stroke-width="2" d="M210.401,-75.3692C213.269,-74.1391 216.168,-72.9897 219,-72 281.921,-50.0141 357.255,-34.8697 406.97,-26.3336"/>
<polygon fill="red" stroke="red" points="407.59,-29.7786 416.868,-24.6634 406.425,-22.8762 407.59,-29.7786"/>
</g>
<!-- Unit&#45;&gt;Prefix -->
<g id="edge64" class="edge"><title>Unit&#45;&gt;Prefix</title>
<path fill="none" stroke="red" stroke-width="2" d="M246.299,-143.831C235.808,-135.048 223.054,-124.371 211.681,-114.849"/>
<polygon fill="red" stroke="red" points="213.609,-111.899 203.694,-108.163 209.115,-117.266 213.609,-111.899"/>
</g>
<!-- Currency -->
<g id="node53" class="node"><title>Currency</title>
<polygon fill="none" stroke="black" points="308,-108 228,-108 228,-72 308,-72 308,-108"/>
<text text-anchor="middle" x="268" y="-86.4" font-family="Times Roman,serif" font-size="14.00">Currency</text>
</g>
<!-- Unit&#45;&gt;Currency -->
<g id="edge66" class="edge"><title>Unit&#45;&gt;Currency</title>
<path fill="none" stroke="red" stroke-width="2" d="M268,-143.831C268,-136.131 268,-126.974 268,-118.417"/>
<polygon fill="red" stroke="red" points="271.5,-118.413 268,-108.413 264.5,-118.413 271.5,-118.413"/>
</g>
<!-- Currency&#45;&gt;_abstract_ -->
<g id="edge62" class="edge"><title>Currency&#45;&gt;_abstract_</title>
<path fill="none" stroke="red" stroke-width="2" d="M308.459,-74.9064C337.209,-64.1813 376.113,-49.6675 407.437,-37.9821"/>
<polygon fill="red" stroke="red" points="408.749,-41.2283 416.895,-34.4537 406.302,-34.6698 408.749,-41.2283"/>
</g>
<!-- Country -->
<g id="node57" class="node"><title>Country</title>
<polygon fill="none" stroke="black" points="1026,-108 954,-108 954,-72 1026,-72 1026,-108"/>
<text text-anchor="middle" x="990" y="-86.4" font-family="Times Roman,serif" font-size="14.00">Country</text>
</g>
<!-- Country&#45;&gt;_abstract_ -->
<g id="edge68" class="edge"><title>Country&#45;&gt;_abstract_</title>
<path fill="none" stroke="red" stroke-width="2" d="M953.929,-74.6009C950.94,-73.6229 947.938,-72.7371 945,-72 792.204,-33.6662 605.442,-22.5276 515.094,-19.3041"/>
<polygon fill="red" stroke="red" points="515.197,-15.8057 505.085,-18.9656 514.961,-22.8017 515.197,-15.8057"/>
</g>
<!-- Tallinndirection -->
<g id="node59" class="node"><title>Tallinndirection</title>
<polygon fill="none" stroke="black" points="828,-252 708,-252 708,-216 828,-216 828,-252"/>
<text text-anchor="middle" x="768" y="-230.4" font-family="Times Roman,serif" font-size="14.00">Tallinndirection</text>
</g>
<!-- Tallinndirection&#45;&gt;Tallinnaddress -->
<g id="edge70" class="edge"><title>Tallinndirection&#45;&gt;Tallinnaddress</title>
<path fill="none" stroke="red" stroke-width="2" d="M768,-215.831C768,-208.131 768,-198.974 768,-190.417"/>
<polygon fill="red" stroke="red" points="771.5,-190.413 768,-180.413 764.5,-190.413 771.5,-190.413"/>
</g>
</g>
</svg>
