<?xml version="1.0" encoding="UTF-8" standalone="no"?>
<!DOCTYPE svg PUBLIC "-//W3C//DTD SVG 1.1//EN"
 "http://www.w3.org/Graphics/SVG/1.1/DTD/svg11.dtd">
<!-- Generated by graphviz version 2.26.3 (20100126.1600)
 -->
<!-- Title: G Pages: 1 -->
<svg width="950pt" height="404pt"
 viewBox="0.00 0.00 950.00 404.00" xmlns="http://www.w3.org/2000/svg" xmlns:xlink="http://www.w3.org/1999/xlink">
<g id="graph1" class="graph" transform="scale(1 1) rotate(0) translate(4 400)">
<title>G</title>
<polygon fill="white" stroke="white" points="-4,5 -4,-400 947,-400 947,5 -4,5"/>
<!-- Action -->
<g id="node1" class="node"><title>Action</title>
<polygon fill="none" stroke="black" points="626,-396 566,-396 566,-360 626,-360 626,-396"/>
<text text-anchor="middle" x="596" y="-374.4" font-family="Times Roman,serif" font-size="14.00">Action</text>
</g>
<!-- Direction -->
<g id="node3" class="node"><title>Direction</title>
<polygon fill="none" stroke="black" points="555,-324 475,-324 475,-288 555,-288 555,-324"/>
<text text-anchor="middle" x="515" y="-302.4" font-family="Times Roman,serif" font-size="14.00">Direction</text>
</g>
<!-- Action&#45;&gt;Direction -->
<g id="edge2" class="edge"><title>Action&#45;&gt;Direction</title>
<path fill="none" stroke="red" stroke-width="2" d="M575.56,-359.831C565.68,-351.048 553.668,-340.371 542.955,-330.849"/>
<polygon fill="red" stroke="red" points="545.233,-328.191 535.433,-324.163 540.582,-333.422 545.233,-328.191"/>
</g>
<!-- Calc -->
<g id="node5" class="node"><title>Calc</title>
<polygon fill="none" stroke="black" points="705,-324 651,-324 651,-288 705,-288 705,-324"/>
<text text-anchor="middle" x="678" y="-302.4" font-family="Times Roman,serif" font-size="14.00">Calc</text>
</g>
<!-- Action&#45;&gt;Calc -->
<g id="edge4" class="edge"><title>Action&#45;&gt;Calc</title>
<path fill="none" stroke="red" stroke-width="2" d="M616.692,-359.831C626.695,-351.048 638.855,-340.371 649.7,-330.849"/>
<polygon fill="red" stroke="red" points="652.109,-333.391 657.315,-324.163 647.491,-328.131 652.109,-333.391"/>
</g>
<!-- Address -->
<g id="node26" class="node"><title>Address</title>
<polygon fill="none" stroke="black" points="458,-180 388,-180 388,-144 458,-144 458,-180"/>
<text text-anchor="middle" x="423" y="-158.4" font-family="Times Roman,serif" font-size="14.00">Address</text>
</g>
<!-- Direction&#45;&gt;Address -->
<g id="edge52" class="edge"><title>Direction&#45;&gt;Address</title>
<path fill="none" stroke="red" stroke-width="2" d="M496.319,-287.55C486.823,-277.57 475.523,-264.71 467,-252 453.699,-232.164 442.007,-207.712 434.025,-189.304"/>
<polygon fill="red" stroke="red" points="437.218,-187.868 430.094,-180.027 430.773,-190.6 437.218,-187.868"/>
</g>
<!-- Expr -->
<g id="node23" class="node"><title>Expr</title>
<polygon fill="none" stroke="black" points="705,-252 651,-252 651,-216 705,-216 705,-252"/>
<text text-anchor="middle" x="678" y="-230.4" font-family="Times Roman,serif" font-size="14.00">Expr</text>
</g>
<!-- Calc&#45;&gt;Expr -->
<g id="edge22" class="edge"><title>Calc&#45;&gt;Expr</title>
<path fill="none" stroke="red" stroke-width="2" d="M678,-287.831C678,-280.131 678,-270.974 678,-262.417"/>
<polygon fill="red" stroke="red" points="681.5,-262.413 678,-252.413 674.5,-262.413 681.5,-262.413"/>
</g>
<!-- Unitconv -->
<g id="node25" class="node"><title>Unitconv</title>
<polygon fill="none" stroke="black" points="801,-252 723,-252 723,-216 801,-216 801,-252"/>
<text text-anchor="middle" x="762" y="-230.4" font-family="Times Roman,serif" font-size="14.00">Unitconv</text>
</g>
<!-- Calc&#45;&gt;Unitconv -->
<g id="edge24" class="edge"><title>Calc&#45;&gt;Unitconv</title>
<path fill="none" stroke="red" stroke-width="2" d="M699.197,-287.831C709.443,-279.048 721.9,-268.371 733.01,-258.849"/>
<polygon fill="red" stroke="red" points="735.495,-261.328 740.81,-252.163 730.94,-256.013 735.495,-261.328"/>
</g>
<!-- Symbols -->
<g id="node6" class="node"><title>Symbols</title>
<polygon fill="none" stroke="black" points="152,-180 78,-180 78,-144 152,-144 152,-180"/>
<text text-anchor="middle" x="115" y="-158.4" font-family="Times Roman,serif" font-size="14.00">Symbols</text>
</g>
<!-- Digit -->
<g id="node8" class="node"><title>Digit</title>
<polygon fill="none" stroke="black" points="62,-108 8,-108 8,-72 62,-72 62,-108"/>
<text text-anchor="middle" x="35" y="-86.4" font-family="Times Roman,serif" font-size="14.00">Digit</text>
</g>
<!-- Symbols&#45;&gt;Digit -->
<g id="edge6" class="edge"><title>Symbols&#45;&gt;Digit</title>
<path fill="none" stroke="red" stroke-width="2" d="M94.8126,-143.831C85.1486,-135.134 73.4204,-124.578 62.9184,-115.127"/>
<polygon fill="red" stroke="red" points="64.9553,-112.251 55.1809,-108.163 60.2725,-117.454 64.9553,-112.251"/>
</g>
<!-- Letter -->
<g id="node10" class="node"><title>Letter</title>
<polygon fill="none" stroke="black" points="138,-108 80,-108 80,-72 138,-72 138,-108"/>
<text text-anchor="middle" x="109" y="-86.4" font-family="Times Roman,serif" font-size="14.00">Letter</text>
</g>
<!-- Symbols&#45;&gt;Letter -->
<g id="edge8" class="edge"><title>Symbols&#45;&gt;Letter</title>
<path fill="none" stroke="red" stroke-width="2" d="M113.486,-143.831C112.844,-136.131 112.081,-126.974 111.368,-118.417"/>
<polygon fill="red" stroke="red" points="114.853,-118.088 110.534,-108.413 107.877,-118.669 114.853,-118.088"/>
</g>
<!-- _abstract_ -->
<g id="node12" class="node"><title>_abstract_</title>
<polygon fill="none" stroke="black" points="467,-36 379,-36 379,-1.77636e-14 467,-3.55271e-15 467,-36"/>
<text text-anchor="middle" x="423" y="-14.4" font-family="Times Roman,serif" font-size="14.00">_abstract_</text>
</g>
<!-- Digit&#45;&gt;_abstract_ -->
<g id="edge10" class="edge"><title>Digit&#45;&gt;_abstract_</title>
<path fill="none" stroke="red" stroke-width="2" d="M62.1471,-75.3297C65.0838,-74.0752 68.07,-72.9319 71,-72 173.135,-39.5158 298.352,-26.2642 368.559,-21.0936"/>
<polygon fill="red" stroke="red" points="369.198,-24.5572 378.926,-20.3596 368.704,-17.5747 369.198,-24.5572"/>
</g>
<!-- Letter&#45;&gt;_abstract_ -->
<g id="edge16" class="edge"><title>Letter&#45;&gt;_abstract_</title>
<path fill="none" stroke="red" stroke-width="2" d="M138.162,-75.3029C141.108,-74.0862 144.088,-72.958 147,-72 221.882,-47.3683 312.089,-32.3274 368.508,-24.5771"/>
<polygon fill="red" stroke="red" points="369.194,-28.0164 378.638,-23.2141 368.261,-21.0789 369.194,-28.0164"/>
</g>
<!-- Numeral -->
<g id="node13" class="node"><title>Numeral</title>
<polygon fill="none" stroke="black" points="680,-108 606,-108 606,-72 680,-72 680,-108"/>
<text text-anchor="middle" x="643" y="-86.4" font-family="Times Roman,serif" font-size="14.00">Numeral</text>
</g>
<!-- Numeral&#45;&gt;_abstract_ -->
<g id="edge12" class="edge"><title>Numeral&#45;&gt;_abstract_</title>
<path fill="none" stroke="red" stroke-width="2" d="M605.929,-75.2292C602.918,-74.1103 599.914,-73.0207 597,-72 557.197,-58.0566 511.653,-43.9886 477.147,-33.7085"/>
<polygon fill="red" stroke="red" points="477.849,-30.2662 467.267,-30.7787 475.859,-36.9774 477.849,-30.2662"/>
</g>
<!-- Eeppl -->
<g id="node15" class="node"><title>Eeppl</title>
<polygon fill="none" stroke="black" points="282,-108 228,-108 228,-72 282,-72 282,-108"/>
<text text-anchor="middle" x="255" y="-86.4" font-family="Times Roman,serif" font-size="14.00">Eeppl</text>
</g>
<!-- Eeppl&#45;&gt;_abstract_ -->
<g id="edge14" class="edge"><title>Eeppl&#45;&gt;_abstract_</title>
<path fill="none" stroke="red" stroke-width="2" d="M282.022,-76.216C285.035,-74.7603 288.073,-73.3282 291,-72 316.578,-60.3935 345.407,-48.4697 369.584,-38.7889"/>
<polygon fill="red" stroke="red" points="370.953,-42.0111 378.947,-35.0583 368.362,-35.5082 370.953,-42.0111"/>
</g>
<!-- Date -->
<g id="node18" class="node"><title>Date</title>
<polygon fill="none" stroke="black" points="664,-180 610,-180 610,-144 664,-144 664,-180"/>
<text text-anchor="middle" x="637" y="-158.4" font-family="Times Roman,serif" font-size="14.00">Date</text>
</g>
<!-- Date&#45;&gt;Numeral -->
<g id="edge18" class="edge"><title>Date&#45;&gt;Numeral</title>
<path fill="none" stroke="red" stroke-width="2" d="M638.514,-143.831C639.156,-136.131 639.919,-126.974 640.632,-118.417"/>
<polygon fill="red" stroke="red" points="644.123,-118.669 641.466,-108.413 637.147,-118.088 644.123,-118.669"/>
</g>
<!-- Go -->
<g id="node20" class="node"><title>Go</title>
<polygon fill="none" stroke="black" points="354,-108 300,-108 300,-72 354,-72 354,-108"/>
<text text-anchor="middle" x="327" y="-86.4" font-family="Times Roman,serif" font-size="14.00">Go</text>
</g>
<!-- Go&#45;&gt;_abstract_ -->
<g id="edge20" class="edge"><title>Go&#45;&gt;_abstract_</title>
<path fill="none" stroke="red" stroke-width="2" d="M351.225,-71.8314C363.163,-62.8779 377.726,-51.9558 390.606,-42.2955"/>
<polygon fill="red" stroke="red" points="392.883,-44.9629 398.783,-36.1628 388.683,-39.3629 392.883,-44.9629"/>
</g>
<!-- Fraction -->
<g id="node34" class="node"><title>Fraction</title>
<polygon fill="none" stroke="black" points="754,-180 682,-180 682,-144 754,-144 754,-180"/>
<text text-anchor="middle" x="718" y="-158.4" font-family="Times Roman,serif" font-size="14.00">Fraction</text>
</g>
<!-- Expr&#45;&gt;Fraction -->
<g id="edge54" class="edge"><title>Expr&#45;&gt;Fraction</title>
<path fill="none" stroke="red" stroke-width="2" d="M688.094,-215.831C692.56,-207.792 697.907,-198.167 702.838,-189.292"/>
<polygon fill="red" stroke="red" points="705.973,-190.855 707.77,-180.413 699.854,-187.455 705.973,-190.855"/>
</g>
<!-- Unitconv&#45;&gt;Fraction -->
<g id="edge58" class="edge"><title>Unitconv&#45;&gt;Fraction</title>
<path fill="none" stroke="red" stroke-width="2" d="M750.897,-215.831C745.933,-207.708 739.978,-197.964 734.507,-189.012"/>
<polygon fill="red" stroke="red" points="737.454,-187.121 729.253,-180.413 731.481,-190.771 737.454,-187.121"/>
</g>
<!-- Unit -->
<g id="node52" class="node"><title>Unit</title>
<polygon fill="none" stroke="black" points="826,-180 772,-180 772,-144 826,-144 826,-180"/>
<text text-anchor="middle" x="799" y="-158.4" font-family="Times Roman,serif" font-size="14.00">Unit</text>
</g>
<!-- Unitconv&#45;&gt;Unit -->
<g id="edge60" class="edge"><title>Unitconv&#45;&gt;Unit</title>
<path fill="none" stroke="red" stroke-width="2" d="M771.337,-215.831C775.424,-207.877 780.31,-198.369 784.831,-189.572"/>
<polygon fill="red" stroke="red" points="788.08,-190.907 789.538,-180.413 781.854,-187.708 788.08,-190.907"/>
</g>
<!-- Address&#45;&gt;Numeral -->
<g id="edge32" class="edge"><title>Address&#45;&gt;Numeral</title>
<path fill="none" stroke="red" stroke-width="2" d="M458.013,-148.499C462.367,-146.93 466.774,-145.394 471,-144 523.394,-126.722 540.074,-126.594 596.2,-108.108"/>
<polygon fill="red" stroke="red" points="597.581,-111.337 605.954,-104.844 595.36,-104.699 597.581,-111.337"/>
</g>
<!-- Address&#45;&gt;Eeppl -->
<g id="edge26" class="edge"><title>Address&#45;&gt;Eeppl</title>
<path fill="none" stroke="red" stroke-width="2" d="M387.954,-148.496C363.163,-138.758 329.005,-124.97 291.185,-107.941"/>
<polygon fill="red" stroke="red" points="292.574,-104.728 282.022,-103.784 289.682,-111.103 292.574,-104.728"/>
</g>
<!-- Town -->
<g id="node29" class="node"><title>Town</title>
<polygon fill="none" stroke="black" points="210,-108 156,-108 156,-72 210,-72 210,-108"/>
<text text-anchor="middle" x="183" y="-86.4" font-family="Times Roman,serif" font-size="14.00">Town</text>
</g>
<!-- Address&#45;&gt;Town -->
<g id="edge28" class="edge"><title>Address&#45;&gt;Town</title>
<path fill="none" stroke="red" stroke-width="2" d="M387.667,-154.955C348.453,-146.637 283.332,-131.341 219.994,-108.009"/>
<polygon fill="red" stroke="red" points="220.85,-104.592 210.258,-104.352 218.389,-111.145 220.85,-104.592"/>
</g>
<!-- Tallinnstreet -->
<g id="node31" class="node"><title>Tallinnstreet</title>
<polygon fill="none" stroke="black" points="474,-108 372,-108 372,-72 474,-72 474,-108"/>
<text text-anchor="middle" x="423" y="-86.4" font-family="Times Roman,serif" font-size="14.00">Tallinnstreet</text>
</g>
<!-- Address&#45;&gt;Tallinnstreet -->
<g id="edge30" class="edge"><title>Address&#45;&gt;Tallinnstreet</title>
<path fill="none" stroke="red" stroke-width="2" d="M423,-143.831C423,-136.131 423,-126.974 423,-118.417"/>
<polygon fill="red" stroke="red" points="426.5,-118.413 423,-108.413 419.5,-118.413 426.5,-118.413"/>
</g>
<!-- Town&#45;&gt;_abstract_ -->
<g id="edge34" class="edge"><title>Town&#45;&gt;_abstract_</title>
<path fill="none" stroke="red" stroke-width="2" d="M210.258,-75.6479C213.173,-74.3314 216.124,-73.0866 219,-72 268.551,-53.2806 327.2,-38.4815 368.866,-29.1454"/>
<polygon fill="red" stroke="red" points="369.802,-32.5231 378.811,-26.9483 368.292,-25.6879 369.802,-32.5231"/>
</g>
<!-- Tallinnstreet&#45;&gt;_abstract_ -->
<g id="edge48" class="edge"><title>Tallinnstreet&#45;&gt;_abstract_</title>
<path fill="none" stroke="red" stroke-width="2" d="M423,-71.8314C423,-64.131 423,-54.9743 423,-46.4166"/>
<polygon fill="red" stroke="red" points="426.5,-46.4132 423,-36.4133 419.5,-46.4133 426.5,-46.4132"/>
</g>
<!-- Fraction&#45;&gt;Numeral -->
<g id="edge36" class="edge"><title>Fraction&#45;&gt;Numeral</title>
<path fill="none" stroke="red" stroke-width="2" d="M699.074,-143.831C690.014,-135.134 679.019,-124.578 669.173,-115.127"/>
<polygon fill="red" stroke="red" points="671.557,-112.563 661.92,-108.163 666.71,-117.613 671.557,-112.563"/>
</g>
<!-- Estvrp -->
<g id="node36" class="node"><title>Estvrp</title>
<polygon fill="none" stroke="black" points="60,-180 2.84217e-14,-180 3.55271e-15,-144 60,-144 60,-180"/>
<text text-anchor="middle" x="30" y="-158.4" font-family="Times Roman,serif" font-size="14.00">Estvrp</text>
</g>
<!-- Estvrp&#45;&gt;Digit -->
<g id="edge38" class="edge"><title>Estvrp&#45;&gt;Digit</title>
<path fill="none" stroke="red" stroke-width="2" d="M31.2617,-143.831C31.7965,-136.131 32.4323,-126.974 33.0266,-118.417"/>
<polygon fill="red" stroke="red" points="36.52,-118.632 33.7213,-108.413 29.5368,-118.147 36.52,-118.632"/>
</g>
<!-- Estvrp&#45;&gt;Letter -->
<g id="edge40" class="edge"><title>Estvrp&#45;&gt;Letter</title>
<path fill="none" stroke="red" stroke-width="2" d="M49.935,-143.831C59.4783,-135.134 71.0599,-124.578 81.4306,-115.127"/>
<polygon fill="red" stroke="red" points="84.038,-117.486 89.0713,-108.163 79.3228,-112.312 84.038,-117.486"/>
</g>
<!-- Tallinnaddress -->
<g id="node39" class="node"><title>Tallinnaddress</title>
<polygon fill="none" stroke="black" points="592,-180 480,-180 480,-144 592,-144 592,-180"/>
<text text-anchor="middle" x="536" y="-158.4" font-family="Times Roman,serif" font-size="14.00">Tallinnaddress</text>
</g>
<!-- Tallinnaddress&#45;&gt;Numeral -->
<g id="edge46" class="edge"><title>Tallinnaddress&#45;&gt;Numeral</title>
<path fill="none" stroke="red" stroke-width="2" d="M563.001,-143.831C576.433,-134.793 592.847,-123.748 607.304,-114.02"/>
<polygon fill="red" stroke="red" points="609.665,-116.649 616.008,-108.163 605.757,-110.842 609.665,-116.649"/>
</g>
<!-- Tallinnaddress&#45;&gt;Tallinnstreet -->
<g id="edge44" class="edge"><title>Tallinnaddress&#45;&gt;Tallinnstreet</title>
<path fill="none" stroke="red" stroke-width="2" d="M507.485,-143.831C493.166,-134.707 475.638,-123.539 460.266,-113.745"/>
<polygon fill="red" stroke="red" points="461.82,-110.585 451.506,-108.163 458.058,-116.488 461.82,-110.585"/>
</g>
<!-- Tallinnplace -->
<g id="node41" class="node"><title>Tallinnplace</title>
<polygon fill="none" stroke="black" points="588,-108 492,-108 492,-72 588,-72 588,-108"/>
<text text-anchor="middle" x="540" y="-86.4" font-family="Times Roman,serif" font-size="14.00">Tallinnplace</text>
</g>
<!-- Tallinnaddress&#45;&gt;Tallinnplace -->
<g id="edge42" class="edge"><title>Tallinnaddress&#45;&gt;Tallinnplace</title>
<path fill="none" stroke="red" stroke-width="2" d="M537.009,-143.831C537.437,-136.131 537.946,-126.974 538.421,-118.417"/>
<polygon fill="red" stroke="red" points="541.917,-118.592 538.977,-108.413 534.928,-118.204 541.917,-118.592"/>
</g>
<!-- Tallinnplace&#45;&gt;_abstract_ -->
<g id="edge50" class="edge"><title>Tallinnplace&#45;&gt;_abstract_</title>
<path fill="none" stroke="red" stroke-width="2" d="M510.476,-71.8314C495.511,-62.6221 477.161,-51.3301 461.14,-41.4706"/>
<polygon fill="red" stroke="red" points="462.866,-38.423 452.515,-36.1628 459.197,-44.3847 462.866,-38.423"/>
</g>
<!-- Prefix -->
<g id="node48" class="node"><title>Prefix</title>
<polygon fill="none" stroke="black" points="852,-108 796,-108 796,-72 852,-72 852,-108"/>
<text text-anchor="middle" x="824" y="-86.4" font-family="Times Roman,serif" font-size="14.00">Prefix</text>
</g>
<!-- Prefix&#45;&gt;_abstract_ -->
<g id="edge56" class="edge"><title>Prefix&#45;&gt;_abstract_</title>
<path fill="none" stroke="red" stroke-width="2" d="M795.67,-75.1534C792.788,-73.967 789.866,-72.8867 787,-72 680.256,-38.9769 549.466,-25.8714 477.31,-20.882"/>
<polygon fill="red" stroke="red" points="477.31,-17.3744 467.1,-20.2034 476.846,-24.359 477.31,-17.3744"/>
</g>
<!-- Unit&#45;&gt;Prefix -->
<g id="edge64" class="edge"><title>Unit&#45;&gt;Prefix</title>
<path fill="none" stroke="red" stroke-width="2" d="M805.309,-143.831C808.012,-136.046 811.232,-126.773 814.231,-118.135"/>
<polygon fill="red" stroke="red" points="817.633,-119.008 817.607,-108.413 811.02,-116.712 817.633,-119.008"/>
</g>
<!-- Currency -->
<g id="node53" class="node"><title>Currency</title>
<polygon fill="none" stroke="black" points="778,-108 698,-108 698,-72 778,-72 778,-108"/>
<text text-anchor="middle" x="738" y="-86.4" font-family="Times Roman,serif" font-size="14.00">Currency</text>
</g>
<!-- Unit&#45;&gt;Currency -->
<g id="edge66" class="edge"><title>Unit&#45;&gt;Currency</title>
<path fill="none" stroke="red" stroke-width="2" d="M783.607,-143.831C776.51,-135.454 767.952,-125.353 760.176,-116.175"/>
<polygon fill="red" stroke="red" points="762.735,-113.781 753.6,-108.413 757.394,-118.306 762.735,-113.781"/>
</g>
<!-- Currency&#45;&gt;_abstract_ -->
<g id="edge62" class="edge"><title>Currency&#45;&gt;_abstract_</title>
<path fill="none" stroke="red" stroke-width="2" d="M697.783,-74.6765C694.827,-73.7198 691.877,-72.8155 689,-72 616.807,-51.5399 531.507,-35.6399 477.338,-26.5432"/>
<polygon fill="red" stroke="red" points="477.703,-23.0559 467.264,-24.8698 476.555,-29.9613 477.703,-23.0559"/>
</g>
<!-- Country -->
<g id="node57" class="node"><title>Country</title>
<polygon fill="none" stroke="black" points="942,-108 870,-108 870,-72 942,-72 942,-108"/>
<text text-anchor="middle" x="906" y="-86.4" font-family="Times Roman,serif" font-size="14.00">Country</text>
</g>
<!-- Country&#45;&gt;_abstract_ -->
<g id="edge68" class="edge"><title>Country&#45;&gt;_abstract_</title>
<path fill="none" stroke="red" stroke-width="2" d="M869.919,-74.6385C866.932,-73.652 863.934,-72.7541 861,-72 725.655,-37.2118 560.833,-24.5835 477.241,-20.1976"/>
<polygon fill="red" stroke="red" points="477.377,-16.7001 467.213,-19.6908 477.024,-23.6912 477.377,-16.7001"/>
</g>
<!-- Tallinndirection -->
<g id="node59" class="node"><title>Tallinndirection</title>
<polygon fill="none" stroke="black" points="596,-252 476,-252 476,-216 596,-216 596,-252"/>
<text text-anchor="middle" x="536" y="-230.4" font-family="Times Roman,serif" font-size="14.00">Tallinndirection</text>
</g>
<!-- Tallinndirection&#45;&gt;Tallinnaddress -->
<g id="edge70" class="edge"><title>Tallinndirection&#45;&gt;Tallinnaddress</title>
<path fill="none" stroke="red" stroke-width="2" d="M536,-215.831C536,-208.131 536,-198.974 536,-190.417"/>
<polygon fill="red" stroke="red" points="539.5,-190.413 536,-180.413 532.5,-190.413 539.5,-190.413"/>
</g>
</g>
</svg>
