<?xml version="1.0" encoding="UTF-8" standalone="no"?>
<!DOCTYPE svg PUBLIC "-//W3C//DTD SVG 1.1//EN"
 "http://www.w3.org/Graphics/SVG/1.1/DTD/svg11.dtd">
<!-- Generated by graphviz version 2.26.3 (20100126.1600)
 -->
<!-- Title: G Pages: 1 -->
<svg width="736pt" height="404pt"
 viewBox="0.00 0.00 736.00 404.00" xmlns="http://www.w3.org/2000/svg" xmlns:xlink="http://www.w3.org/1999/xlink">
<g id="graph1" class="graph" transform="scale(1 1) rotate(0) translate(4 400)">
<title>G</title>
<polygon fill="white" stroke="white" points="-4,5 -4,-400 733,-400 733,5 -4,5"/>
<!-- Action -->
<g id="node1" class="node"><title>Action</title>
<polygon fill="none" stroke="black" points="515,-396 455,-396 455,-360 515,-360 515,-396"/>
<text text-anchor="middle" x="485" y="-374.4" font-family="Times Roman,serif" font-size="14.00">Action</text>
</g>
<!-- Direction -->
<g id="node3" class="node"><title>Direction</title>
<polygon fill="none" stroke="black" points="568,-324 488,-324 488,-288 568,-288 568,-324"/>
<text text-anchor="middle" x="528" y="-302.4" font-family="Times Roman,serif" font-size="14.00">Direction</text>
</g>
<!-- Action&#45;&gt;Direction -->
<g id="edge2" class="edge"><title>Action&#45;&gt;Direction</title>
<path fill="none" stroke="red" stroke-width="2" d="M495.851,-359.831C500.702,-351.708 506.522,-341.964 511.868,-333.012"/>
<polygon fill="red" stroke="red" points="514.881,-334.793 517.003,-324.413 508.871,-331.204 514.881,-334.793"/>
</g>
<!-- Calc -->
<g id="node5" class="node"><title>Calc</title>
<polygon fill="none" stroke="black" points="469,-324 415,-324 415,-288 469,-288 469,-324"/>
<text text-anchor="middle" x="442" y="-302.4" font-family="Times Roman,serif" font-size="14.00">Calc</text>
</g>
<!-- Action&#45;&gt;Calc -->
<g id="edge4" class="edge"><title>Action&#45;&gt;Calc</title>
<path fill="none" stroke="red" stroke-width="2" d="M474.149,-359.831C469.298,-351.708 463.478,-341.964 458.132,-333.012"/>
<polygon fill="red" stroke="red" points="461.129,-331.204 452.997,-324.413 455.119,-334.793 461.129,-331.204"/>
</g>
<!-- Address -->
<g id="node24" class="node"><title>Address</title>
<polygon fill="none" stroke="black" points="565,-180 495,-180 495,-144 565,-144 565,-180"/>
<text text-anchor="middle" x="530" y="-158.4" font-family="Times Roman,serif" font-size="14.00">Address</text>
</g>
<!-- Direction&#45;&gt;Address -->
<g id="edge40" class="edge"><title>Direction&#45;&gt;Address</title>
<path fill="none" stroke="red" stroke-width="2" d="M528.253,-287.762C528.594,-263.201 529.205,-219.247 529.606,-190.354"/>
<polygon fill="red" stroke="red" points="533.109,-190.137 529.749,-180.09 526.11,-190.04 533.109,-190.137"/>
</g>
<!-- Exp -->
<g id="node14" class="node"><title>Exp</title>
<polygon fill="none" stroke="black" points="469,-252 415,-252 415,-216 469,-216 469,-252"/>
<text text-anchor="middle" x="442" y="-230.4" font-family="Times Roman,serif" font-size="14.00">Exp</text>
</g>
<!-- Calc&#45;&gt;Exp -->
<g id="edge18" class="edge"><title>Calc&#45;&gt;Exp</title>
<path fill="none" stroke="red" stroke-width="2" d="M442,-287.831C442,-280.131 442,-270.974 442,-262.417"/>
<polygon fill="red" stroke="red" points="445.5,-262.413 442,-252.413 438.5,-262.413 445.5,-262.413"/>
</g>
<!-- Unitconv -->
<g id="node21" class="node"><title>Unitconv</title>
<polygon fill="none" stroke="black" points="397,-252 319,-252 319,-216 397,-216 397,-252"/>
<text text-anchor="middle" x="358" y="-230.4" font-family="Times Roman,serif" font-size="14.00">Unitconv</text>
</g>
<!-- Calc&#45;&gt;Unitconv -->
<g id="edge20" class="edge"><title>Calc&#45;&gt;Unitconv</title>
<path fill="none" stroke="red" stroke-width="2" d="M420.803,-287.831C410.557,-279.048 398.1,-268.371 386.99,-258.849"/>
<polygon fill="red" stroke="red" points="389.06,-256.013 379.19,-252.163 384.505,-261.328 389.06,-256.013"/>
</g>
<!-- Symbols -->
<g id="node6" class="node"><title>Symbols</title>
<polygon fill="none" stroke="black" points="152,-180 78,-180 78,-144 152,-144 152,-180"/>
<text text-anchor="middle" x="115" y="-158.4" font-family="Times Roman,serif" font-size="14.00">Symbols</text>
</g>
<!-- Digit -->
<g id="node8" class="node"><title>Digit</title>
<polygon fill="none" stroke="black" points="136,-108 82,-108 82,-72 136,-72 136,-108"/>
<text text-anchor="middle" x="109" y="-86.4" font-family="Times Roman,serif" font-size="14.00">Digit</text>
</g>
<!-- Symbols&#45;&gt;Digit -->
<g id="edge6" class="edge"><title>Symbols&#45;&gt;Digit</title>
<path fill="none" stroke="red" stroke-width="2" d="M113.486,-143.831C112.844,-136.131 112.081,-126.974 111.368,-118.417"/>
<polygon fill="red" stroke="red" points="114.853,-118.088 110.534,-108.413 107.877,-118.669 114.853,-118.088"/>
</g>
<!-- Letter -->
<g id="node10" class="node"><title>Letter</title>
<polygon fill="none" stroke="black" points="64,-108 6,-108 6,-72 64,-72 64,-108"/>
<text text-anchor="middle" x="35" y="-86.4" font-family="Times Roman,serif" font-size="14.00">Letter</text>
</g>
<!-- Symbols&#45;&gt;Letter -->
<g id="edge8" class="edge"><title>Symbols&#45;&gt;Letter</title>
<path fill="none" stroke="red" stroke-width="2" d="M94.8126,-143.831C85.1486,-135.134 73.4204,-124.578 62.9184,-115.127"/>
<polygon fill="red" stroke="red" points="64.9553,-112.251 55.1809,-108.163 60.2725,-117.454 64.9553,-112.251"/>
</g>
<!-- _abstract_ -->
<g id="node12" class="node"><title>_abstract_</title>
<polygon fill="none" stroke="black" points="384,-36 296,-36 296,-1.77636e-14 384,-3.55271e-15 384,-36"/>
<text text-anchor="middle" x="340" y="-14.4" font-family="Times Roman,serif" font-size="14.00">_abstract_</text>
</g>
<!-- Digit&#45;&gt;_abstract_ -->
<g id="edge10" class="edge"><title>Digit&#45;&gt;_abstract_</title>
<path fill="none" stroke="red" stroke-width="2" d="M136.271,-75.6816C139.183,-74.3585 142.13,-73.1029 145,-72 191.552,-54.11 246.443,-39.4551 286.106,-29.949"/>
<polygon fill="red" stroke="red" points="286.922,-33.3526 295.848,-27.6443 285.311,-26.5407 286.922,-33.3526"/>
</g>
<!-- Letter&#45;&gt;_abstract_ -->
<g id="edge12" class="edge"><title>Letter&#45;&gt;_abstract_</title>
<path fill="none" stroke="red" stroke-width="2" d="M64.168,-75.3223C67.113,-74.1016 70.0906,-72.9673 73,-72 144.673,-48.1717 230.834,-33.0577 285.511,-25.0589"/>
<polygon fill="red" stroke="red" points="286.277,-28.485 295.678,-23.6006 285.283,-21.5559 286.277,-28.485"/>
</g>
<!-- Fraction -->
<g id="node16" class="node"><title>Fraction</title>
<polygon fill="none" stroke="black" points="475,-180 403,-180 403,-144 475,-144 475,-180"/>
<text text-anchor="middle" x="439" y="-158.4" font-family="Times Roman,serif" font-size="14.00">Fraction</text>
</g>
<!-- Exp&#45;&gt;Fraction -->
<g id="edge14" class="edge"><title>Exp&#45;&gt;Fraction</title>
<path fill="none" stroke="red" stroke-width="2" d="M441.243,-215.831C440.922,-208.131 440.541,-198.974 440.184,-190.417"/>
<polygon fill="red" stroke="red" points="443.681,-190.259 439.767,-180.413 436.687,-190.55 443.681,-190.259"/>
</g>
<!-- Numerals -->
<g id="node22" class="node"><title>Numerals</title>
<polygon fill="none" stroke="black" points="480,-108 398,-108 398,-72 480,-72 480,-108"/>
<text text-anchor="middle" x="439" y="-86.4" font-family="Times Roman,serif" font-size="14.00">Numerals</text>
</g>
<!-- Fraction&#45;&gt;Numerals -->
<g id="edge34" class="edge"><title>Fraction&#45;&gt;Numerals</title>
<path fill="none" stroke="red" stroke-width="2" d="M439,-143.831C439,-136.131 439,-126.974 439,-118.417"/>
<polygon fill="red" stroke="red" points="442.5,-118.413 439,-108.413 435.5,-118.413 442.5,-118.413"/>
</g>
<!-- Go -->
<g id="node17" class="node"><title>Go</title>
<polygon fill="none" stroke="black" points="208,-108 154,-108 154,-72 208,-72 208,-108"/>
<text text-anchor="middle" x="181" y="-86.4" font-family="Times Roman,serif" font-size="14.00">Go</text>
</g>
<!-- Go&#45;&gt;_abstract_ -->
<g id="edge16" class="edge"><title>Go&#45;&gt;_abstract_</title>
<path fill="none" stroke="red" stroke-width="2" d="M208.056,-76.2907C211.063,-74.821 214.09,-73.3652 217,-72 240.185,-61.1226 266.112,-49.6409 288.162,-40.0748"/>
<polygon fill="red" stroke="red" points="289.566,-43.2811 297.355,-36.0997 286.787,-36.856 289.566,-43.2811"/>
</g>
<!-- Unitconv&#45;&gt;Fraction -->
<g id="edge44" class="edge"><title>Unitconv&#45;&gt;Fraction</title>
<path fill="none" stroke="red" stroke-width="2" d="M378.44,-215.831C388.32,-207.048 400.332,-196.371 411.045,-186.849"/>
<polygon fill="red" stroke="red" points="413.418,-189.422 418.567,-180.163 408.767,-184.191 413.418,-189.422"/>
</g>
<!-- Unit -->
<g id="node41" class="node"><title>Unit</title>
<polygon fill="none" stroke="black" points="367,-180 313,-180 313,-144 367,-144 367,-180"/>
<text text-anchor="middle" x="340" y="-158.4" font-family="Times Roman,serif" font-size="14.00">Unit</text>
</g>
<!-- Unitconv&#45;&gt;Unit -->
<g id="edge46" class="edge"><title>Unitconv&#45;&gt;Unit</title>
<path fill="none" stroke="red" stroke-width="2" d="M353.458,-215.831C351.512,-208.046 349.193,-198.773 347.034,-190.135"/>
<polygon fill="red" stroke="red" points="350.424,-189.266 344.603,-180.413 343.633,-190.964 350.424,-189.266"/>
</g>
<!-- Numerals&#45;&gt;_abstract_ -->
<g id="edge22" class="edge"><title>Numerals&#45;&gt;_abstract_</title>
<path fill="none" stroke="red" stroke-width="2" d="M414.018,-71.8314C401.707,-62.8779 386.689,-51.9558 373.406,-42.2955"/>
<polygon fill="red" stroke="red" points="375.12,-39.214 364.974,-36.1628 371.003,-44.8752 375.12,-39.214"/>
</g>
<!-- Address&#45;&gt;Numerals -->
<g id="edge28" class="edge"><title>Address&#45;&gt;Numerals</title>
<path fill="none" stroke="red" stroke-width="2" d="M507.037,-143.831C495.828,-134.963 482.179,-124.164 470.056,-114.572"/>
<polygon fill="red" stroke="red" points="471.97,-111.623 461.956,-108.163 467.626,-117.112 471.97,-111.623"/>
</g>
<!-- Town -->
<g id="node26" class="node"><title>Town</title>
<polygon fill="none" stroke="black" points="638,-108 584,-108 584,-72 638,-72 638,-108"/>
<text text-anchor="middle" x="611" y="-86.4" font-family="Times Roman,serif" font-size="14.00">Town</text>
</g>
<!-- Address&#45;&gt;Town -->
<g id="edge24" class="edge"><title>Address&#45;&gt;Town</title>
<path fill="none" stroke="red" stroke-width="2" d="M550.44,-143.831C560.32,-135.048 572.332,-124.371 583.045,-114.849"/>
<polygon fill="red" stroke="red" points="585.418,-117.422 590.567,-108.163 580.767,-112.191 585.418,-117.422"/>
</g>
<!-- StreetF -->
<g id="node28" class="node"><title>StreetF</title>
<polygon fill="none" stroke="black" points="566,-108 498,-108 498,-72 566,-72 566,-108"/>
<text text-anchor="middle" x="532" y="-86.4" font-family="Times Roman,serif" font-size="14.00">StreetF</text>
</g>
<!-- Address&#45;&gt;StreetF -->
<g id="edge26" class="edge"><title>Address&#45;&gt;StreetF</title>
<path fill="none" stroke="red" stroke-width="2" d="M530.505,-143.831C530.719,-136.131 530.973,-126.974 531.211,-118.417"/>
<polygon fill="red" stroke="red" points="534.709,-118.507 531.489,-108.413 527.712,-118.312 534.709,-118.507"/>
</g>
<!-- Town&#45;&gt;_abstract_ -->
<g id="edge32" class="edge"><title>Town&#45;&gt;_abstract_</title>
<path fill="none" stroke="red" stroke-width="2" d="M583.778,-75.5503C580.856,-74.2528 577.894,-73.0391 575,-72 514.677,-50.3381 442.45,-35.2715 394.136,-26.6596"/>
<polygon fill="red" stroke="red" points="394.656,-23.1975 384.202,-24.9198 393.448,-30.0925 394.656,-23.1975"/>
</g>
<!-- StreetF&#45;&gt;_abstract_ -->
<g id="edge30" class="edge"><title>StreetF&#45;&gt;_abstract_</title>
<path fill="none" stroke="red" stroke-width="2" d="M497.794,-75.5043C494.827,-74.3007 491.865,-73.118 489,-72 457.703,-59.7864 422.364,-46.9389 393.959,-36.8408"/>
<polygon fill="red" stroke="red" points="394.813,-33.4305 384.219,-33.3891 392.475,-40.0284 394.813,-33.4305"/>
</g>
<!-- Estvrp -->
<g id="node33" class="node"><title>Estvrp</title>
<polygon fill="none" stroke="black" points="60,-180 2.84217e-14,-180 3.55271e-15,-144 60,-144 60,-180"/>
<text text-anchor="middle" x="30" y="-158.4" font-family="Times Roman,serif" font-size="14.00">Estvrp</text>
</g>
<!-- Estvrp&#45;&gt;Digit -->
<g id="edge36" class="edge"><title>Estvrp&#45;&gt;Digit</title>
<path fill="none" stroke="red" stroke-width="2" d="M49.935,-143.831C59.4783,-135.134 71.0599,-124.578 81.4306,-115.127"/>
<polygon fill="red" stroke="red" points="84.038,-117.486 89.0713,-108.163 79.3228,-112.312 84.038,-117.486"/>
</g>
<!-- Estvrp&#45;&gt;Letter -->
<g id="edge38" class="edge"><title>Estvrp&#45;&gt;Letter</title>
<path fill="none" stroke="red" stroke-width="2" d="M31.2617,-143.831C31.7965,-136.131 32.4323,-126.974 33.0266,-118.417"/>
<polygon fill="red" stroke="red" points="36.52,-118.632 33.7213,-108.413 29.5368,-118.147 36.52,-118.632"/>
</g>
<!-- Prefix -->
<g id="node37" class="node"><title>Prefix</title>
<polygon fill="none" stroke="black" points="282,-108 226,-108 226,-72 282,-72 282,-108"/>
<text text-anchor="middle" x="254" y="-86.4" font-family="Times Roman,serif" font-size="14.00">Prefix</text>
</g>
<!-- Prefix&#45;&gt;_abstract_ -->
<g id="edge42" class="edge"><title>Prefix&#45;&gt;_abstract_</title>
<path fill="none" stroke="red" stroke-width="2" d="M275.701,-71.8314C286.192,-63.0485 298.946,-52.3712 310.319,-42.8489"/>
<polygon fill="red" stroke="red" points="312.885,-45.2659 318.306,-36.1628 308.391,-39.8986 312.885,-45.2659"/>
</g>
<!-- Unit&#45;&gt;Prefix -->
<g id="edge50" class="edge"><title>Unit&#45;&gt;Prefix</title>
<path fill="none" stroke="red" stroke-width="2" d="M318.299,-143.831C307.808,-135.048 295.054,-124.371 283.681,-114.849"/>
<polygon fill="red" stroke="red" points="285.609,-111.899 275.694,-108.163 281.115,-117.266 285.609,-111.899"/>
</g>
<!-- Currency -->
<g id="node42" class="node"><title>Currency</title>
<polygon fill="none" stroke="black" points="380,-108 300,-108 300,-72 380,-72 380,-108"/>
<text text-anchor="middle" x="340" y="-86.4" font-family="Times Roman,serif" font-size="14.00">Currency</text>
</g>
<!-- Unit&#45;&gt;Currency -->
<g id="edge52" class="edge"><title>Unit&#45;&gt;Currency</title>
<path fill="none" stroke="red" stroke-width="2" d="M340,-143.831C340,-136.131 340,-126.974 340,-118.417"/>
<polygon fill="red" stroke="red" points="343.5,-118.413 340,-108.413 336.5,-118.413 343.5,-118.413"/>
</g>
<!-- Currency&#45;&gt;_abstract_ -->
<g id="edge48" class="edge"><title>Currency&#45;&gt;_abstract_</title>
<path fill="none" stroke="red" stroke-width="2" d="M340,-71.8314C340,-64.131 340,-54.9743 340,-46.4166"/>
<polygon fill="red" stroke="red" points="343.5,-46.4132 340,-36.4133 336.5,-46.4133 343.5,-46.4132"/>
</g>
<!-- Country -->
<g id="node46" class="node"><title>Country</title>
<polygon fill="none" stroke="black" points="728,-108 656,-108 656,-72 728,-72 728,-108"/>
<text text-anchor="middle" x="692" y="-86.4" font-family="Times Roman,serif" font-size="14.00">Country</text>
</g>
<!-- Country&#45;&gt;_abstract_ -->
<g id="edge54" class="edge"><title>Country&#45;&gt;_abstract_</title>
<path fill="none" stroke="red" stroke-width="2" d="M655.874,-74.8051C652.897,-73.7813 649.913,-72.8293 647,-72 560.101,-47.2646 455.973,-31.825 394.048,-24.0769"/>
<polygon fill="red" stroke="red" points="394.462,-20.6014 384.109,-22.8541 393.607,-27.549 394.462,-20.6014"/>
</g>
</g>
</svg>
