<?xml version="1.0" encoding="UTF-8" standalone="no"?>
<!DOCTYPE svg PUBLIC "-//W3C//DTD SVG 1.1//EN"
 "http://www.w3.org/Graphics/SVG/1.1/DTD/svg11.dtd">
<!-- Generated by graphviz version 2.26.3 (20100126.1600)
 -->
<!-- Title: G Pages: 1 -->
<svg width="2656pt" height="404pt"
 viewBox="0.00 0.00 2656.00 404.00" xmlns="http://www.w3.org/2000/svg" xmlns:xlink="http://www.w3.org/1999/xlink">
<g id="graph1" class="graph" transform="scale(1 1) rotate(0) translate(4 400)">
<title>G</title>
<polygon fill="white" stroke="white" points="-4,5 -4,-400 2653,-400 2653,5 -4,5"/>
<!-- Action -->
<g id="node1" class="node"><title>Action</title>
<polygon fill="none" stroke="black" points="183,-396 123,-396 123,-360 183,-360 183,-396"/>
<text text-anchor="middle" x="153" y="-374.4" font-family="Times Roman,serif" font-size="14.00">Action</text>
</g>
<!-- Direction -->
<g id="node3" class="node"><title>Direction</title>
<polygon fill="none" stroke="black" points="150,-324 70,-324 70,-288 150,-288 150,-324"/>
<text text-anchor="middle" x="110" y="-302.4" font-family="Times Roman,serif" font-size="14.00">Direction</text>
</g>
<!-- Action&#45;&gt;Direction -->
<g id="edge2" class="edge"><title>Action&#45;&gt;Direction</title>
<path fill="none" stroke="red" stroke-width="2" d="M142.149,-359.831C137.298,-351.708 131.478,-341.964 126.132,-333.012"/>
<polygon fill="red" stroke="red" points="129.129,-331.204 120.997,-324.413 123.119,-334.793 129.129,-331.204"/>
</g>
<!-- Calc -->
<g id="node5" class="node"><title>Calc</title>
<polygon fill="none" stroke="black" points="223,-324 169,-324 169,-288 223,-288 223,-324"/>
<text text-anchor="middle" x="196" y="-302.4" font-family="Times Roman,serif" font-size="14.00">Calc</text>
</g>
<!-- Action&#45;&gt;Calc -->
<g id="edge4" class="edge"><title>Action&#45;&gt;Calc</title>
<path fill="none" stroke="red" stroke-width="2" d="M163.851,-359.831C168.702,-351.708 174.522,-341.964 179.868,-333.012"/>
<polygon fill="red" stroke="red" points="182.881,-334.793 185.003,-324.413 176.871,-331.204 182.881,-334.793"/>
</g>
<!-- Address -->
<g id="node66" class="node"><title>Address</title>
<polygon fill="none" stroke="black" points="143,-180 73,-180 73,-144 143,-144 143,-180"/>
<text text-anchor="middle" x="108" y="-158.4" font-family="Times Roman,serif" font-size="14.00">Address</text>
</g>
<!-- Direction&#45;&gt;Address -->
<g id="edge114" class="edge"><title>Direction&#45;&gt;Address</title>
<path fill="none" stroke="red" stroke-width="2" d="M109.747,-287.762C109.406,-263.201 108.795,-219.247 108.394,-190.354"/>
<polygon fill="red" stroke="red" points="111.89,-190.04 108.251,-180.09 104.891,-190.137 111.89,-190.04"/>
</g>
<!-- Exp -->
<g id="node33" class="node"><title>Exp</title>
<polygon fill="none" stroke="black" points="223,-252 169,-252 169,-216 223,-216 223,-252"/>
<text text-anchor="middle" x="196" y="-230.4" font-family="Times Roman,serif" font-size="14.00">Exp</text>
</g>
<!-- Calc&#45;&gt;Exp -->
<g id="edge46" class="edge"><title>Calc&#45;&gt;Exp</title>
<path fill="none" stroke="red" stroke-width="2" d="M196,-287.831C196,-280.131 196,-270.974 196,-262.417"/>
<polygon fill="red" stroke="red" points="199.5,-262.413 196,-252.413 192.5,-262.413 199.5,-262.413"/>
</g>
<!-- Unitconv -->
<g id="node54" class="node"><title>Unitconv</title>
<polygon fill="none" stroke="black" points="319,-252 241,-252 241,-216 319,-216 319,-252"/>
<text text-anchor="middle" x="280" y="-230.4" font-family="Times Roman,serif" font-size="14.00">Unitconv</text>
</g>
<!-- Calc&#45;&gt;Unitconv -->
<g id="edge48" class="edge"><title>Calc&#45;&gt;Unitconv</title>
<path fill="none" stroke="red" stroke-width="2" d="M217.197,-287.831C227.443,-279.048 239.9,-268.371 251.01,-258.849"/>
<polygon fill="red" stroke="red" points="253.495,-261.328 258.81,-252.163 248.94,-256.013 253.495,-261.328"/>
</g>
<!-- ActionEst -->
<g id="node6" class="node"><title>ActionEst</title>
<polygon fill="none" stroke="black" points="1147,-396 1065,-396 1065,-360 1147,-360 1147,-396"/>
<text text-anchor="middle" x="1106" y="-374.4" font-family="Times Roman,serif" font-size="14.00">ActionEst</text>
</g>
<!-- DirectionEst -->
<g id="node8" class="node"><title>DirectionEst</title>
<polygon fill="none" stroke="black" points="1207,-324 1107,-324 1107,-288 1207,-288 1207,-324"/>
<text text-anchor="middle" x="1157" y="-302.4" font-family="Times Roman,serif" font-size="14.00">DirectionEst</text>
</g>
<!-- ActionEst&#45;&gt;DirectionEst -->
<g id="edge6" class="edge"><title>ActionEst&#45;&gt;DirectionEst</title>
<path fill="none" stroke="green" stroke-width="2" d="M1118.87,-359.831C1124.68,-351.623 1131.67,-341.761 1138.06,-332.732"/>
<polygon fill="green" stroke="green" points="1141.03,-334.597 1143.96,-324.413 1135.32,-330.55 1141.03,-334.597"/>
</g>
<!-- CalcEst -->
<g id="node10" class="node"><title>CalcEst</title>
<polygon fill="none" stroke="black" points="1089,-324 1023,-324 1023,-288 1089,-288 1089,-324"/>
<text text-anchor="middle" x="1056" y="-302.4" font-family="Times Roman,serif" font-size="14.00">CalcEst</text>
</g>
<!-- ActionEst&#45;&gt;CalcEst -->
<g id="edge8" class="edge"><title>ActionEst&#45;&gt;CalcEst</title>
<path fill="none" stroke="green" stroke-width="2" d="M1093.38,-359.831C1087.68,-351.623 1080.83,-341.761 1074.56,-332.732"/>
<polygon fill="green" stroke="green" points="1077.37,-330.631 1068.79,-324.413 1071.62,-334.623 1077.37,-330.631"/>
</g>
<!-- AddressEst -->
<g id="node76" class="node"><title>AddressEst</title>
<polygon fill="none" stroke="black" points="1203,-180 1111,-180 1111,-144 1203,-144 1203,-180"/>
<text text-anchor="middle" x="1157" y="-158.4" font-family="Times Roman,serif" font-size="14.00">AddressEst</text>
</g>
<!-- DirectionEst&#45;&gt;AddressEst -->
<g id="edge110" class="edge"><title>DirectionEst&#45;&gt;AddressEst</title>
<path fill="none" stroke="green" stroke-width="2" d="M1157,-287.762C1157,-263.201 1157,-219.247 1157,-190.354"/>
<polygon fill="green" stroke="green" points="1160.5,-190.09 1157,-180.09 1153.5,-190.09 1160.5,-190.09"/>
</g>
<!-- ExpEstl -->
<g id="node39" class="node"><title>ExpEstl</title>
<polygon fill="none" stroke="black" points="1129,-252 1061,-252 1061,-216 1129,-216 1129,-252"/>
<text text-anchor="middle" x="1095" y="-230.4" font-family="Times Roman,serif" font-size="14.00">ExpEstl</text>
</g>
<!-- CalcEst&#45;&gt;ExpEstl -->
<g id="edge42" class="edge"><title>CalcEst&#45;&gt;ExpEstl</title>
<path fill="none" stroke="green" stroke-width="2" d="M1065.84,-287.831C1070.2,-279.792 1075.41,-270.167 1080.22,-261.292"/>
<polygon fill="green" stroke="green" points="1083.34,-262.873 1085.03,-252.413 1077.19,-259.539 1083.34,-262.873"/>
</g>
<!-- UnitconvEst -->
<g id="node51" class="node"><title>UnitconvEst</title>
<polygon fill="none" stroke="black" points="961,-252 861,-252 861,-216 961,-216 961,-252"/>
<text text-anchor="middle" x="911" y="-230.4" font-family="Times Roman,serif" font-size="14.00">UnitconvEst</text>
</g>
<!-- CalcEst&#45;&gt;UnitconvEst -->
<g id="edge44" class="edge"><title>CalcEst&#45;&gt;UnitconvEst</title>
<path fill="none" stroke="green" stroke-width="2" d="M1022.73,-289.482C1003.14,-279.753 978.08,-267.308 956.658,-256.671"/>
<polygon fill="green" stroke="green" points="957.93,-253.395 947.416,-252.083 954.816,-259.665 957.93,-253.395"/>
</g>
<!-- ActionApp -->
<g id="node11" class="node"><title>ActionApp</title>
<polygon fill="none" stroke="black" points="1374,-396 1288,-396 1288,-360 1374,-360 1374,-396"/>
<text text-anchor="middle" x="1331" y="-374.4" font-family="Times Roman,serif" font-size="14.00">ActionApp</text>
</g>
<!-- DirectionApp -->
<g id="node13" class="node"><title>DirectionApp</title>
<polygon fill="none" stroke="black" points="1331,-324 1225,-324 1225,-288 1331,-288 1331,-324"/>
<text text-anchor="middle" x="1278" y="-302.4" font-family="Times Roman,serif" font-size="14.00">DirectionApp</text>
</g>
<!-- ActionApp&#45;&gt;DirectionApp -->
<g id="edge10" class="edge"><title>ActionApp&#45;&gt;DirectionApp</title>
<path fill="none" stroke="green" stroke-width="2" d="M1317.63,-359.831C1311.58,-351.623 1304.32,-341.761 1297.68,-332.732"/>
<polygon fill="green" stroke="green" points="1300.3,-330.392 1291.55,-324.413 1294.66,-334.542 1300.3,-330.392"/>
</g>
<!-- CalcApp -->
<g id="node15" class="node"><title>CalcApp</title>
<polygon fill="none" stroke="black" points="1419,-324 1349,-324 1349,-288 1419,-288 1419,-324"/>
<text text-anchor="middle" x="1384" y="-302.4" font-family="Times Roman,serif" font-size="14.00">CalcApp</text>
</g>
<!-- ActionApp&#45;&gt;CalcApp -->
<g id="edge12" class="edge"><title>ActionApp&#45;&gt;CalcApp</title>
<path fill="none" stroke="green" stroke-width="2" d="M1344.37,-359.831C1350.42,-351.623 1357.68,-341.761 1364.32,-332.732"/>
<polygon fill="green" stroke="green" points="1367.34,-334.542 1370.45,-324.413 1361.7,-330.392 1367.34,-334.542"/>
</g>
<!-- AddressApp -->
<g id="node85" class="node"><title>AddressApp</title>
<polygon fill="none" stroke="black" points="1317,-180 1221,-180 1221,-144 1317,-144 1317,-180"/>
<text text-anchor="middle" x="1269" y="-158.4" font-family="Times Roman,serif" font-size="14.00">AddressApp</text>
</g>
<!-- DirectionApp&#45;&gt;AddressApp -->
<g id="edge112" class="edge"><title>DirectionApp&#45;&gt;AddressApp</title>
<path fill="none" stroke="green" stroke-width="2" d="M1276.86,-287.762C1275.33,-263.201 1272.58,-219.247 1270.77,-190.354"/>
<polygon fill="green" stroke="green" points="1274.25,-189.852 1270.13,-180.09 1267.26,-190.288 1274.25,-189.852"/>
</g>
<!-- ExpApp -->
<g id="node30" class="node"><title>ExpApp</title>
<polygon fill="none" stroke="black" points="1417,-252 1349,-252 1349,-216 1417,-216 1417,-252"/>
<text text-anchor="middle" x="1383" y="-230.4" font-family="Times Roman,serif" font-size="14.00">ExpApp</text>
</g>
<!-- CalcApp&#45;&gt;ExpApp -->
<g id="edge50" class="edge"><title>CalcApp&#45;&gt;ExpApp</title>
<path fill="none" stroke="green" stroke-width="2" d="M1383.75,-287.831C1383.64,-280.131 1383.51,-270.974 1383.39,-262.417"/>
<polygon fill="green" stroke="green" points="1386.89,-262.364 1383.26,-252.413 1379.9,-262.461 1386.89,-262.364"/>
</g>
<!-- UnitconvApp -->
<g id="node57" class="node"><title>UnitconvApp</title>
<polygon fill="none" stroke="black" points="1539,-252 1435,-252 1435,-216 1539,-216 1539,-252"/>
<text text-anchor="middle" x="1487" y="-230.4" font-family="Times Roman,serif" font-size="14.00">UnitconvApp</text>
</g>
<!-- CalcApp&#45;&gt;UnitconvApp -->
<g id="edge52" class="edge"><title>CalcApp&#45;&gt;UnitconvApp</title>
<path fill="none" stroke="green" stroke-width="2" d="M1409.99,-287.831C1422.92,-278.793 1438.72,-267.748 1452.64,-258.02"/>
<polygon fill="green" stroke="green" points="1454.83,-260.761 1461.02,-252.163 1450.82,-255.024 1454.83,-260.761"/>
</g>
<!-- DigitEst -->
<g id="node16" class="node"><title>DigitEst</title>
<polygon fill="none" stroke="black" points="2122,-108 2052,-108 2052,-72 2122,-72 2122,-108"/>
<text text-anchor="middle" x="2087" y="-86.4" font-family="Times Roman,serif" font-size="14.00">DigitEst</text>
</g>
<!-- _concrete_ -->
<g id="node18" class="node"><title>_concrete_</title>
<polygon fill="none" stroke="black" points="1721,-36 1631,-36 1631,-1.77636e-14 1721,-3.55271e-15 1721,-36"/>
<text text-anchor="middle" x="1676" y="-14.4" font-family="Times Roman,serif" font-size="14.00">_concrete_</text>
</g>
<!-- DigitEst&#45;&gt;_concrete_ -->
<g id="edge14" class="edge"><title>DigitEst&#45;&gt;_concrete_</title>
<path fill="none" stroke="green" stroke-width="2" d="M2051.71,-74.7059C2048.8,-73.7043 2045.87,-72.7845 2043,-72 1934.8,-42.3813 1803.94,-28.0687 1731.34,-21.9455"/>
<polygon fill="green" stroke="green" points="1731.32,-18.4317 1721.06,-21.1006 1730.74,-25.4081 1731.32,-18.4317"/>
</g>
<!-- DigitApp -->
<g id="node19" class="node"><title>DigitApp</title>
<polygon fill="none" stroke="black" points="2216,-108 2140,-108 2140,-72 2216,-72 2216,-108"/>
<text text-anchor="middle" x="2178" y="-86.4" font-family="Times Roman,serif" font-size="14.00">DigitApp</text>
</g>
<!-- DigitApp&#45;&gt;_concrete_ -->
<g id="edge16" class="edge"><title>DigitApp&#45;&gt;_concrete_</title>
<path fill="none" stroke="green" stroke-width="2" d="M2139.77,-74.4739C2136.83,-73.552 2133.88,-72.7118 2131,-72 1989.62,-37.1121 1817.78,-24.5072 1731.33,-20.1566"/>
<polygon fill="green" stroke="green" points="1731.38,-16.6548 1721.22,-19.666 1731.04,-23.6466 1731.38,-16.6548"/>
</g>
<!-- Digit -->
<g id="node21" class="node"><title>Digit</title>
<polygon fill="none" stroke="black" points="484,-108 430,-108 430,-72 484,-72 484,-108"/>
<text text-anchor="middle" x="457" y="-86.4" font-family="Times Roman,serif" font-size="14.00">Digit</text>
</g>
<!-- _abstract_ -->
<g id="node23" class="node"><title>_abstract_</title>
<polygon fill="none" stroke="black" points="416,-36 328,-36 328,-1.77636e-14 416,-3.55271e-15 416,-36"/>
<text text-anchor="middle" x="372" y="-14.4" font-family="Times Roman,serif" font-size="14.00">_abstract_</text>
</g>
<!-- Digit&#45;&gt;_abstract_ -->
<g id="edge18" class="edge"><title>Digit&#45;&gt;_abstract_</title>
<path fill="none" stroke="red" stroke-width="2" d="M435.551,-71.8314C425.182,-63.0485 412.577,-52.3712 401.335,-42.8489"/>
<polygon fill="red" stroke="red" points="403.335,-39.9556 393.442,-36.1628 398.81,-45.297 403.335,-39.9556"/>
</g>
<!-- LetterEst -->
<g id="node24" class="node"><title>LetterEst</title>
<polygon fill="none" stroke="black" points="1716,-108 1636,-108 1636,-72 1716,-72 1716,-108"/>
<text text-anchor="middle" x="1676" y="-86.4" font-family="Times Roman,serif" font-size="14.00">LetterEst</text>
</g>
<!-- LetterEst&#45;&gt;_concrete_ -->
<g id="edge20" class="edge"><title>LetterEst&#45;&gt;_concrete_</title>
<path fill="none" stroke="green" stroke-width="2" d="M1676,-71.8314C1676,-64.131 1676,-54.9743 1676,-46.4166"/>
<polygon fill="green" stroke="green" points="1679.5,-46.4132 1676,-36.4133 1672.5,-46.4133 1679.5,-46.4132"/>
</g>
<!-- Letter -->
<g id="node26" class="node"><title>Letter</title>
<polygon fill="none" stroke="black" points="560,-108 502,-108 502,-72 560,-72 560,-108"/>
<text text-anchor="middle" x="531" y="-86.4" font-family="Times Roman,serif" font-size="14.00">Letter</text>
</g>
<!-- Letter&#45;&gt;_abstract_ -->
<g id="edge22" class="edge"><title>Letter&#45;&gt;_abstract_</title>
<path fill="none" stroke="red" stroke-width="2" d="M501.986,-76.1736C498.956,-74.7546 495.918,-73.3421 493,-72 469.879,-61.3664 444.145,-49.8389 422.373,-40.1758"/>
<polygon fill="red" stroke="red" points="423.55,-36.8692 412.99,-36.0174 420.714,-43.2689 423.55,-36.8692"/>
</g>
<!-- LetterApp -->
<g id="node28" class="node"><title>LetterApp</title>
<polygon fill="none" stroke="black" points="2320,-108 2234,-108 2234,-72 2320,-72 2320,-108"/>
<text text-anchor="middle" x="2277" y="-86.4" font-family="Times Roman,serif" font-size="14.00">LetterApp</text>
</g>
<!-- LetterApp&#45;&gt;_concrete_ -->
<g id="edge24" class="edge"><title>LetterApp&#45;&gt;_concrete_</title>
<path fill="none" stroke="green" stroke-width="2" d="M2233.81,-74.1965C2230.85,-73.3779 2227.89,-72.6337 2225,-72 2047.22,-33.0579 1830.88,-22.1748 1731.17,-19.1517"/>
<polygon fill="green" stroke="green" points="1731.13,-15.6491 1721.03,-18.8594 1730.93,-22.6462 1731.13,-15.6491"/>
</g>
<!-- FractionApp -->
<g id="node32" class="node"><title>FractionApp</title>
<polygon fill="none" stroke="black" points="1433,-180 1335,-180 1335,-144 1433,-144 1433,-180"/>
<text text-anchor="middle" x="1384" y="-158.4" font-family="Times Roman,serif" font-size="14.00">FractionApp</text>
</g>
<!-- ExpApp&#45;&gt;FractionApp -->
<g id="edge26" class="edge"><title>ExpApp&#45;&gt;FractionApp</title>
<path fill="none" stroke="green" stroke-width="2" d="M1383.25,-215.831C1383.36,-208.131 1383.49,-198.974 1383.61,-190.417"/>
<polygon fill="green" stroke="green" points="1387.1,-190.461 1383.74,-180.413 1380.11,-190.364 1387.1,-190.461"/>
</g>
<!-- decimal -->
<g id="node64" class="node"><title>decimal</title>
<polygon fill="none" stroke="black" points="1394,-108 1326,-108 1326,-72 1394,-72 1394,-108"/>
<text text-anchor="middle" x="1360" y="-86.4" font-family="Times Roman,serif" font-size="14.00">decimal</text>
</g>
<!-- FractionApp&#45;&gt;decimal -->
<g id="edge94" class="edge"><title>FractionApp&#45;&gt;decimal</title>
<path fill="none" stroke="green" stroke-width="2" d="M1377.94,-143.831C1375.35,-136.046 1372.26,-126.773 1369.38,-118.135"/>
<polygon fill="green" stroke="green" points="1372.62,-116.793 1366.14,-108.413 1365.98,-119.007 1372.62,-116.793"/>
</g>
<!-- Fraction -->
<g id="node35" class="node"><title>Fraction</title>
<polygon fill="none" stroke="black" points="235,-180 163,-180 163,-144 235,-144 235,-180"/>
<text text-anchor="middle" x="199" y="-158.4" font-family="Times Roman,serif" font-size="14.00">Fraction</text>
</g>
<!-- Exp&#45;&gt;Fraction -->
<g id="edge28" class="edge"><title>Exp&#45;&gt;Fraction</title>
<path fill="none" stroke="red" stroke-width="2" d="M196.757,-215.831C197.078,-208.131 197.459,-198.974 197.816,-190.417"/>
<polygon fill="red" stroke="red" points="201.313,-190.55 198.233,-180.413 194.319,-190.259 201.313,-190.55"/>
</g>
<!-- Numerals -->
<g id="node60" class="node"><title>Numerals</title>
<polygon fill="none" stroke="black" points="240,-108 158,-108 158,-72 240,-72 240,-108"/>
<text text-anchor="middle" x="199" y="-86.4" font-family="Times Roman,serif" font-size="14.00">Numerals</text>
</g>
<!-- Fraction&#45;&gt;Numerals -->
<g id="edge96" class="edge"><title>Fraction&#45;&gt;Numerals</title>
<path fill="none" stroke="red" stroke-width="2" d="M199,-143.831C199,-136.131 199,-126.974 199,-118.417"/>
<polygon fill="red" stroke="red" points="202.5,-118.413 199,-108.413 195.5,-118.413 202.5,-118.413"/>
</g>
<!-- ExpEst -->
<g id="node36" class="node"><title>ExpEst</title>
<polygon fill="none" stroke="black" points="1043,-252 979,-252 979,-216 1043,-216 1043,-252"/>
<text text-anchor="middle" x="1011" y="-230.4" font-family="Times Roman,serif" font-size="14.00">ExpEst</text>
</g>
<!-- FractionEst -->
<g id="node38" class="node"><title>FractionEst</title>
<polygon fill="none" stroke="black" points="1076,-180 982,-180 982,-144 1076,-144 1076,-180"/>
<text text-anchor="middle" x="1029" y="-158.4" font-family="Times Roman,serif" font-size="14.00">FractionEst</text>
</g>
<!-- ExpEst&#45;&gt;FractionEst -->
<g id="edge30" class="edge"><title>ExpEst&#45;&gt;FractionEst</title>
<path fill="none" stroke="green" stroke-width="2" d="M1015.54,-215.831C1017.49,-208.046 1019.81,-198.773 1021.97,-190.135"/>
<polygon fill="green" stroke="green" points="1025.37,-190.964 1024.4,-180.413 1018.58,-189.266 1025.37,-190.964"/>
</g>
<!-- estonian -->
<g id="node62" class="node"><title>estonian</title>
<polygon fill="none" stroke="black" points="1108,-108 1032,-108 1032,-72 1108,-72 1108,-108"/>
<text text-anchor="middle" x="1070" y="-86.4" font-family="Times Roman,serif" font-size="14.00">estonian</text>
</g>
<!-- FractionEst&#45;&gt;estonian -->
<g id="edge92" class="edge"><title>FractionEst&#45;&gt;estonian</title>
<path fill="none" stroke="green" stroke-width="2" d="M1039.35,-143.831C1043.92,-135.792 1049.41,-126.167 1054.46,-117.292"/>
<polygon fill="green" stroke="green" points="1057.61,-118.835 1059.51,-108.413 1051.52,-115.371 1057.61,-118.835"/>
</g>
<!-- ExpEstl&#45;&gt;FractionEst -->
<g id="edge32" class="edge"><title>ExpEstl&#45;&gt;FractionEst</title>
<path fill="none" stroke="green" stroke-width="2" d="M1078.35,-215.831C1070.59,-207.369 1061.22,-197.149 1052.74,-187.897"/>
<polygon fill="green" stroke="green" points="1055.22,-185.42 1045.88,-180.413 1050.06,-190.15 1055.22,-185.42"/>
</g>
<!-- Go -->
<g id="node41" class="node"><title>Go</title>
<polygon fill="none" stroke="black" points="632,-108 578,-108 578,-72 632,-72 632,-108"/>
<text text-anchor="middle" x="605" y="-86.4" font-family="Times Roman,serif" font-size="14.00">Go</text>
</g>
<!-- Go&#45;&gt;_abstract_ -->
<g id="edge34" class="edge"><title>Go&#45;&gt;_abstract_</title>
<path fill="none" stroke="red" stroke-width="2" d="M577.732,-75.6739C574.819,-74.3523 571.871,-73.0992 569,-72 521.828,-53.9425 466.166,-39.2628 426.063,-29.792"/>
<polygon fill="red" stroke="red" points="426.75,-26.3585 416.217,-27.4974 425.161,-33.1758 426.75,-26.3585"/>
</g>
<!-- GoEst -->
<g id="node43" class="node"><title>GoEst</title>
<polygon fill="none" stroke="black" points="1792,-108 1734,-108 1734,-72 1792,-72 1792,-108"/>
<text text-anchor="middle" x="1763" y="-86.4" font-family="Times Roman,serif" font-size="14.00">GoEst</text>
</g>
<!-- GoEst&#45;&gt;_concrete_ -->
<g id="edge36" class="edge"><title>GoEst&#45;&gt;_concrete_</title>
<path fill="none" stroke="green" stroke-width="2" d="M1741.05,-71.8314C1730.33,-62.9632 1717.28,-52.1637 1705.69,-42.5718"/>
<polygon fill="green" stroke="green" points="1707.88,-39.8422 1697.95,-36.1628 1703.42,-45.2349 1707.88,-39.8422"/>
</g>
<!-- GoApp -->
<g id="node45" class="node"><title>GoApp</title>
<polygon fill="none" stroke="black" points="1872,-108 1810,-108 1810,-72 1872,-72 1872,-108"/>
<text text-anchor="middle" x="1841" y="-86.4" font-family="Times Roman,serif" font-size="14.00">GoApp</text>
</g>
<!-- GoApp&#45;&gt;_concrete_ -->
<g id="edge38" class="edge"><title>GoApp&#45;&gt;_concrete_</title>
<path fill="none" stroke="green" stroke-width="2" d="M1809.58,-75.8059C1806.68,-74.5135 1803.79,-73.229 1801,-72 1776.96,-61.4006 1750.24,-49.8282 1727.69,-40.1247"/>
<polygon fill="green" stroke="green" points="1728.88,-36.8231 1718.31,-36.0887 1726.11,-43.2539 1728.88,-36.8231"/>
</g>
<!-- GoEng -->
<g id="node47" class="node"><title>GoEng</title>
<polygon fill="none" stroke="black" points="1952,-108 1890,-108 1890,-72 1952,-72 1952,-108"/>
<text text-anchor="middle" x="1921" y="-86.4" font-family="Times Roman,serif" font-size="14.00">GoEng</text>
</g>
<!-- GoEng&#45;&gt;_concrete_ -->
<g id="edge40" class="edge"><title>GoEng&#45;&gt;_concrete_</title>
<path fill="none" stroke="green" stroke-width="2" d="M1889.76,-75.3519C1886.82,-74.1547 1883.87,-73.0164 1881,-72 1831.16,-54.3577 1772.7,-39.5112 1730.99,-29.8783"/>
<polygon fill="green" stroke="green" points="1731.56,-26.4177 1721.03,-27.6032 1730,-33.242 1731.56,-26.4177"/>
</g>
<!-- UnitconvEst&#45;&gt;FractionEst -->
<g id="edge154" class="edge"><title>UnitconvEst&#45;&gt;FractionEst</title>
<path fill="none" stroke="green" stroke-width="2" d="M940.776,-215.831C955.869,-206.622 974.376,-195.33 990.534,-185.471"/>
<polygon fill="green" stroke="green" points="992.52,-188.359 999.233,-180.163 988.874,-182.384 992.52,-188.359"/>
</g>
<!-- UnitEst -->
<g id="node114" class="node"><title>UnitEst</title>
<polygon fill="none" stroke="black" points="945,-180 877,-180 877,-144 945,-144 945,-180"/>
<text text-anchor="middle" x="911" y="-158.4" font-family="Times Roman,serif" font-size="14.00">UnitEst</text>
</g>
<!-- UnitconvEst&#45;&gt;UnitEst -->
<g id="edge156" class="edge"><title>UnitconvEst&#45;&gt;UnitEst</title>
<path fill="none" stroke="green" stroke-width="2" d="M911,-215.831C911,-208.131 911,-198.974 911,-190.417"/>
<polygon fill="green" stroke="green" points="914.5,-190.413 911,-180.413 907.5,-190.413 914.5,-190.413"/>
</g>
<!-- Unitconv&#45;&gt;Fraction -->
<g id="edge132" class="edge"><title>Unitconv&#45;&gt;Fraction</title>
<path fill="none" stroke="red" stroke-width="2" d="M259.56,-215.831C249.68,-207.048 237.668,-196.371 226.955,-186.849"/>
<polygon fill="red" stroke="red" points="229.233,-184.191 219.433,-180.163 224.582,-189.422 229.233,-184.191"/>
</g>
<!-- Unit -->
<g id="node120" class="node"><title>Unit</title>
<polygon fill="none" stroke="black" points="313,-180 259,-180 259,-144 313,-144 313,-180"/>
<text text-anchor="middle" x="286" y="-158.4" font-family="Times Roman,serif" font-size="14.00">Unit</text>
</g>
<!-- Unitconv&#45;&gt;Unit -->
<g id="edge134" class="edge"><title>Unitconv&#45;&gt;Unit</title>
<path fill="none" stroke="red" stroke-width="2" d="M281.514,-215.831C282.156,-208.131 282.919,-198.974 283.632,-190.417"/>
<polygon fill="red" stroke="red" points="287.123,-190.669 284.466,-180.413 280.147,-190.088 287.123,-190.669"/>
</g>
<!-- UnitconvApp&#45;&gt;FractionApp -->
<g id="edge148" class="edge"><title>UnitconvApp&#45;&gt;FractionApp</title>
<path fill="none" stroke="green" stroke-width="2" d="M1461.01,-215.831C1448.08,-206.793 1432.28,-195.748 1418.36,-186.02"/>
<polygon fill="green" stroke="green" points="1420.18,-183.024 1409.98,-180.163 1416.17,-188.761 1420.18,-183.024"/>
</g>
<!-- UnitApp -->
<g id="node126" class="node"><title>UnitApp</title>
<polygon fill="none" stroke="black" points="1523,-180 1451,-180 1451,-144 1523,-144 1523,-180"/>
<text text-anchor="middle" x="1487" y="-158.4" font-family="Times Roman,serif" font-size="14.00">UnitApp</text>
</g>
<!-- UnitconvApp&#45;&gt;UnitApp -->
<g id="edge150" class="edge"><title>UnitconvApp&#45;&gt;UnitApp</title>
<path fill="none" stroke="green" stroke-width="2" d="M1487,-215.831C1487,-208.131 1487,-198.974 1487,-190.417"/>
<polygon fill="green" stroke="green" points="1490.5,-190.413 1487,-180.413 1483.5,-190.413 1490.5,-190.413"/>
</g>
<!-- english -->
<g id="node58" class="node"><title>english</title>
<polygon fill="none" stroke="black" points="2034,-108 1970,-108 1970,-72 2034,-72 2034,-108"/>
<text text-anchor="middle" x="2002" y="-86.4" font-family="Times Roman,serif" font-size="14.00">english</text>
</g>
<!-- english&#45;&gt;_concrete_ -->
<g id="edge54" class="edge"><title>english&#45;&gt;_concrete_</title>
<path fill="none" stroke="green" stroke-width="2" d="M1969.58,-74.9741C1966.71,-73.8857 1963.82,-72.8743 1961,-72 1882.95,-47.8156 1789.35,-32.595 1731.26,-24.6909"/>
<polygon fill="green" stroke="green" points="1731.57,-21.201 1721.19,-23.3459 1730.64,-28.1394 1731.57,-21.201"/>
</g>
<!-- Numerals&#45;&gt;_abstract_ -->
<g id="edge56" class="edge"><title>Numerals&#45;&gt;_abstract_</title>
<path fill="none" stroke="red" stroke-width="2" d="M236.703,-71.8314C260.652,-61.4426 291.934,-48.4035 318.422,-37.7602"/>
<polygon fill="red" stroke="red" points="319.954,-40.9173 327.942,-33.9568 317.357,-34.4169 319.954,-40.9173"/>
</g>
<!-- Numerals&#45;&gt;_abstract_ -->
<g id="edge116" class="edge"><title>Numerals&#45;&gt;_abstract_</title>
<path fill="none" stroke="red" stroke-width="2" d="M240.438,-75.0816C265.939,-64.9932 298.604,-51.4946 325.047,-40.157"/>
<polygon fill="red" stroke="red" points="326.686,-43.2617 334.483,-36.088 323.914,-36.8339 326.686,-43.2617"/>
</g>
<!-- estonian&#45;&gt;_concrete_ -->
<g id="edge58" class="edge"><title>estonian&#45;&gt;_concrete_</title>
<path fill="none" stroke="green" stroke-width="2" d="M1107.74,-72.0604C1107.83,-72.0401 1107.91,-72.02 1108,-72 1204.01,-49.4167 1497.39,-28.8022 1620.67,-21.1491"/>
<polygon fill="green" stroke="green" points="1620.88,-24.6423 1630.65,-20.5346 1620.45,-17.6555 1620.88,-24.6423"/>
</g>
<!-- estonian&#45;&gt;_concrete_ -->
<g id="edge118" class="edge"><title>estonian&#45;&gt;_concrete_</title>
<path fill="none" stroke="green" stroke-width="2" d="M1108.03,-77.4279C1114.01,-75.3245 1120.13,-73.3805 1126,-72 1219.61,-49.9817 1500.83,-29.8349 1620.87,-21.7477"/>
<polygon fill="green" stroke="green" points="1621.2,-25.2333 1630.94,-21.0715 1620.73,-18.249 1621.2,-25.2333"/>
</g>
<!-- decimal&#45;&gt;_concrete_ -->
<g id="edge60" class="edge"><title>decimal&#45;&gt;_concrete_</title>
<path fill="none" stroke="green" stroke-width="2" d="M1393.53,-72.1427C1393.69,-72.0947 1393.85,-72.0472 1394,-72 1435.13,-59.4632 1551.04,-38.2543 1620.89,-26.4935"/>
<polygon fill="green" stroke="green" points="1621.56,-29.9301 1630.84,-24.829 1620.4,-23.0259 1621.56,-29.9301"/>
</g>
<!-- decimal&#45;&gt;_concrete_ -->
<g id="edge120" class="edge"><title>decimal&#45;&gt;_concrete_</title>
<path fill="none" stroke="green" stroke-width="2" d="M1394.39,-78.2902C1400.26,-75.9868 1406.27,-73.7461 1412,-72 1450.66,-60.2165 1555.38,-40.772 1620.8,-28.7121"/>
<polygon fill="green" stroke="green" points="1621.75,-32.0969 1630.95,-26.8423 1620.48,-25.2128 1621.75,-32.0969"/>
</g>
<!-- Address&#45;&gt;Numerals -->
<g id="edge66" class="edge"><title>Address&#45;&gt;Numerals</title>
<path fill="none" stroke="red" stroke-width="2" d="M130.963,-143.831C142.172,-134.963 155.821,-124.164 167.944,-114.572"/>
<polygon fill="red" stroke="red" points="170.374,-117.112 176.044,-108.163 166.03,-111.623 170.374,-117.112"/>
</g>
<!-- Town -->
<g id="node68" class="node"><title>Town</title>
<polygon fill="none" stroke="black" points="54,-108 2.13163e-14,-108 0,-72 54,-72 54,-108"/>
<text text-anchor="middle" x="27" y="-86.4" font-family="Times Roman,serif" font-size="14.00">Town</text>
</g>
<!-- Address&#45;&gt;Town -->
<g id="edge62" class="edge"><title>Address&#45;&gt;Town</title>
<path fill="none" stroke="red" stroke-width="2" d="M87.5603,-143.831C77.6795,-135.048 65.6676,-124.371 54.955,-114.849"/>
<polygon fill="red" stroke="red" points="57.2326,-112.191 47.4332,-108.163 52.582,-117.422 57.2326,-112.191"/>
</g>
<!-- StreetF -->
<g id="node70" class="node"><title>StreetF</title>
<polygon fill="none" stroke="black" points="140,-108 72,-108 72,-72 140,-72 140,-108"/>
<text text-anchor="middle" x="106" y="-86.4" font-family="Times Roman,serif" font-size="14.00">StreetF</text>
</g>
<!-- Address&#45;&gt;StreetF -->
<g id="edge64" class="edge"><title>Address&#45;&gt;StreetF</title>
<path fill="none" stroke="red" stroke-width="2" d="M107.495,-143.831C107.281,-136.131 107.027,-126.974 106.789,-118.417"/>
<polygon fill="red" stroke="red" points="110.288,-118.312 106.511,-108.413 103.291,-118.507 110.288,-118.312"/>
</g>
<!-- Town&#45;&gt;_abstract_ -->
<g id="edge90" class="edge"><title>Town&#45;&gt;_abstract_</title>
<path fill="none" stroke="red" stroke-width="2" d="M54.1674,-75.3922C57.1001,-74.1255 60.0799,-72.9623 63,-72 149.599,-43.4625 255.096,-29.1551 317.729,-22.671"/>
<polygon fill="red" stroke="red" points="318.181,-26.1433 327.78,-21.6597 317.48,-19.1784 318.181,-26.1433"/>
</g>
<!-- StreetF&#45;&gt;_abstract_ -->
<g id="edge78" class="edge"><title>StreetF&#45;&gt;_abstract_</title>
<path fill="none" stroke="red" stroke-width="2" d="M140.082,-75.1576C143.076,-74.0293 146.078,-72.9587 149,-72 205.653,-53.4137 272.292,-38.1014 317.872,-28.5884"/>
<polygon fill="red" stroke="red" points="318.753,-31.9804 327.839,-26.5306 317.338,-25.1249 318.753,-31.9804"/>
</g>
<!-- Street -->
<g id="node72" class="node"><title>Street</title>
<polygon fill="none" stroke="black" points="710,-108 650,-108 650,-72 710,-72 710,-108"/>
<text text-anchor="middle" x="680" y="-86.4" font-family="Times Roman,serif" font-size="14.00">Street</text>
</g>
<!-- Street&#45;&gt;_abstract_ -->
<g id="edge68" class="edge"><title>Street&#45;&gt;_abstract_</title>
<path fill="none" stroke="red" stroke-width="2" d="M649.616,-75.1563C646.738,-74.0002 643.836,-72.9249 641,-72 568.463,-48.3431 481.387,-33.1496 426.363,-25.09"/>
<polygon fill="red" stroke="red" points="426.533,-21.5785 416.136,-23.6202 425.537,-28.5073 426.533,-21.5785"/>
</g>
<!-- StreetEst -->
<g id="node74" class="node"><title>StreetEst</title>
<polygon fill="none" stroke="black" points="2420,-108 2338,-108 2338,-72 2420,-72 2420,-108"/>
<text text-anchor="middle" x="2379" y="-86.4" font-family="Times Roman,serif" font-size="14.00">StreetEst</text>
</g>
<!-- StreetEst&#45;&gt;_concrete_ -->
<g id="edge70" class="edge"><title>StreetEst&#45;&gt;_concrete_</title>
<path fill="none" stroke="green" stroke-width="2" d="M2337.77,-74.2137C2334.83,-73.3786 2331.88,-72.6271 2329,-72 2215.52,-47.3332 1867.66,-27.6627 1731.49,-20.7099"/>
<polygon fill="green" stroke="green" points="1731.45,-17.2035 1721.28,-20.1926 1731.09,-24.1945 1731.45,-17.2035"/>
</g>
<!-- AddressEst&#45;&gt;estonian -->
<g id="edge76" class="edge"><title>AddressEst&#45;&gt;estonian</title>
<path fill="none" stroke="green" stroke-width="2" d="M1135.05,-143.831C1124.33,-134.963 1111.28,-124.164 1099.69,-114.572"/>
<polygon fill="green" stroke="green" points="1101.88,-111.842 1091.95,-108.163 1097.42,-117.235 1101.88,-111.842"/>
</g>
<!-- TownEst -->
<g id="node78" class="node"><title>TownEst</title>
<polygon fill="none" stroke="black" points="1200,-108 1126,-108 1126,-72 1200,-72 1200,-108"/>
<text text-anchor="middle" x="1163" y="-86.4" font-family="Times Roman,serif" font-size="14.00">TownEst</text>
</g>
<!-- AddressEst&#45;&gt;TownEst -->
<g id="edge72" class="edge"><title>AddressEst&#45;&gt;TownEst</title>
<path fill="none" stroke="green" stroke-width="2" d="M1158.51,-143.831C1159.16,-136.131 1159.92,-126.974 1160.63,-118.417"/>
<polygon fill="green" stroke="green" points="1164.12,-118.669 1161.47,-108.413 1157.15,-118.088 1164.12,-118.669"/>
</g>
<!-- StreetFEst -->
<g id="node80" class="node"><title>StreetFEst</title>
<polygon fill="none" stroke="black" points="1308,-108 1218,-108 1218,-72 1308,-72 1308,-108"/>
<text text-anchor="middle" x="1263" y="-86.4" font-family="Times Roman,serif" font-size="14.00">StreetFEst</text>
</g>
<!-- AddressEst&#45;&gt;StreetFEst -->
<g id="edge74" class="edge"><title>AddressEst&#45;&gt;StreetFEst</title>
<path fill="none" stroke="green" stroke-width="2" d="M1183.75,-143.831C1197.06,-134.793 1213.32,-123.748 1227.64,-114.02"/>
<polygon fill="green" stroke="green" points="1229.95,-116.677 1236.26,-108.163 1226.02,-110.886 1229.95,-116.677"/>
</g>
<!-- TownEst&#45;&gt;_concrete_ -->
<g id="edge80" class="edge"><title>TownEst&#45;&gt;_concrete_</title>
<path fill="none" stroke="green" stroke-width="2" d="M1200.14,-74.5389C1203.11,-73.5887 1206.09,-72.7253 1209,-72 1354.89,-35.6713 1532.62,-23.6646 1620.84,-19.7874"/>
<polygon fill="green" stroke="green" points="1621.04,-23.2819 1630.89,-19.3641 1620.75,-16.2881 1621.04,-23.2819"/>
</g>
<!-- StreetFEst&#45;&gt;_concrete_ -->
<g id="edge82" class="edge"><title>StreetFEst&#45;&gt;_concrete_</title>
<path fill="none" stroke="green" stroke-width="2" d="M1308.21,-74.3011C1311.17,-73.4687 1314.12,-72.6918 1317,-72 1423.02,-46.5569 1549.69,-30.8417 1620.68,-23.3254"/>
<polygon fill="green" stroke="green" points="1621.16,-26.7945 1630.75,-22.2758 1620.44,-19.8323 1621.16,-26.7945"/>
</g>
<!-- AddressApp&#45;&gt;decimal -->
<g id="edge88" class="edge"><title>AddressApp&#45;&gt;decimal</title>
<path fill="none" stroke="green" stroke-width="2" d="M1291.96,-143.831C1303.17,-134.963 1316.82,-124.164 1328.94,-114.572"/>
<polygon fill="green" stroke="green" points="1331.37,-117.112 1337.04,-108.163 1327.03,-111.623 1331.37,-117.112"/>
</g>
<!-- AddressApp&#45;&gt;TownEst -->
<g id="edge84" class="edge"><title>AddressApp&#45;&gt;TownEst</title>
<path fill="none" stroke="green" stroke-width="2" d="M1242.25,-143.831C1228.94,-134.793 1212.68,-123.748 1198.36,-114.02"/>
<polygon fill="green" stroke="green" points="1199.98,-110.886 1189.74,-108.163 1196.05,-116.677 1199.98,-110.886"/>
</g>
<!-- AddressApp&#45;&gt;StreetFEst -->
<g id="edge86" class="edge"><title>AddressApp&#45;&gt;StreetFEst</title>
<path fill="none" stroke="green" stroke-width="2" d="M1267.49,-143.831C1266.84,-136.131 1266.08,-126.974 1265.37,-118.417"/>
<polygon fill="green" stroke="green" points="1268.85,-118.088 1264.53,-108.413 1261.88,-118.669 1268.85,-118.088"/>
</g>
<!-- EstvrpEst -->
<g id="node93" class="node"><title>EstvrpEst</title>
<polygon fill="none" stroke="black" points="1922,-180 1840,-180 1840,-144 1922,-144 1922,-180"/>
<text text-anchor="middle" x="1881" y="-158.4" font-family="Times Roman,serif" font-size="14.00">EstvrpEst</text>
</g>
<!-- EstvrpEst&#45;&gt;DigitEst -->
<g id="edge98" class="edge"><title>EstvrpEst&#45;&gt;DigitEst</title>
<path fill="none" stroke="green" stroke-width="2" d="M1922.21,-149.1C1952.99,-139.277 1996.26,-125.075 2042.04,-108.257"/>
<polygon fill="green" stroke="green" points="2043.37,-111.496 2051.54,-104.744 2040.94,-104.931 2043.37,-111.496"/>
</g>
<!-- EstvrpEst&#45;&gt;LetterEst -->
<g id="edge100" class="edge"><title>EstvrpEst&#45;&gt;LetterEst</title>
<path fill="none" stroke="green" stroke-width="2" d="M1839.87,-147.998C1810.46,-137.935 1769.72,-123.885 1725.56,-108.173"/>
<polygon fill="green" stroke="green" points="1726.68,-104.858 1716.09,-104.796 1724.33,-111.451 1726.68,-104.858"/>
</g>
<!-- Estvrp -->
<g id="node96" class="node"><title>Estvrp</title>
<polygon fill="none" stroke="black" points="524,-180 464,-180 464,-144 524,-144 524,-180"/>
<text text-anchor="middle" x="494" y="-158.4" font-family="Times Roman,serif" font-size="14.00">Estvrp</text>
</g>
<!-- Estvrp&#45;&gt;Digit -->
<g id="edge102" class="edge"><title>Estvrp&#45;&gt;Digit</title>
<path fill="none" stroke="red" stroke-width="2" d="M484.663,-143.831C480.576,-135.877 475.69,-126.369 471.169,-117.572"/>
<polygon fill="red" stroke="red" points="474.146,-115.708 466.462,-108.413 467.92,-118.907 474.146,-115.708"/>
</g>
<!-- Estvrp&#45;&gt;Letter -->
<g id="edge104" class="edge"><title>Estvrp&#45;&gt;Letter</title>
<path fill="none" stroke="red" stroke-width="2" d="M503.337,-143.831C507.424,-135.877 512.31,-126.369 516.831,-117.572"/>
<polygon fill="red" stroke="red" points="520.08,-118.907 521.538,-108.413 513.854,-115.708 520.08,-118.907"/>
</g>
<!-- EstvrpApp -->
<g id="node99" class="node"><title>EstvrpApp</title>
<polygon fill="none" stroke="black" points="2270,-180 2184,-180 2184,-144 2270,-144 2270,-180"/>
<text text-anchor="middle" x="2227" y="-158.4" font-family="Times Roman,serif" font-size="14.00">EstvrpApp</text>
</g>
<!-- EstvrpApp&#45;&gt;DigitApp -->
<g id="edge106" class="edge"><title>EstvrpApp&#45;&gt;DigitApp</title>
<path fill="none" stroke="green" stroke-width="2" d="M2214.64,-143.831C2209.05,-135.623 2202.34,-125.761 2196.19,-116.732"/>
<polygon fill="green" stroke="green" points="2199.05,-114.711 2190.53,-108.413 2193.26,-118.65 2199.05,-114.711"/>
</g>
<!-- EstvrpApp&#45;&gt;LetterApp -->
<g id="edge108" class="edge"><title>EstvrpApp&#45;&gt;LetterApp</title>
<path fill="none" stroke="green" stroke-width="2" d="M2239.62,-143.831C2245.32,-135.623 2252.17,-125.761 2258.44,-116.732"/>
<polygon fill="green" stroke="green" points="2261.38,-118.623 2264.21,-108.413 2255.63,-114.631 2261.38,-118.623"/>
</g>
<!-- CurrencyApp -->
<g id="node108" class="node"><title>CurrencyApp</title>
<polygon fill="none" stroke="black" points="1618,-108 1512,-108 1512,-72 1618,-72 1618,-108"/>
<text text-anchor="middle" x="1565" y="-86.4" font-family="Times Roman,serif" font-size="14.00">CurrencyApp</text>
</g>
<!-- CurrencyApp&#45;&gt;_concrete_ -->
<g id="edge122" class="edge"><title>CurrencyApp&#45;&gt;_concrete_</title>
<path fill="none" stroke="green" stroke-width="2" d="M1593.01,-71.8314C1607.08,-62.7074 1624.29,-51.539 1639.39,-41.7449"/>
<polygon fill="green" stroke="green" points="1641.51,-44.5412 1648,-36.1628 1637.7,-38.6684 1641.51,-44.5412"/>
</g>
<!-- Prefix -->
<g id="node110" class="node"><title>Prefix</title>
<polygon fill="none" stroke="black" points="314,-108 258,-108 258,-72 314,-72 314,-108"/>
<text text-anchor="middle" x="286" y="-86.4" font-family="Times Roman,serif" font-size="14.00">Prefix</text>
</g>
<!-- Prefix&#45;&gt;_abstract_ -->
<g id="edge124" class="edge"><title>Prefix&#45;&gt;_abstract_</title>
<path fill="none" stroke="red" stroke-width="2" d="M307.701,-71.8314C318.192,-63.0485 330.946,-52.3712 342.319,-42.8489"/>
<polygon fill="red" stroke="red" points="344.885,-45.2659 350.306,-36.1628 340.391,-39.8986 344.885,-45.2659"/>
</g>
<!-- CurrencyEst -->
<g id="node112" class="node"><title>CurrencyEst</title>
<polygon fill="none" stroke="black" points="918,-108 818,-108 818,-72 918,-72 918,-108"/>
<text text-anchor="middle" x="868" y="-86.4" font-family="Times Roman,serif" font-size="14.00">CurrencyEst</text>
</g>
<!-- CurrencyEst&#45;&gt;_concrete_ -->
<g id="edge126" class="edge"><title>CurrencyEst&#45;&gt;_concrete_</title>
<path fill="none" stroke="green" stroke-width="2" d="M918.022,-73.9047C921.043,-73.1928 924.052,-72.5488 927,-72 1060.15,-47.2149 1470.51,-27.0924 1620.43,-20.3892"/>
<polygon fill="green" stroke="green" points="1620.93,-23.8704 1630.76,-19.9299 1620.62,-16.8773 1620.93,-23.8704"/>
</g>
<!-- UnitEst&#45;&gt;CurrencyEst -->
<g id="edge130" class="edge"><title>UnitEst&#45;&gt;CurrencyEst</title>
<path fill="none" stroke="green" stroke-width="2" d="M900.149,-143.831C895.298,-135.708 889.478,-125.964 884.132,-117.012"/>
<polygon fill="green" stroke="green" points="887.129,-115.204 878.997,-108.413 881.119,-118.793 887.129,-115.204"/>
</g>
<!-- PrefixEst -->
<g id="node116" class="node"><title>PrefixEst</title>
<polygon fill="none" stroke="black" points="1014,-108 936,-108 936,-72 1014,-72 1014,-108"/>
<text text-anchor="middle" x="975" y="-86.4" font-family="Times Roman,serif" font-size="14.00">PrefixEst</text>
</g>
<!-- UnitEst&#45;&gt;PrefixEst -->
<g id="edge128" class="edge"><title>UnitEst&#45;&gt;PrefixEst</title>
<path fill="none" stroke="green" stroke-width="2" d="M927.15,-143.831C934.672,-135.369 943.757,-125.149 951.98,-115.897"/>
<polygon fill="green" stroke="green" points="954.605,-118.213 958.633,-108.413 949.373,-113.562 954.605,-118.213"/>
</g>
<!-- PrefixEst&#45;&gt;_concrete_ -->
<g id="edge136" class="edge"><title>PrefixEst&#45;&gt;_concrete_</title>
<path fill="none" stroke="green" stroke-width="2" d="M1014.02,-74.3622C1017.03,-73.4661 1020.05,-72.6623 1023,-72 1136.32,-46.5839 1484.27,-27.3593 1620.49,-20.6178"/>
<polygon fill="green" stroke="green" points="1620.88,-24.1029 1630.7,-20.1165 1620.54,-17.1113 1620.88,-24.1029"/>
</g>
<!-- Unit&#45;&gt;Prefix -->
<g id="edge158" class="edge"><title>Unit&#45;&gt;Prefix</title>
<path fill="none" stroke="red" stroke-width="2" d="M286,-143.831C286,-136.131 286,-126.974 286,-118.417"/>
<polygon fill="red" stroke="red" points="289.5,-118.413 286,-108.413 282.5,-118.413 289.5,-118.413"/>
</g>
<!-- Currency -->
<g id="node133" class="node"><title>Currency</title>
<polygon fill="none" stroke="black" points="412,-108 332,-108 332,-72 412,-72 412,-108"/>
<text text-anchor="middle" x="372" y="-86.4" font-family="Times Roman,serif" font-size="14.00">Currency</text>
</g>
<!-- Unit&#45;&gt;Currency -->
<g id="edge160" class="edge"><title>Unit&#45;&gt;Currency</title>
<path fill="none" stroke="red" stroke-width="2" d="M307.701,-143.831C318.192,-135.048 330.946,-124.371 342.319,-114.849"/>
<polygon fill="red" stroke="red" points="344.885,-117.266 350.306,-108.163 340.391,-111.899 344.885,-117.266"/>
</g>
<!-- CountryApp -->
<g id="node122" class="node"><title>CountryApp</title>
<polygon fill="none" stroke="black" points="2536,-108 2438,-108 2438,-72 2536,-72 2536,-108"/>
<text text-anchor="middle" x="2487" y="-86.4" font-family="Times Roman,serif" font-size="14.00">CountryApp</text>
</g>
<!-- CountryApp&#45;&gt;_concrete_ -->
<g id="edge138" class="edge"><title>CountryApp&#45;&gt;_concrete_</title>
<path fill="none" stroke="green" stroke-width="2" d="M2437.83,-73.8998C2434.86,-73.1891 2431.9,-72.5467 2429,-72 2295.2,-46.7872 1882.61,-26.9312 1731.88,-20.3436"/>
<polygon fill="green" stroke="green" points="1731.63,-16.8296 1721.48,-19.8924 1731.32,-23.823 1731.63,-16.8296"/>
</g>
<!-- PrefixApp -->
<g id="node124" class="node"><title>PrefixApp</title>
<polygon fill="none" stroke="black" points="1494,-108 1412,-108 1412,-72 1494,-72 1494,-108"/>
<text text-anchor="middle" x="1453" y="-86.4" font-family="Times Roman,serif" font-size="14.00">PrefixApp</text>
</g>
<!-- PrefixApp&#45;&gt;_concrete_ -->
<g id="edge140" class="edge"><title>PrefixApp&#45;&gt;_concrete_</title>
<path fill="none" stroke="green" stroke-width="2" d="M1494.15,-75.027C1497.14,-73.988 1500.11,-72.9694 1503,-72 1542.23,-58.8239 1586.81,-44.9338 1620.89,-34.5409"/>
<polygon fill="green" stroke="green" points="1622.11,-37.8277 1630.66,-31.5694 1620.07,-31.1306 1622.11,-37.8277"/>
</g>
<!-- UnitApp&#45;&gt;CurrencyApp -->
<g id="edge144" class="edge"><title>UnitApp&#45;&gt;CurrencyApp</title>
<path fill="none" stroke="green" stroke-width="2" d="M1506.68,-143.831C1516.11,-135.134 1527.54,-124.578 1537.78,-115.127"/>
<polygon fill="green" stroke="green" points="1540.35,-117.517 1545.32,-108.163 1535.6,-112.374 1540.35,-117.517"/>
</g>
<!-- UnitApp&#45;&gt;PrefixApp -->
<g id="edge142" class="edge"><title>UnitApp&#45;&gt;PrefixApp</title>
<path fill="none" stroke="green" stroke-width="2" d="M1478.42,-143.831C1474.66,-135.877 1470.17,-126.369 1466.02,-117.572"/>
<polygon fill="green" stroke="green" points="1469.13,-115.961 1461.7,-108.413 1462.8,-118.95 1469.13,-115.961"/>
</g>
<!-- CountryEst -->
<g id="node129" class="node"><title>CountryEst</title>
<polygon fill="none" stroke="black" points="2648,-108 2554,-108 2554,-72 2648,-72 2648,-108"/>
<text text-anchor="middle" x="2601" y="-86.4" font-family="Times Roman,serif" font-size="14.00">CountryEst</text>
</g>
<!-- CountryEst&#45;&gt;_concrete_ -->
<g id="edge146" class="edge"><title>CountryEst&#45;&gt;_concrete_</title>
<path fill="none" stroke="green" stroke-width="2" d="M2553.86,-73.9361C2550.88,-73.205 2547.91,-72.5492 2545,-72 2388.03,-42.3755 1897.9,-24.8591 1731.74,-19.6509"/>
<polygon fill="green" stroke="green" points="1731.37,-16.138 1721.27,-19.3257 1731.15,-23.1346 1731.37,-16.138"/>
</g>
<!-- Currency&#45;&gt;_abstract_ -->
<g id="edge152" class="edge"><title>Currency&#45;&gt;_abstract_</title>
<path fill="none" stroke="red" stroke-width="2" d="M372,-71.8314C372,-64.131 372,-54.9743 372,-46.4166"/>
<polygon fill="red" stroke="red" points="375.5,-46.4132 372,-36.4133 368.5,-46.4133 375.5,-46.4132"/>
</g>
<!-- Country -->
<g id="node139" class="node"><title>Country</title>
<polygon fill="none" stroke="black" points="800,-108 728,-108 728,-72 800,-72 800,-108"/>
<text text-anchor="middle" x="764" y="-86.4" font-family="Times Roman,serif" font-size="14.00">Country</text>
</g>
<!-- Country&#45;&gt;_abstract_ -->
<g id="edge162" class="edge"><title>Country&#45;&gt;_abstract_</title>
<path fill="none" stroke="red" stroke-width="2" d="M727.892,-74.7413C724.911,-73.7318 721.921,-72.8005 719,-72 617.628,-44.2231 495.421,-29.3683 426.415,-22.6284"/>
<polygon fill="red" stroke="red" points="426.506,-19.1212 416.218,-21.6539 425.84,-26.0895 426.506,-19.1212"/>
</g>
</g>
</svg>
