<?xml version="1.0" encoding="UTF-8" standalone="no"?>
<!DOCTYPE svg PUBLIC "-//W3C//DTD SVG 1.1//EN"
 "http://www.w3.org/Graphics/SVG/1.1/DTD/svg11.dtd">
<!-- Generated by graphviz version 2.26.3 (20100126.1600)
 -->
<!-- Title: G Pages: 1 -->
<svg width="942pt" height="404pt"
 viewBox="0.00 0.00 942.00 404.00" xmlns="http://www.w3.org/2000/svg" xmlns:xlink="http://www.w3.org/1999/xlink">
<g id="graph1" class="graph" transform="scale(1 1) rotate(0) translate(4 400)">
<title>G</title>
<polygon fill="white" stroke="white" points="-4,5 -4,-400 939,-400 939,5 -4,5"/>
<!-- Action -->
<g id="node1" class="node"><title>Action</title>
<polygon fill="none" stroke="black" points="267,-396 207,-396 207,-360 267,-360 267,-396"/>
<text text-anchor="middle" x="237" y="-374.4" font-family="Times Roman,serif" font-size="14.00">Action</text>
</g>
<!-- Alarm -->
<g id="node3" class="node"><title>Alarm</title>
<polygon fill="none" stroke="black" points="265,-324 209,-324 209,-288 265,-288 265,-324"/>
<text text-anchor="middle" x="237" y="-302.4" font-family="Times Roman,serif" font-size="14.00">Alarm</text>
</g>
<!-- Action&#45;&gt;Alarm -->
<g id="edge2" class="edge"><title>Action&#45;&gt;Alarm</title>
<path fill="none" stroke="red" stroke-width="2" d="M237,-359.831C237,-352.131 237,-342.974 237,-334.417"/>
<polygon fill="red" stroke="red" points="240.5,-334.413 237,-324.413 233.5,-334.413 240.5,-334.413"/>
</g>
<!-- Calc -->
<g id="node5" class="node"><title>Calc</title>
<polygon fill="none" stroke="black" points="191,-324 137,-324 137,-288 191,-288 191,-324"/>
<text text-anchor="middle" x="164" y="-302.4" font-family="Times Roman,serif" font-size="14.00">Calc</text>
</g>
<!-- Action&#45;&gt;Calc -->
<g id="edge4" class="edge"><title>Action&#45;&gt;Calc</title>
<path fill="none" stroke="red" stroke-width="2" d="M218.579,-359.831C209.847,-351.219 199.268,-340.785 189.758,-331.405"/>
<polygon fill="red" stroke="red" points="191.993,-328.693 182.415,-324.163 187.077,-333.677 191.993,-328.693"/>
</g>
<!-- Direction -->
<g id="node7" class="node"><title>Direction</title>
<polygon fill="none" stroke="black" points="363,-324 283,-324 283,-288 363,-288 363,-324"/>
<text text-anchor="middle" x="323" y="-302.4" font-family="Times Roman,serif" font-size="14.00">Direction</text>
</g>
<!-- Action&#45;&gt;Direction -->
<g id="edge6" class="edge"><title>Action&#45;&gt;Direction</title>
<path fill="none" stroke="red" stroke-width="2" d="M258.701,-359.831C269.192,-351.048 281.946,-340.371 293.319,-330.849"/>
<polygon fill="red" stroke="red" points="295.885,-333.266 301.306,-324.163 291.391,-327.899 295.885,-333.266"/>
</g>
<!-- Date -->
<g id="node14" class="node"><title>Date</title>
<polygon fill="none" stroke="black" points="264,-252 210,-252 210,-216 264,-216 264,-252"/>
<text text-anchor="middle" x="237" y="-230.4" font-family="Times Roman,serif" font-size="14.00">Date</text>
</g>
<!-- Alarm&#45;&gt;Date -->
<g id="edge12" class="edge"><title>Alarm&#45;&gt;Date</title>
<path fill="none" stroke="red" stroke-width="2" d="M237,-287.831C237,-280.131 237,-270.974 237,-262.417"/>
<polygon fill="red" stroke="red" points="240.5,-262.413 237,-252.413 233.5,-262.413 240.5,-262.413"/>
</g>
<!-- Expr -->
<g id="node26" class="node"><title>Expr</title>
<polygon fill="none" stroke="black" points="192,-252 138,-252 138,-216 192,-216 192,-252"/>
<text text-anchor="middle" x="165" y="-230.4" font-family="Times Roman,serif" font-size="14.00">Expr</text>
</g>
<!-- Calc&#45;&gt;Expr -->
<g id="edge26" class="edge"><title>Calc&#45;&gt;Expr</title>
<path fill="none" stroke="red" stroke-width="2" d="M164.252,-287.831C164.359,-280.131 164.486,-270.974 164.605,-262.417"/>
<polygon fill="red" stroke="red" points="168.105,-262.461 164.744,-252.413 161.106,-262.364 168.105,-262.461"/>
</g>
<!-- Unitconv -->
<g id="node28" class="node"><title>Unitconv</title>
<polygon fill="none" stroke="black" points="120,-252 42,-252 42,-216 120,-216 120,-252"/>
<text text-anchor="middle" x="81" y="-230.4" font-family="Times Roman,serif" font-size="14.00">Unitconv</text>
</g>
<!-- Calc&#45;&gt;Unitconv -->
<g id="edge28" class="edge"><title>Calc&#45;&gt;Unitconv</title>
<path fill="none" stroke="red" stroke-width="2" d="M143.056,-287.831C132.931,-279.048 120.622,-268.371 109.645,-258.849"/>
<polygon fill="red" stroke="red" points="111.785,-256.072 101.938,-252.163 107.198,-261.359 111.785,-256.072"/>
</g>
<!-- Address -->
<g id="node29" class="node"><title>Address</title>
<polygon fill="none" stroke="black" points="358,-180 288,-180 288,-144 358,-144 358,-180"/>
<text text-anchor="middle" x="323" y="-158.4" font-family="Times Roman,serif" font-size="14.00">Address</text>
</g>
<!-- Direction&#45;&gt;Address -->
<g id="edge56" class="edge"><title>Direction&#45;&gt;Address</title>
<path fill="none" stroke="red" stroke-width="2" d="M323,-287.762C323,-263.201 323,-219.247 323,-190.354"/>
<polygon fill="red" stroke="red" points="326.5,-190.09 323,-180.09 319.5,-190.09 326.5,-190.09"/>
</g>
<!-- Symbols -->
<g id="node8" class="node"><title>Symbols</title>
<polygon fill="none" stroke="black" points="700,-180 626,-180 626,-144 700,-144 700,-180"/>
<text text-anchor="middle" x="663" y="-158.4" font-family="Times Roman,serif" font-size="14.00">Symbols</text>
</g>
<!-- Digit -->
<g id="node10" class="node"><title>Digit</title>
<polygon fill="none" stroke="black" points="696,-108 642,-108 642,-72 696,-72 696,-108"/>
<text text-anchor="middle" x="669" y="-86.4" font-family="Times Roman,serif" font-size="14.00">Digit</text>
</g>
<!-- Symbols&#45;&gt;Digit -->
<g id="edge8" class="edge"><title>Symbols&#45;&gt;Digit</title>
<path fill="none" stroke="red" stroke-width="2" d="M664.514,-143.831C665.156,-136.131 665.919,-126.974 666.632,-118.417"/>
<polygon fill="red" stroke="red" points="670.123,-118.669 667.466,-108.413 663.147,-118.088 670.123,-118.669"/>
</g>
<!-- Letter -->
<g id="node12" class="node"><title>Letter</title>
<polygon fill="none" stroke="black" points="772,-108 714,-108 714,-72 772,-72 772,-108"/>
<text text-anchor="middle" x="743" y="-86.4" font-family="Times Roman,serif" font-size="14.00">Letter</text>
</g>
<!-- Symbols&#45;&gt;Letter -->
<g id="edge10" class="edge"><title>Symbols&#45;&gt;Letter</title>
<path fill="none" stroke="red" stroke-width="2" d="M683.187,-143.831C692.851,-135.134 704.58,-124.578 715.082,-115.127"/>
<polygon fill="red" stroke="red" points="717.728,-117.454 722.819,-108.163 713.045,-112.251 717.728,-117.454"/>
</g>
<!-- _abstract_ -->
<g id="node16" class="node"><title>_abstract_</title>
<polygon fill="none" stroke="black" points="503,-36 415,-36 415,-1.77636e-14 503,-3.55271e-15 503,-36"/>
<text text-anchor="middle" x="459" y="-14.4" font-family="Times Roman,serif" font-size="14.00">_abstract_</text>
</g>
<!-- Digit&#45;&gt;_abstract_ -->
<g id="edge14" class="edge"><title>Digit&#45;&gt;_abstract_</title>
<path fill="none" stroke="red" stroke-width="2" d="M641.694,-75.7721C638.788,-74.4314 635.853,-73.1469 633,-72 593.737,-56.2136 547.987,-42.1784 513.255,-32.3759"/>
<polygon fill="red" stroke="red" points="513.882,-28.9171 503.309,-29.5992 512,-35.6593 513.882,-28.9171"/>
</g>
<!-- Letter&#45;&gt;_abstract_ -->
<g id="edge20" class="edge"><title>Letter&#45;&gt;_abstract_</title>
<path fill="none" stroke="red" stroke-width="2" d="M713.815,-75.3726C710.873,-74.1418 707.901,-72.9913 705,-72 640.742,-50.0452 563.915,-34.855 513.417,-26.3017"/>
<polygon fill="red" stroke="red" points="513.807,-22.8185 503.368,-24.6284 512.657,-29.7234 513.807,-22.8185"/>
</g>
<!-- Numeral -->
<g id="node17" class="node"><title>Numeral</title>
<polygon fill="none" stroke="black" points="246,-108 172,-108 172,-72 246,-72 246,-108"/>
<text text-anchor="middle" x="209" y="-86.4" font-family="Times Roman,serif" font-size="14.00">Numeral</text>
</g>
<!-- Date&#45;&gt;Numeral -->
<g id="edge22" class="edge"><title>Date&#45;&gt;Numeral</title>
<path fill="none" stroke="red" stroke-width="2" d="M233.454,-215.762C228.657,-191.093 220.056,-146.86 214.439,-117.973"/>
<polygon fill="red" stroke="red" points="217.862,-117.238 212.517,-108.09 210.991,-118.574 217.862,-117.238"/>
</g>
<!-- Numeral&#45;&gt;_abstract_ -->
<g id="edge16" class="edge"><title>Numeral&#45;&gt;_abstract_</title>
<path fill="none" stroke="red" stroke-width="2" d="M246.025,-75.0926C249.047,-74.0044 252.065,-72.9591 255,-72 305.187,-55.5977 363.52,-40.5493 404.921,-30.5286"/>
<polygon fill="red" stroke="red" points="405.897,-33.8938 414.803,-28.1545 404.262,-27.0875 405.897,-33.8938"/>
</g>
<!-- Eeppl -->
<g id="node19" class="node"><title>Eeppl</title>
<polygon fill="none" stroke="black" points="390,-108 336,-108 336,-72 390,-72 390,-108"/>
<text text-anchor="middle" x="363" y="-86.4" font-family="Times Roman,serif" font-size="14.00">Eeppl</text>
</g>
<!-- Eeppl&#45;&gt;_abstract_ -->
<g id="edge18" class="edge"><title>Eeppl&#45;&gt;_abstract_</title>
<path fill="none" stroke="red" stroke-width="2" d="M387.225,-71.8314C399.163,-62.8779 413.726,-51.9558 426.606,-42.2955"/>
<polygon fill="red" stroke="red" points="428.883,-44.9629 434.783,-36.1628 424.683,-39.3629 428.883,-44.9629"/>
</g>
<!-- Go -->
<g id="node23" class="node"><title>Go</title>
<polygon fill="none" stroke="black" points="844,-108 790,-108 790,-72 844,-72 844,-108"/>
<text text-anchor="middle" x="817" y="-86.4" font-family="Times Roman,serif" font-size="14.00">Go</text>
</g>
<!-- Go&#45;&gt;_abstract_ -->
<g id="edge24" class="edge"><title>Go&#45;&gt;_abstract_</title>
<path fill="none" stroke="red" stroke-width="2" d="M789.839,-75.3716C786.905,-74.1089 783.923,-72.9523 781,-72 689.681,-42.2536 578.188,-28.228 513.229,-22.1439"/>
<polygon fill="red" stroke="red" points="513.489,-18.6531 503.213,-21.2344 512.856,-25.6245 513.489,-18.6531"/>
</g>
<!-- Fraction -->
<g id="node37" class="node"><title>Fraction</title>
<polygon fill="none" stroke="black" points="201,-180 129,-180 129,-144 201,-144 201,-180"/>
<text text-anchor="middle" x="165" y="-158.4" font-family="Times Roman,serif" font-size="14.00">Fraction</text>
</g>
<!-- Expr&#45;&gt;Fraction -->
<g id="edge58" class="edge"><title>Expr&#45;&gt;Fraction</title>
<path fill="none" stroke="red" stroke-width="2" d="M165,-215.831C165,-208.131 165,-198.974 165,-190.417"/>
<polygon fill="red" stroke="red" points="168.5,-190.413 165,-180.413 161.5,-190.413 168.5,-190.413"/>
</g>
<!-- Unitconv&#45;&gt;Fraction -->
<g id="edge62" class="edge"><title>Unitconv&#45;&gt;Fraction</title>
<path fill="none" stroke="red" stroke-width="2" d="M102.197,-215.831C112.443,-207.048 124.9,-196.371 136.01,-186.849"/>
<polygon fill="red" stroke="red" points="138.495,-189.328 143.81,-180.163 133.94,-184.013 138.495,-189.328"/>
</g>
<!-- Unit -->
<g id="node55" class="node"><title>Unit</title>
<polygon fill="none" stroke="black" points="108,-180 54,-180 54,-144 108,-144 108,-180"/>
<text text-anchor="middle" x="81" y="-158.4" font-family="Times Roman,serif" font-size="14.00">Unit</text>
</g>
<!-- Unitconv&#45;&gt;Unit -->
<g id="edge64" class="edge"><title>Unitconv&#45;&gt;Unit</title>
<path fill="none" stroke="red" stroke-width="2" d="M81,-215.831C81,-208.131 81,-198.974 81,-190.417"/>
<polygon fill="red" stroke="red" points="84.5001,-190.413 81,-180.413 77.5001,-190.413 84.5001,-190.413"/>
</g>
<!-- Address&#45;&gt;Numeral -->
<g id="edge36" class="edge"><title>Address&#45;&gt;Numeral</title>
<path fill="none" stroke="red" stroke-width="2" d="M294.233,-143.831C279.787,-134.707 262.103,-123.539 246.596,-113.745"/>
<polygon fill="red" stroke="red" points="248.082,-110.544 237.758,-108.163 244.344,-116.462 248.082,-110.544"/>
</g>
<!-- Address&#45;&gt;Eeppl -->
<g id="edge30" class="edge"><title>Address&#45;&gt;Eeppl</title>
<path fill="none" stroke="red" stroke-width="2" d="M333.094,-143.831C337.56,-135.792 342.907,-126.167 347.838,-117.292"/>
<polygon fill="red" stroke="red" points="350.973,-118.855 352.77,-108.413 344.854,-115.455 350.973,-118.855"/>
</g>
<!-- Town -->
<g id="node32" class="node"><title>Town</title>
<polygon fill="none" stroke="black" points="318,-108 264,-108 264,-72 318,-72 318,-108"/>
<text text-anchor="middle" x="291" y="-86.4" font-family="Times Roman,serif" font-size="14.00">Town</text>
</g>
<!-- Address&#45;&gt;Town -->
<g id="edge32" class="edge"><title>Address&#45;&gt;Town</title>
<path fill="none" stroke="red" stroke-width="2" d="M314.925,-143.831C311.39,-135.877 307.164,-126.369 303.254,-117.572"/>
<polygon fill="red" stroke="red" points="306.443,-116.13 299.184,-108.413 300.047,-118.973 306.443,-116.13"/>
</g>
<!-- Tallinnstreet -->
<g id="node34" class="node"><title>Tallinnstreet</title>
<polygon fill="none" stroke="black" points="510,-108 408,-108 408,-72 510,-72 510,-108"/>
<text text-anchor="middle" x="459" y="-86.4" font-family="Times Roman,serif" font-size="14.00">Tallinnstreet</text>
</g>
<!-- Address&#45;&gt;Tallinnstreet -->
<g id="edge34" class="edge"><title>Address&#45;&gt;Tallinnstreet</title>
<path fill="none" stroke="red" stroke-width="2" d="M357.319,-143.831C375.036,-134.452 396.834,-122.911 415.698,-112.924"/>
<polygon fill="red" stroke="red" points="417.492,-115.935 424.692,-108.163 414.217,-109.748 417.492,-115.935"/>
</g>
<!-- Town&#45;&gt;_abstract_ -->
<g id="edge38" class="edge"><title>Town&#45;&gt;_abstract_</title>
<path fill="none" stroke="red" stroke-width="2" d="M318.022,-76.216C321.035,-74.7603 324.073,-73.3282 327,-72 352.578,-60.3935 381.407,-48.4697 405.584,-38.7889"/>
<polygon fill="red" stroke="red" points="406.953,-42.0111 414.947,-35.0583 404.362,-35.5082 406.953,-42.0111"/>
</g>
<!-- Tallinnstreet&#45;&gt;_abstract_ -->
<g id="edge52" class="edge"><title>Tallinnstreet&#45;&gt;_abstract_</title>
<path fill="none" stroke="red" stroke-width="2" d="M459,-71.8314C459,-64.131 459,-54.9743 459,-46.4166"/>
<polygon fill="red" stroke="red" points="462.5,-46.4132 459,-36.4133 455.5,-46.4133 462.5,-46.4132"/>
</g>
<!-- Fraction&#45;&gt;Numeral -->
<g id="edge40" class="edge"><title>Fraction&#45;&gt;Numeral</title>
<path fill="none" stroke="red" stroke-width="2" d="M176.103,-143.831C181.067,-135.708 187.022,-125.964 192.493,-117.012"/>
<polygon fill="red" stroke="red" points="195.519,-118.771 197.747,-108.413 189.546,-115.121 195.519,-118.771"/>
</g>
<!-- Estvrp -->
<g id="node39" class="node"><title>Estvrp</title>
<polygon fill="none" stroke="black" points="778,-180 718,-180 718,-144 778,-144 778,-180"/>
<text text-anchor="middle" x="748" y="-158.4" font-family="Times Roman,serif" font-size="14.00">Estvrp</text>
</g>
<!-- Estvrp&#45;&gt;Digit -->
<g id="edge42" class="edge"><title>Estvrp&#45;&gt;Digit</title>
<path fill="none" stroke="red" stroke-width="2" d="M728.065,-143.831C718.522,-135.134 706.94,-124.578 696.569,-115.127"/>
<polygon fill="red" stroke="red" points="698.677,-112.312 688.929,-108.163 693.962,-117.486 698.677,-112.312"/>
</g>
<!-- Estvrp&#45;&gt;Letter -->
<g id="edge44" class="edge"><title>Estvrp&#45;&gt;Letter</title>
<path fill="none" stroke="red" stroke-width="2" d="M746.738,-143.831C746.204,-136.131 745.568,-126.974 744.973,-118.417"/>
<polygon fill="red" stroke="red" points="748.463,-118.147 744.279,-108.413 741.48,-118.632 748.463,-118.147"/>
</g>
<!-- Tallinnaddress -->
<g id="node42" class="node"><title>Tallinnaddress</title>
<polygon fill="none" stroke="black" points="515,-180 403,-180 403,-144 515,-144 515,-180"/>
<text text-anchor="middle" x="459" y="-158.4" font-family="Times Roman,serif" font-size="14.00">Tallinnaddress</text>
</g>
<!-- Tallinnaddress&#45;&gt;Numeral -->
<g id="edge50" class="edge"><title>Tallinnaddress&#45;&gt;Numeral</title>
<path fill="none" stroke="red" stroke-width="2" d="M402.649,-148.921C363.659,-139.452 310.477,-125.709 255.569,-108.017"/>
<polygon fill="red" stroke="red" points="256.618,-104.678 246.025,-104.907 254.449,-111.333 256.618,-104.678"/>
</g>
<!-- Tallinnaddress&#45;&gt;Tallinnstreet -->
<g id="edge48" class="edge"><title>Tallinnaddress&#45;&gt;Tallinnstreet</title>
<path fill="none" stroke="red" stroke-width="2" d="M459,-143.831C459,-136.131 459,-126.974 459,-118.417"/>
<polygon fill="red" stroke="red" points="462.5,-118.413 459,-108.413 455.5,-118.413 462.5,-118.413"/>
</g>
<!-- Tallinnplace -->
<g id="node44" class="node"><title>Tallinnplace</title>
<polygon fill="none" stroke="black" points="624,-108 528,-108 528,-72 624,-72 624,-108"/>
<text text-anchor="middle" x="576" y="-86.4" font-family="Times Roman,serif" font-size="14.00">Tallinnplace</text>
</g>
<!-- Tallinnaddress&#45;&gt;Tallinnplace -->
<g id="edge46" class="edge"><title>Tallinnaddress&#45;&gt;Tallinnplace</title>
<path fill="none" stroke="red" stroke-width="2" d="M488.524,-143.831C503.489,-134.622 521.839,-123.33 537.86,-113.471"/>
<polygon fill="red" stroke="red" points="539.803,-116.385 546.485,-108.163 536.134,-110.423 539.803,-116.385"/>
</g>
<!-- Tallinnplace&#45;&gt;_abstract_ -->
<g id="edge54" class="edge"><title>Tallinnplace&#45;&gt;_abstract_</title>
<path fill="none" stroke="red" stroke-width="2" d="M546.476,-71.8314C531.511,-62.6221 513.161,-51.3301 497.14,-41.4706"/>
<polygon fill="red" stroke="red" points="498.866,-38.423 488.515,-36.1628 495.197,-44.3847 498.866,-38.423"/>
</g>
<!-- Prefix -->
<g id="node51" class="node"><title>Prefix</title>
<polygon fill="none" stroke="black" points="154,-108 98,-108 98,-72 154,-72 154,-108"/>
<text text-anchor="middle" x="126" y="-86.4" font-family="Times Roman,serif" font-size="14.00">Prefix</text>
</g>
<!-- Prefix&#45;&gt;_abstract_ -->
<g id="edge60" class="edge"><title>Prefix&#45;&gt;_abstract_</title>
<path fill="none" stroke="red" stroke-width="2" d="M154.362,-75.2528C157.237,-74.0462 160.149,-72.9341 163,-72 245.12,-45.0945 344.712,-30.4125 404.903,-23.3915"/>
<polygon fill="red" stroke="red" points="405.403,-26.8573 414.943,-22.249 404.611,-19.9022 405.403,-26.8573"/>
</g>
<!-- Unit&#45;&gt;Prefix -->
<g id="edge68" class="edge"><title>Unit&#45;&gt;Prefix</title>
<path fill="none" stroke="red" stroke-width="2" d="M92.3554,-143.831C97.4326,-135.708 103.523,-125.964 109.118,-117.012"/>
<polygon fill="red" stroke="red" points="112.16,-118.748 114.492,-108.413 106.224,-115.038 112.16,-118.748"/>
</g>
<!-- Currency -->
<g id="node56" class="node"><title>Currency</title>
<polygon fill="none" stroke="black" points="80,-108 3.55271e-14,-108 0,-72 80,-72 80,-108"/>
<text text-anchor="middle" x="40" y="-86.4" font-family="Times Roman,serif" font-size="14.00">Currency</text>
</g>
<!-- Unit&#45;&gt;Currency -->
<g id="edge70" class="edge"><title>Unit&#45;&gt;Currency</title>
<path fill="none" stroke="red" stroke-width="2" d="M70.654,-143.831C66.0763,-135.792 60.5948,-126.167 55.5412,-117.292"/>
<polygon fill="red" stroke="red" points="58.4752,-115.371 50.4853,-108.413 52.3923,-118.835 58.4752,-115.371"/>
</g>
<!-- Currency&#45;&gt;_abstract_ -->
<g id="edge66" class="edge"><title>Currency&#45;&gt;_abstract_</title>
<path fill="none" stroke="red" stroke-width="2" d="M80.1682,-74.4945C83.1354,-73.5805 86.1011,-72.7355 89,-72 199.201,-44.039 331.79,-29.0621 404.557,-22.3904"/>
<polygon fill="red" stroke="red" points="405.203,-25.8466 414.85,-21.4657 404.577,-18.8747 405.203,-25.8466"/>
</g>
<!-- Country -->
<g id="node60" class="node"><title>Country</title>
<polygon fill="none" stroke="black" points="934,-108 862,-108 862,-72 934,-72 934,-108"/>
<text text-anchor="middle" x="898" y="-86.4" font-family="Times Roman,serif" font-size="14.00">Country</text>
</g>
<!-- Country&#45;&gt;_abstract_ -->
<g id="edge72" class="edge"><title>Country&#45;&gt;_abstract_</title>
<path fill="none" stroke="red" stroke-width="2" d="M861.908,-74.6824C858.923,-73.6861 855.929,-72.7739 853,-72 734.261,-40.6218 590.302,-26.7777 513.502,-21.2506"/>
<polygon fill="red" stroke="red" points="513.34,-17.7308 503.12,-20.5249 512.852,-24.7138 513.34,-17.7308"/>
</g>
<!-- Tallinndirection -->
<g id="node62" class="node"><title>Tallinndirection</title>
<polygon fill="none" stroke="black" points="519,-252 399,-252 399,-216 519,-216 519,-252"/>
<text text-anchor="middle" x="459" y="-230.4" font-family="Times Roman,serif" font-size="14.00">Tallinndirection</text>
</g>
<!-- Tallinndirection&#45;&gt;Tallinnaddress -->
<g id="edge74" class="edge"><title>Tallinndirection&#45;&gt;Tallinnaddress</title>
<path fill="none" stroke="red" stroke-width="2" d="M459,-215.831C459,-208.131 459,-198.974 459,-190.417"/>
<polygon fill="red" stroke="red" points="462.5,-190.413 459,-180.413 455.5,-190.413 462.5,-190.413"/>
</g>
</g>
</svg>
