<?xml version="1.0" encoding="UTF-8" standalone="no"?>
<!DOCTYPE svg PUBLIC "-//W3C//DTD SVG 1.1//EN"
 "http://www.w3.org/Graphics/SVG/1.1/DTD/svg11.dtd">
<!-- Generated by graphviz version 2.26.3 (20100126.1600)
 -->
<!-- Title: G Pages: 1 -->
<svg width="2176pt" height="342pt"
 viewBox="0.00 0.00 2176.00 342.00" xmlns="http://www.w3.org/2000/svg" xmlns:xlink="http://www.w3.org/1999/xlink">
<g id="graph1" class="graph" transform="scale(1 1) rotate(0) translate(4 338)">
<title>G</title>
<polygon fill="white" stroke="white" points="-4,5 -4,-338 2173,-338 2173,5 -4,5"/>
<!-- Action -->
<g id="node1" class="node"><title>Action</title>
<ellipse fill="none" stroke="black" cx="247" cy="-315" rx="41.9273" ry="18.3848"/>
<text text-anchor="middle" x="247" y="-311.4" font-family="Times Roman,serif" font-size="14.00">Action</text>
</g>
<!-- Direction -->
<g id="node3" class="node"><title>Direction</title>
<ellipse fill="none" stroke="black" cx="170" cy="-241" rx="56.0679" ry="18.3848"/>
<text text-anchor="middle" x="170" y="-237.4" font-family="Times Roman,serif" font-size="14.00">Direction</text>
</g>
<!-- Action&#45;&gt;Direction -->
<g id="edge2" class="edge"><title>Action&#45;&gt;Direction</title>
<path fill="none" stroke="red" stroke-width="2" d="M229.141,-297.837C219.178,-288.262 206.598,-276.172 195.603,-265.606"/>
<polygon fill="red" stroke="red" points="197.932,-262.99 188.297,-258.584 193.082,-268.037 197.932,-262.99"/>
</g>
<!-- Calc -->
<g id="node5" class="node"><title>Calc</title>
<ellipse fill="none" stroke="black" cx="282" cy="-241" rx="31.8198" ry="18.3848"/>
<text text-anchor="middle" x="282" y="-237.4" font-family="Times Roman,serif" font-size="14.00">Calc</text>
</g>
<!-- Action&#45;&gt;Calc -->
<g id="edge4" class="edge"><title>Action&#45;&gt;Calc</title>
<path fill="none" stroke="red" stroke-width="2" d="M255.652,-296.708C259.721,-288.105 264.655,-277.671 269.149,-268.17"/>
<polygon fill="red" stroke="red" points="272.336,-269.618 273.448,-259.082 266.008,-266.625 272.336,-269.618"/>
</g>
<!-- Address -->
<g id="node36" class="node"><title>Address</title>
<ellipse fill="none" stroke="black" cx="146" cy="-167" rx="50.2046" ry="18.3848"/>
<text text-anchor="middle" x="146" y="-163.4" font-family="Times Roman,serif" font-size="14.00">Address</text>
</g>
<!-- Direction&#45;&gt;Address -->
<g id="edge74" class="edge"><title>Direction&#45;&gt;Address</title>
<path fill="none" stroke="red" stroke-width="2" d="M163.944,-222.327C161.28,-214.114 158.094,-204.29 155.15,-195.214"/>
<polygon fill="red" stroke="red" points="158.386,-193.843 151.971,-185.411 151.727,-196.003 158.386,-193.843"/>
</g>
<!-- Exp -->
<g id="node19" class="node"><title>Exp</title>
<ellipse fill="none" stroke="black" cx="282" cy="-167" rx="29.1951" ry="18.3848"/>
<text text-anchor="middle" x="282" y="-163.4" font-family="Times Roman,serif" font-size="14.00">Exp</text>
</g>
<!-- Calc&#45;&gt;Exp -->
<g id="edge26" class="edge"><title>Calc&#45;&gt;Exp</title>
<path fill="none" stroke="red" stroke-width="2" d="M282,-222.327C282,-214.264 282,-204.648 282,-195.711"/>
<polygon fill="red" stroke="red" points="285.5,-195.667 282,-185.667 278.5,-195.667 285.5,-195.667"/>
</g>
<!-- Unitconv -->
<g id="node32" class="node"><title>Unitconv</title>
<ellipse fill="none" stroke="black" cx="384" cy="-167" rx="55.1543" ry="18.3848"/>
<text text-anchor="middle" x="384" y="-163.4" font-family="Times Roman,serif" font-size="14.00">Unitconv</text>
</g>
<!-- Calc&#45;&gt;Unitconv -->
<g id="edge28" class="edge"><title>Calc&#45;&gt;Unitconv</title>
<path fill="none" stroke="red" stroke-width="2" d="M302.152,-226.38C316.49,-215.978 336.038,-201.796 352.434,-189.901"/>
<polygon fill="red" stroke="red" points="354.638,-192.626 360.677,-183.921 350.528,-186.96 354.638,-192.626"/>
</g>
<!-- ActionEst -->
<g id="node6" class="node"><title>ActionEst</title>
<ellipse fill="none" stroke="black" cx="1038" cy="-315" rx="57.9828" ry="18.3848"/>
<text text-anchor="middle" x="1038" y="-311.4" font-family="Times Roman,serif" font-size="14.00">ActionEst</text>
</g>
<!-- DirectionEst -->
<g id="node8" class="node"><title>DirectionEst</title>
<ellipse fill="none" stroke="black" cx="1106" cy="-241" rx="70.9184" ry="18.3848"/>
<text text-anchor="middle" x="1106" y="-237.4" font-family="Times Roman,serif" font-size="14.00">DirectionEst</text>
</g>
<!-- ActionEst&#45;&gt;DirectionEst -->
<g id="edge6" class="edge"><title>ActionEst&#45;&gt;DirectionEst</title>
<path fill="none" stroke="green" stroke-width="2" d="M1054.46,-297.087C1062.92,-287.883 1073.37,-276.511 1082.64,-266.417"/>
<polygon fill="green" stroke="green" points="1085.27,-268.736 1089.45,-259.005 1080.11,-264 1085.27,-268.736"/>
</g>
<!-- CalcEst -->
<g id="node10" class="node"><title>CalcEst</title>
<ellipse fill="none" stroke="black" cx="970" cy="-241" rx="46.8775" ry="18.3848"/>
<text text-anchor="middle" x="970" y="-237.4" font-family="Times Roman,serif" font-size="14.00">CalcEst</text>
</g>
<!-- ActionEst&#45;&gt;CalcEst -->
<g id="edge8" class="edge"><title>ActionEst&#45;&gt;CalcEst</title>
<path fill="none" stroke="green" stroke-width="2" d="M1021.54,-297.087C1012.96,-287.747 1002.32,-276.173 992.945,-265.969"/>
<polygon fill="green" stroke="green" points="995.418,-263.488 986.075,-258.493 990.264,-268.225 995.418,-263.488"/>
</g>
<!-- AddressEst -->
<g id="node43" class="node"><title>AddressEst</title>
<ellipse fill="none" stroke="black" cx="1106" cy="-167" rx="65.0538" ry="18.3848"/>
<text text-anchor="middle" x="1106" y="-163.4" font-family="Times Roman,serif" font-size="14.00">AddressEst</text>
</g>
<!-- DirectionEst&#45;&gt;AddressEst -->
<g id="edge70" class="edge"><title>DirectionEst&#45;&gt;AddressEst</title>
<path fill="none" stroke="green" stroke-width="2" d="M1106,-222.327C1106,-214.264 1106,-204.648 1106,-195.711"/>
<polygon fill="green" stroke="green" points="1109.5,-195.667 1106,-185.667 1102.5,-195.667 1109.5,-195.667"/>
</g>
<!-- ExpEstl -->
<g id="node25" class="node"><title>ExpEstl</title>
<ellipse fill="none" stroke="black" cx="975" cy="-167" rx="48.0833" ry="18.3848"/>
<text text-anchor="middle" x="975" y="-163.4" font-family="Times Roman,serif" font-size="14.00">ExpEstl</text>
</g>
<!-- CalcEst&#45;&gt;ExpEstl -->
<g id="edge22" class="edge"><title>CalcEst&#45;&gt;ExpEstl</title>
<path fill="none" stroke="green" stroke-width="2" d="M971.262,-222.327C971.806,-214.264 972.456,-204.648 973.06,-195.711"/>
<polygon fill="green" stroke="green" points="976.556,-195.881 973.739,-185.667 969.572,-195.409 976.556,-195.881"/>
</g>
<!-- UnitconvEst -->
<g id="node29" class="node"><title>UnitconvEst</title>
<ellipse fill="none" stroke="black" cx="731" cy="-167" rx="70.2092" ry="18.3848"/>
<text text-anchor="middle" x="731" y="-163.4" font-family="Times Roman,serif" font-size="14.00">UnitconvEst</text>
</g>
<!-- CalcEst&#45;&gt;UnitconvEst -->
<g id="edge24" class="edge"><title>CalcEst&#45;&gt;UnitconvEst</title>
<path fill="none" stroke="green" stroke-width="2" d="M932.918,-229.519C893.708,-217.378 831.415,-198.091 786.381,-184.147"/>
<polygon fill="green" stroke="green" points="787.351,-180.784 776.763,-181.169 785.28,-187.47 787.351,-180.784"/>
</g>
<!-- ActionApp -->
<g id="node11" class="node"><title>ActionApp</title>
<ellipse fill="none" stroke="black" cx="1334" cy="-315" rx="60.8112" ry="18.3848"/>
<text text-anchor="middle" x="1334" y="-311.4" font-family="Times Roman,serif" font-size="14.00">ActionApp</text>
</g>
<!-- DirectionApp -->
<g id="node13" class="node"><title>DirectionApp</title>
<ellipse fill="none" stroke="black" cx="1272" cy="-241" rx="74.9533" ry="18.3848"/>
<text text-anchor="middle" x="1272" y="-237.4" font-family="Times Roman,serif" font-size="14.00">DirectionApp</text>
</g>
<!-- ActionApp&#45;&gt;DirectionApp -->
<g id="edge10" class="edge"><title>ActionApp&#45;&gt;DirectionApp</title>
<path fill="none" stroke="green" stroke-width="2" d="M1318.67,-296.708C1311.22,-287.814 1302.13,-276.962 1293.96,-267.207"/>
<polygon fill="green" stroke="green" points="1296.47,-264.756 1287.36,-259.338 1291.1,-269.251 1296.47,-264.756"/>
</g>
<!-- CalcApp -->
<g id="node15" class="node"><title>CalcApp</title>
<ellipse fill="none" stroke="black" cx="1416" cy="-241" rx="50.2046" ry="18.3848"/>
<text text-anchor="middle" x="1416" y="-237.4" font-family="Times Roman,serif" font-size="14.00">CalcApp</text>
</g>
<!-- ActionApp&#45;&gt;CalcApp -->
<g id="edge12" class="edge"><title>ActionApp&#45;&gt;CalcApp</title>
<path fill="none" stroke="green" stroke-width="2" d="M1353.43,-297.463C1364.13,-287.809 1377.57,-275.684 1389.24,-265.147"/>
<polygon fill="green" stroke="green" points="1391.91,-267.454 1396.99,-258.156 1387.22,-262.257 1391.91,-267.454"/>
</g>
<!-- AddressApp -->
<g id="node50" class="node"><title>AddressApp</title>
<ellipse fill="none" stroke="black" cx="1264" cy="-167" rx="68.0887" ry="18.3848"/>
<text text-anchor="middle" x="1264" y="-163.4" font-family="Times Roman,serif" font-size="14.00">AddressApp</text>
</g>
<!-- DirectionApp&#45;&gt;AddressApp -->
<g id="edge72" class="edge"><title>DirectionApp&#45;&gt;AddressApp</title>
<path fill="none" stroke="green" stroke-width="2" d="M1269.98,-222.327C1269.11,-214.264 1268.07,-204.648 1267.1,-195.711"/>
<polygon fill="green" stroke="green" points="1270.57,-195.233 1266.02,-185.667 1263.61,-195.986 1270.57,-195.233"/>
</g>
<!-- ExpApp -->
<g id="node16" class="node"><title>ExpApp</title>
<ellipse fill="none" stroke="black" cx="1416" cy="-167" rx="48.0833" ry="18.3848"/>
<text text-anchor="middle" x="1416" y="-163.4" font-family="Times Roman,serif" font-size="14.00">ExpApp</text>
</g>
<!-- CalcApp&#45;&gt;ExpApp -->
<g id="edge30" class="edge"><title>CalcApp&#45;&gt;ExpApp</title>
<path fill="none" stroke="green" stroke-width="2" d="M1416,-222.327C1416,-214.264 1416,-204.648 1416,-195.711"/>
<polygon fill="green" stroke="green" points="1419.5,-195.667 1416,-185.667 1412.5,-195.667 1419.5,-195.667"/>
</g>
<!-- UnitconvApp -->
<g id="node35" class="node"><title>UnitconvApp</title>
<ellipse fill="none" stroke="black" cx="1555" cy="-167" rx="73.0388" ry="18.3848"/>
<text text-anchor="middle" x="1555" y="-163.4" font-family="Times Roman,serif" font-size="14.00">UnitconvApp</text>
</g>
<!-- CalcApp&#45;&gt;UnitconvApp -->
<g id="edge32" class="edge"><title>CalcApp&#45;&gt;UnitconvApp</title>
<path fill="none" stroke="green" stroke-width="2" d="M1444.8,-225.667C1464.93,-214.951 1492.09,-200.492 1514.41,-188.609"/>
<polygon fill="green" stroke="green" points="1516.15,-191.65 1523.33,-183.861 1512.86,-185.471 1516.15,-191.65"/>
</g>
<!-- FractionApp -->
<g id="node18" class="node"><title>FractionApp</title>
<ellipse fill="none" stroke="black" cx="1418" cy="-93" rx="68.7979" ry="18.3848"/>
<text text-anchor="middle" x="1418" y="-89.4" font-family="Times Roman,serif" font-size="14.00">FractionApp</text>
</g>
<!-- ExpApp&#45;&gt;FractionApp -->
<g id="edge14" class="edge"><title>ExpApp&#45;&gt;FractionApp</title>
<path fill="none" stroke="green" stroke-width="2" d="M1416.5,-148.327C1416.72,-140.264 1416.98,-130.648 1417.22,-121.711"/>
<polygon fill="green" stroke="green" points="1420.72,-121.758 1417.5,-111.667 1413.73,-121.569 1420.72,-121.758"/>
</g>
<!-- decimal -->
<g id="node54" class="node"><title>decimal</title>
<ellipse fill="none" stroke="black" cx="1349" cy="-19" rx="48.0833" ry="18.3848"/>
<text text-anchor="middle" x="1349" y="-15.4" font-family="Times Roman,serif" font-size="14.00">decimal</text>
</g>
<!-- FractionApp&#45;&gt;decimal -->
<g id="edge54" class="edge"><title>FractionApp&#45;&gt;decimal</title>
<path fill="none" stroke="green" stroke-width="2" d="M1400.94,-74.7079C1392.29,-65.431 1381.66,-54.0249 1372.27,-43.9549"/>
<polygon fill="green" stroke="green" points="1374.76,-41.4991 1365.38,-36.5721 1369.64,-46.2729 1374.76,-41.4991"/>
</g>
<!-- Fraction -->
<g id="node21" class="node"><title>Fraction</title>
<ellipse fill="none" stroke="black" cx="295" cy="-93" rx="50.9117" ry="18.3848"/>
<text text-anchor="middle" x="295" y="-89.4" font-family="Times Roman,serif" font-size="14.00">Fraction</text>
</g>
<!-- Exp&#45;&gt;Fraction -->
<g id="edge16" class="edge"><title>Exp&#45;&gt;Fraction</title>
<path fill="none" stroke="red" stroke-width="2" d="M285.28,-148.327C286.697,-140.264 288.386,-130.648 289.956,-121.711"/>
<polygon fill="red" stroke="red" points="293.437,-122.122 291.721,-111.667 286.543,-120.911 293.437,-122.122"/>
</g>
<!-- Numerals -->
<g id="node42" class="node"><title>Numerals</title>
<ellipse fill="none" stroke="black" cx="232" cy="-19" rx="57.9828" ry="18.3848"/>
<text text-anchor="middle" x="232" y="-15.4" font-family="Times Roman,serif" font-size="14.00">Numerals</text>
</g>
<!-- Fraction&#45;&gt;Numerals -->
<g id="edge56" class="edge"><title>Fraction&#45;&gt;Numerals</title>
<path fill="none" stroke="red" stroke-width="2" d="M279.749,-75.0867C271.991,-65.9737 262.422,-54.7335 253.892,-44.7143"/>
<polygon fill="red" stroke="red" points="256.476,-42.3503 247.328,-37.0049 251.146,-46.8881 256.476,-42.3503"/>
</g>
<!-- ExpEst -->
<g id="node22" class="node"><title>ExpEst</title>
<ellipse fill="none" stroke="black" cx="864" cy="-167" rx="44.7575" ry="18.3848"/>
<text text-anchor="middle" x="864" y="-163.4" font-family="Times Roman,serif" font-size="14.00">ExpEst</text>
</g>
<!-- FractionEst -->
<g id="node24" class="node"><title>FractionEst</title>
<ellipse fill="none" stroke="black" cx="879" cy="-93" rx="65.9683" ry="18.3848"/>
<text text-anchor="middle" x="879" y="-89.4" font-family="Times Roman,serif" font-size="14.00">FractionEst</text>
</g>
<!-- ExpEst&#45;&gt;FractionEst -->
<g id="edge18" class="edge"><title>ExpEst&#45;&gt;FractionEst</title>
<path fill="none" stroke="green" stroke-width="2" d="M867.785,-148.327C869.419,-140.264 871.369,-130.648 873.18,-121.711"/>
<polygon fill="green" stroke="green" points="876.66,-122.163 875.216,-111.667 869.799,-120.773 876.66,-122.163"/>
</g>
<!-- estonian -->
<g id="node49" class="node"><title>estonian</title>
<ellipse fill="none" stroke="black" cx="940" cy="-19" rx="53.2379" ry="18.3848"/>
<text text-anchor="middle" x="940" y="-15.4" font-family="Times Roman,serif" font-size="14.00">estonian</text>
</g>
<!-- FractionEst&#45;&gt;estonian -->
<g id="edge52" class="edge"><title>FractionEst&#45;&gt;estonian</title>
<path fill="none" stroke="green" stroke-width="2" d="M894.079,-74.7079C901.521,-65.6798 910.625,-54.6351 918.759,-44.7678"/>
<polygon fill="green" stroke="green" points="921.645,-46.769 925.305,-36.8264 916.244,-42.3164 921.645,-46.769"/>
</g>
<!-- ExpEstl&#45;&gt;FractionEst -->
<g id="edge20" class="edge"><title>ExpEstl&#45;&gt;FractionEst</title>
<path fill="none" stroke="green" stroke-width="2" d="M953.216,-150.208C940.36,-140.298 923.885,-127.599 909.724,-116.683"/>
<polygon fill="green" stroke="green" points="911.756,-113.83 901.699,-110.497 907.483,-119.375 911.756,-113.83"/>
</g>
<!-- UnitconvEst&#45;&gt;FractionEst -->
<g id="edge92" class="edge"><title>UnitconvEst&#45;&gt;FractionEst</title>
<path fill="none" stroke="green" stroke-width="2" d="M763.846,-150.577C785.573,-139.713 814.241,-125.38 837.536,-113.732"/>
<polygon fill="green" stroke="green" points="839.122,-116.852 846.501,-109.25 835.991,-110.591 839.122,-116.852"/>
</g>
<!-- UnitEst -->
<g id="node76" class="node"><title>UnitEst</title>
<ellipse fill="none" stroke="black" cx="731" cy="-93" rx="48.0833" ry="18.3848"/>
<text text-anchor="middle" x="731" y="-89.4" font-family="Times Roman,serif" font-size="14.00">UnitEst</text>
</g>
<!-- UnitconvEst&#45;&gt;UnitEst -->
<g id="edge94" class="edge"><title>UnitconvEst&#45;&gt;UnitEst</title>
<path fill="none" stroke="green" stroke-width="2" d="M731,-148.327C731,-140.264 731,-130.648 731,-121.711"/>
<polygon fill="green" stroke="green" points="734.5,-121.667 731,-111.667 727.5,-121.667 734.5,-121.667"/>
</g>
<!-- Unitconv&#45;&gt;Fraction -->
<g id="edge80" class="edge"><title>Unitconv&#45;&gt;Fraction</title>
<path fill="none" stroke="red" stroke-width="2" d="M363.358,-149.837C351.451,-139.937 336.309,-127.346 323.303,-116.533"/>
<polygon fill="red" stroke="red" points="325.457,-113.772 315.53,-110.07 320.982,-119.155 325.457,-113.772"/>
</g>
<!-- Unit -->
<g id="node83" class="node"><title>Unit</title>
<ellipse fill="none" stroke="black" cx="396" cy="-93" rx="32.0265" ry="18.3848"/>
<text text-anchor="middle" x="396" y="-89.4" font-family="Times Roman,serif" font-size="14.00">Unit</text>
</g>
<!-- Unitconv&#45;&gt;Unit -->
<g id="edge82" class="edge"><title>Unitconv&#45;&gt;Unit</title>
<path fill="none" stroke="red" stroke-width="2" d="M387.028,-148.327C388.336,-140.264 389.895,-130.648 391.344,-121.711"/>
<polygon fill="red" stroke="red" points="394.827,-122.099 392.973,-111.667 387.917,-120.978 394.827,-122.099"/>
</g>
<!-- UnitconvApp&#45;&gt;FractionApp -->
<g id="edge88" class="edge"><title>UnitconvApp&#45;&gt;FractionApp</title>
<path fill="none" stroke="green" stroke-width="2" d="M1523.91,-150.208C1504.38,-139.659 1479,-125.948 1457.98,-114.593"/>
<polygon fill="green" stroke="green" points="1459.43,-111.398 1448.96,-109.725 1456.1,-117.557 1459.43,-111.398"/>
</g>
<!-- UnitApp -->
<g id="node84" class="node"><title>UnitApp</title>
<ellipse fill="none" stroke="black" cx="1556" cy="-93" rx="50.9117" ry="18.3848"/>
<text text-anchor="middle" x="1556" y="-89.4" font-family="Times Roman,serif" font-size="14.00">UnitApp</text>
</g>
<!-- UnitconvApp&#45;&gt;UnitApp -->
<g id="edge90" class="edge"><title>UnitconvApp&#45;&gt;UnitApp</title>
<path fill="none" stroke="green" stroke-width="2" d="M1555.25,-148.327C1555.36,-140.264 1555.49,-130.648 1555.61,-121.711"/>
<polygon fill="green" stroke="green" points="1559.11,-121.714 1555.75,-111.667 1552.11,-121.619 1559.11,-121.714"/>
</g>
<!-- Town -->
<g id="node38" class="node"><title>Town</title>
<ellipse fill="none" stroke="black" cx="37" cy="-93" rx="36.977" ry="18.3848"/>
<text text-anchor="middle" x="37" y="-89.4" font-family="Times Roman,serif" font-size="14.00">Town</text>
</g>
<!-- Address&#45;&gt;Town -->
<g id="edge34" class="edge"><title>Address&#45;&gt;Town</title>
<path fill="none" stroke="red" stroke-width="2" d="M121.809,-150.577C105.893,-139.772 84.9206,-125.533 67.8135,-113.919"/>
<polygon fill="red" stroke="red" points="69.5067,-110.838 59.2673,-108.117 65.5749,-116.63 69.5067,-110.838"/>
</g>
<!-- StreetF -->
<g id="node40" class="node"><title>StreetF</title>
<ellipse fill="none" stroke="black" cx="140" cy="-93" rx="48.0833" ry="18.3848"/>
<text text-anchor="middle" x="140" y="-89.4" font-family="Times Roman,serif" font-size="14.00">StreetF</text>
</g>
<!-- Address&#45;&gt;StreetF -->
<g id="edge36" class="edge"><title>Address&#45;&gt;StreetF</title>
<path fill="none" stroke="red" stroke-width="2" d="M144.486,-148.327C143.832,-140.264 143.053,-130.648 142.328,-121.711"/>
<polygon fill="red" stroke="red" points="145.81,-121.352 141.514,-111.667 138.833,-121.918 145.81,-121.352"/>
</g>
<!-- Address&#45;&gt;Numerals -->
<g id="edge38" class="edge"><title>Address&#45;&gt;Numerals</title>
<path fill="none" stroke="red" stroke-width="2" d="M165.422,-149.652C175.881,-139.497 188.371,-125.955 197,-112 209.459,-91.8514 218.623,-66.5593 224.441,-47.4392"/>
<polygon fill="red" stroke="red" points="227.814,-48.374 227.254,-37.794 221.094,-46.4142 227.814,-48.374"/>
</g>
<!-- TownEst -->
<g id="node45" class="node"><title>TownEst</title>
<ellipse fill="none" stroke="black" cx="1240" cy="-93" rx="53.033" ry="18.3848"/>
<text text-anchor="middle" x="1240" y="-89.4" font-family="Times Roman,serif" font-size="14.00">TownEst</text>
</g>
<!-- AddressEst&#45;&gt;TownEst -->
<g id="edge40" class="edge"><title>AddressEst&#45;&gt;TownEst</title>
<path fill="none" stroke="green" stroke-width="2" d="M1136.07,-150.393C1155.7,-139.554 1181.48,-125.32 1202.45,-113.739"/>
<polygon fill="green" stroke="green" points="1204.34,-116.689 1211.41,-108.791 1200.96,-110.562 1204.34,-116.689"/>
</g>
<!-- StreetFEst -->
<g id="node47" class="node"><title>StreetFEst</title>
<ellipse fill="none" stroke="black" cx="1106" cy="-93" rx="63.1385" ry="18.3848"/>
<text text-anchor="middle" x="1106" y="-89.4" font-family="Times Roman,serif" font-size="14.00">StreetFEst</text>
</g>
<!-- AddressEst&#45;&gt;StreetFEst -->
<g id="edge42" class="edge"><title>AddressEst&#45;&gt;StreetFEst</title>
<path fill="none" stroke="green" stroke-width="2" d="M1106,-148.327C1106,-140.264 1106,-130.648 1106,-121.711"/>
<polygon fill="green" stroke="green" points="1109.5,-121.667 1106,-111.667 1102.5,-121.667 1109.5,-121.667"/>
</g>
<!-- AddressEst&#45;&gt;estonian -->
<g id="edge44" class="edge"><title>AddressEst&#45;&gt;estonian</title>
<path fill="none" stroke="green" stroke-width="2" d="M1081.72,-149.658C1067.47,-139.183 1049.31,-125.322 1034,-112 1008.93,-90.1793 982.15,-63.2942 963.614,-44.0523"/>
<polygon fill="green" stroke="green" points="966.136,-41.6251 956.691,-36.8233 961.08,-46.4666 966.136,-41.6251"/>
</g>
<!-- AddressApp&#45;&gt;TownEst -->
<g id="edge46" class="edge"><title>AddressApp&#45;&gt;TownEst</title>
<path fill="none" stroke="green" stroke-width="2" d="M1257.94,-148.327C1255.28,-140.114 1252.09,-130.29 1249.15,-121.214"/>
<polygon fill="green" stroke="green" points="1252.39,-119.843 1245.97,-111.411 1245.73,-122.003 1252.39,-119.843"/>
</g>
<!-- AddressApp&#45;&gt;StreetFEst -->
<g id="edge48" class="edge"><title>AddressApp&#45;&gt;StreetFEst</title>
<path fill="none" stroke="green" stroke-width="2" d="M1229.72,-150.943C1206.06,-139.862 1174.42,-125.043 1149.06,-113.165"/>
<polygon fill="green" stroke="green" points="1150.21,-109.843 1139.67,-108.771 1147.25,-116.182 1150.21,-109.843"/>
</g>
<!-- AddressApp&#45;&gt;decimal -->
<g id="edge50" class="edge"><title>AddressApp&#45;&gt;decimal</title>
<path fill="none" stroke="green" stroke-width="2" d="M1277.49,-148.83C1285.06,-138.305 1294.47,-124.67 1302,-112 1314.67,-90.6793 1327.25,-65.5213 1336.2,-46.7514"/>
<polygon fill="green" stroke="green" points="1339.43,-48.1097 1340.53,-37.5723 1333.1,-45.1223 1339.43,-48.1097"/>
</g>
<!-- EstvrpEst -->
<g id="node58" class="node"><title>EstvrpEst</title>
<ellipse fill="none" stroke="black" cx="1592" cy="-315" rx="58.1882" ry="18.3848"/>
<text text-anchor="middle" x="1592" y="-311.4" font-family="Times Roman,serif" font-size="14.00">EstvrpEst</text>
</g>
<!-- DigitEst -->
<g id="node60" class="node"><title>DigitEst</title>
<ellipse fill="none" stroke="black" cx="1534" cy="-241" rx="50.2046" ry="18.3848"/>
<text text-anchor="middle" x="1534" y="-237.4" font-family="Times Roman,serif" font-size="14.00">DigitEst</text>
</g>
<!-- EstvrpEst&#45;&gt;DigitEst -->
<g id="edge58" class="edge"><title>EstvrpEst&#45;&gt;DigitEst</title>
<path fill="none" stroke="green" stroke-width="2" d="M1577.66,-296.708C1570.59,-287.68 1561.93,-276.635 1554.2,-266.768"/>
<polygon fill="green" stroke="green" points="1556.9,-264.538 1547.97,-258.826 1551.39,-268.856 1556.9,-264.538"/>
</g>
<!-- LetterEst -->
<g id="node62" class="node"><title>LetterEst</title>
<ellipse fill="none" stroke="black" cx="1659" cy="-241" rx="56.7776" ry="18.3848"/>
<text text-anchor="middle" x="1659" y="-237.4" font-family="Times Roman,serif" font-size="14.00">LetterEst</text>
</g>
<!-- EstvrpEst&#45;&gt;LetterEst -->
<g id="edge60" class="edge"><title>EstvrpEst&#45;&gt;LetterEst</title>
<path fill="none" stroke="green" stroke-width="2" d="M1608.22,-297.087C1616.47,-287.974 1626.65,-276.734 1635.72,-266.714"/>
<polygon fill="green" stroke="green" points="1638.58,-268.767 1642.7,-259.005 1633.39,-264.069 1638.58,-268.767"/>
</g>
<!-- Estvrp -->
<g id="node63" class="node"><title>Estvrp</title>
<ellipse fill="none" stroke="black" cx="1811" cy="-315" rx="43.1335" ry="18.3848"/>
<text text-anchor="middle" x="1811" y="-311.4" font-family="Times Roman,serif" font-size="14.00">Estvrp</text>
</g>
<!-- Digit -->
<g id="node65" class="node"><title>Digit</title>
<ellipse fill="none" stroke="black" cx="1769" cy="-241" rx="34.8574" ry="18.3848"/>
<text text-anchor="middle" x="1769" y="-237.4" font-family="Times Roman,serif" font-size="14.00">Digit</text>
</g>
<!-- Estvrp&#45;&gt;Digit -->
<g id="edge62" class="edge"><title>Estvrp&#45;&gt;Digit</title>
<path fill="none" stroke="red" stroke-width="2" d="M1800.62,-296.708C1795.65,-287.951 1789.6,-277.296 1784.13,-267.659"/>
<polygon fill="red" stroke="red" points="1787.1,-265.796 1779.12,-258.826 1781.01,-269.251 1787.1,-265.796"/>
</g>
<!-- Letter -->
<g id="node67" class="node"><title>Letter</title>
<ellipse fill="none" stroke="black" cx="1863" cy="-241" rx="41.2167" ry="18.3848"/>
<text text-anchor="middle" x="1863" y="-237.4" font-family="Times Roman,serif" font-size="14.00">Letter</text>
</g>
<!-- Estvrp&#45;&gt;Letter -->
<g id="edge64" class="edge"><title>Estvrp&#45;&gt;Letter</title>
<path fill="none" stroke="red" stroke-width="2" d="M1823.59,-297.087C1829.91,-288.088 1837.69,-277.015 1844.67,-267.092"/>
<polygon fill="red" stroke="red" points="1847.64,-268.943 1850.53,-258.748 1841.91,-264.918 1847.64,-268.943"/>
</g>
<!-- EstvrpApp -->
<g id="node68" class="node"><title>EstvrpApp</title>
<ellipse fill="none" stroke="black" cx="2041" cy="-315" rx="61.0181" ry="18.3848"/>
<text text-anchor="middle" x="2041" y="-311.4" font-family="Times Roman,serif" font-size="14.00">EstvrpApp</text>
</g>
<!-- DigitApp -->
<g id="node70" class="node"><title>DigitApp</title>
<ellipse fill="none" stroke="black" cx="1975" cy="-241" rx="53.2379" ry="18.3848"/>
<text text-anchor="middle" x="1975" y="-237.4" font-family="Times Roman,serif" font-size="14.00">DigitApp</text>
</g>
<!-- EstvrpApp&#45;&gt;DigitApp -->
<g id="edge66" class="edge"><title>EstvrpApp&#45;&gt;DigitApp</title>
<path fill="none" stroke="green" stroke-width="2" d="M2025.02,-297.087C2016.84,-287.906 2006.72,-276.567 1997.74,-266.492"/>
<polygon fill="green" stroke="green" points="2000.1,-263.882 1990.83,-258.748 1994.87,-268.541 2000.1,-263.882"/>
</g>
<!-- LetterApp -->
<g id="node72" class="node"><title>LetterApp</title>
<ellipse fill="none" stroke="black" cx="2107" cy="-241" rx="60.8112" ry="18.3848"/>
<text text-anchor="middle" x="2107" y="-237.4" font-family="Times Roman,serif" font-size="14.00">LetterApp</text>
</g>
<!-- EstvrpApp&#45;&gt;LetterApp -->
<g id="edge68" class="edge"><title>EstvrpApp&#45;&gt;LetterApp</title>
<path fill="none" stroke="green" stroke-width="2" d="M2056.98,-297.087C2065.1,-287.974 2075.13,-276.734 2084.07,-266.714"/>
<polygon fill="green" stroke="green" points="2086.9,-268.797 2090.94,-259.005 2081.67,-264.138 2086.9,-268.797"/>
</g>
<!-- PrefixEst -->
<g id="node78" class="node"><title>PrefixEst</title>
<ellipse fill="none" stroke="black" cx="621" cy="-19" rx="55.1543" ry="18.3848"/>
<text text-anchor="middle" x="621" y="-15.4" font-family="Times Roman,serif" font-size="14.00">PrefixEst</text>
</g>
<!-- UnitEst&#45;&gt;PrefixEst -->
<g id="edge76" class="edge"><title>UnitEst&#45;&gt;PrefixEst</title>
<path fill="none" stroke="green" stroke-width="2" d="M707.132,-76.9431C691.743,-66.5905 671.505,-52.9761 654.514,-41.5456"/>
<polygon fill="green" stroke="green" points="656.218,-38.4739 645.967,-35.7961 652.311,-44.2819 656.218,-38.4739"/>
</g>
<!-- CurrencyEst -->
<g id="node80" class="node"><title>CurrencyEst</title>
<ellipse fill="none" stroke="black" cx="765" cy="-19" rx="70.9184" ry="18.3848"/>
<text text-anchor="middle" x="765" y="-15.4" font-family="Times Roman,serif" font-size="14.00">CurrencyEst</text>
</g>
<!-- UnitEst&#45;&gt;CurrencyEst -->
<g id="edge78" class="edge"><title>UnitEst&#45;&gt;CurrencyEst</title>
<path fill="none" stroke="green" stroke-width="2" d="M739.404,-74.7079C743.258,-66.3218 747.91,-56.1957 752.186,-46.8896"/>
<polygon fill="green" stroke="green" points="755.461,-48.1438 756.456,-37.5957 749.101,-45.2212 755.461,-48.1438"/>
</g>
<!-- Prefix -->
<g id="node94" class="node"><title>Prefix</title>
<ellipse fill="none" stroke="black" cx="379" cy="-19" rx="39.0967" ry="18.3848"/>
<text text-anchor="middle" x="379" y="-15.4" font-family="Times Roman,serif" font-size="14.00">Prefix</text>
</g>
<!-- Unit&#45;&gt;Prefix -->
<g id="edge96" class="edge"><title>Unit&#45;&gt;Prefix</title>
<path fill="none" stroke="red" stroke-width="2" d="M391.71,-74.3267C389.823,-66.114 387.567,-56.2897 385.482,-47.2139"/>
<polygon fill="red" stroke="red" points="388.88,-46.3735 383.23,-37.411 382.057,-47.9408 388.88,-46.3735"/>
</g>
<!-- Currency -->
<g id="node96" class="node"><title>Currency</title>
<ellipse fill="none" stroke="black" cx="492" cy="-19" rx="56.0679" ry="18.3848"/>
<text text-anchor="middle" x="492" y="-15.4" font-family="Times Roman,serif" font-size="14.00">Currency</text>
</g>
<!-- Unit&#45;&gt;Currency -->
<g id="edge98" class="edge"><title>Unit&#45;&gt;Currency</title>
<path fill="none" stroke="red" stroke-width="2" d="M415.427,-78.025C428.741,-67.7625 446.665,-53.9457 461.825,-42.2602"/>
<polygon fill="red" stroke="red" points="464.132,-44.9007 469.915,-36.0235 459.859,-39.3566 464.132,-44.9007"/>
</g>
<!-- PrefixApp -->
<g id="node86" class="node"><title>PrefixApp</title>
<ellipse fill="none" stroke="black" cx="1528" cy="-19" rx="58.1882" ry="18.3848"/>
<text text-anchor="middle" x="1528" y="-15.4" font-family="Times Roman,serif" font-size="14.00">PrefixApp</text>
</g>
<!-- UnitApp&#45;&gt;PrefixApp -->
<g id="edge84" class="edge"><title>UnitApp&#45;&gt;PrefixApp</title>
<path fill="none" stroke="green" stroke-width="2" d="M1548.93,-74.3267C1545.79,-66.0257 1542.03,-56.0782 1538.56,-46.9214"/>
<polygon fill="green" stroke="green" points="1541.78,-45.5252 1534.97,-37.411 1535.23,-48.0025 1541.78,-45.5252"/>
</g>
<!-- CurrencyApp -->
<g id="node88" class="node"><title>CurrencyApp</title>
<ellipse fill="none" stroke="black" cx="1679" cy="-19" rx="74.9533" ry="18.3848"/>
<text text-anchor="middle" x="1679" y="-15.4" font-family="Times Roman,serif" font-size="14.00">CurrencyApp</text>
</g>
<!-- UnitApp&#45;&gt;CurrencyApp -->
<g id="edge86" class="edge"><title>UnitApp&#45;&gt;CurrencyApp</title>
<path fill="none" stroke="green" stroke-width="2" d="M1582.39,-77.1251C1599.69,-66.7132 1622.58,-52.9448 1641.73,-41.4218"/>
<polygon fill="green" stroke="green" points="1643.75,-44.2927 1650.51,-36.1383 1640.14,-38.2945 1643.75,-44.2927"/>
</g>
</g>
</svg>
