<?xml version="1.0" encoding="UTF-8" standalone="no"?>
<!DOCTYPE svg PUBLIC "-//W3C//DTD SVG 1.1//EN"
 "http://www.w3.org/Graphics/SVG/1.1/DTD/svg11.dtd">
<!-- Generated by graphviz version 2.26.3 (20100126.1600)
 -->
<!-- Title: _anonymous_0 Pages: 1 -->
<svg width="546pt" height="332pt"
 viewBox="0.00 0.00 546.00 332.00" xmlns="http://www.w3.org/2000/svg" xmlns:xlink="http://www.w3.org/1999/xlink">
<g id="graph1" class="graph" transform="scale(1 1) rotate(0) translate(4 328)">
<title>_anonymous_0</title>
<polygon fill="white" stroke="white" points="-4,5 -4,-328 543,-328 543,5 -4,5"/>
<!-- Action -->
<g id="node1" class="node"><title>Action</title>
<polygon fill="none" stroke="black" points="247,-324 187,-324 187,-288 247,-288 247,-324"/>
<text text-anchor="middle" x="217" y="-302.4" font-family="Times Roman,serif" font-size="14.00">Action</text>
</g>
<!-- Weather -->
<g id="node2" class="node"><title>Weather</title>
<polygon fill="none" stroke="black" points="76,-252 3.55271e-14,-252 0,-216 76,-216 76,-252"/>
<text text-anchor="middle" x="38" y="-230.4" font-family="Times Roman,serif" font-size="14.00">Weather</text>
</g>
<!-- Action&#45;&gt;Weather -->
<g id="edge10" class="edge"><title>Action&#45;&gt;Weather</title>
<path fill="none" stroke="black" d="M186.635,-293.786C159.065,-282.697 117.944,-266.156 85.9379,-253.282"/>
<polygon fill="black" stroke="black" points="86.9065,-249.899 76.3228,-249.415 84.2942,-256.394 86.9065,-249.899"/>
</g>
<!-- Direction -->
<g id="node3" class="node"><title>Direction</title>
<polygon fill="none" stroke="black" points="172,-252 94,-252 94,-216 172,-216 172,-252"/>
<text text-anchor="middle" x="133" y="-230.4" font-family="Times Roman,serif" font-size="14.00">Direction</text>
</g>
<!-- Action&#45;&gt;Direction -->
<g id="edge8" class="edge"><title>Action&#45;&gt;Direction</title>
<path fill="none" stroke="black" d="M195.803,-287.831C185.557,-279.048 173.1,-268.371 161.99,-258.849"/>
<polygon fill="black" stroke="black" points="164.06,-256.013 154.19,-252.163 159.505,-261.328 164.06,-256.013"/>
</g>
<!-- Dial -->
<g id="node6" class="node"><title>Dial</title>
<polygon fill="none" stroke="black" points="244,-252 190,-252 190,-216 244,-216 244,-252"/>
<text text-anchor="middle" x="217" y="-230.4" font-family="Times Roman,serif" font-size="14.00">Dial</text>
</g>
<!-- Action&#45;&gt;Dial -->
<g id="edge6" class="edge"><title>Action&#45;&gt;Dial</title>
<path fill="none" stroke="black" d="M217,-287.831C217,-280.131 217,-270.974 217,-262.417"/>
<polygon fill="black" stroke="black" points="220.5,-262.413 217,-252.413 213.5,-262.413 220.5,-262.413"/>
</g>
<!-- Calc -->
<g id="node8" class="node"><title>Calc</title>
<polygon fill="none" stroke="black" points="386,-252 332,-252 332,-216 386,-216 386,-252"/>
<text text-anchor="middle" x="359" y="-230.4" font-family="Times Roman,serif" font-size="14.00">Calc</text>
</g>
<!-- Action&#45;&gt;Calc -->
<g id="edge4" class="edge"><title>Action&#45;&gt;Calc</title>
<path fill="none" stroke="black" d="M247.115,-290.731C269.251,-279.507 299.431,-264.204 322.868,-252.321"/>
<polygon fill="black" stroke="black" points="324.474,-255.431 331.81,-247.786 321.308,-249.187 324.474,-255.431"/>
</g>
<!-- Alarm -->
<g id="node15" class="node"><title>Alarm</title>
<polygon fill="none" stroke="black" points="300,-180 244,-180 244,-144 300,-144 300,-180"/>
<text text-anchor="middle" x="272" y="-158.4" font-family="Times Roman,serif" font-size="14.00">Alarm</text>
</g>
<!-- Action&#45;&gt;Alarm -->
<g id="edge2" class="edge"><title>Action&#45;&gt;Alarm</title>
<path fill="none" stroke="black" d="M231.885,-287.518C239.246,-277.53 247.672,-264.672 253,-252 261.331,-232.188 266.153,-208.332 268.854,-190.16"/>
<polygon fill="black" stroke="black" points="272.33,-190.572 270.21,-180.192 265.394,-189.629 272.33,-190.572"/>
</g>
<!-- Eeppl -->
<g id="node5" class="node"><title>Eeppl</title>
<polygon fill="none" stroke="black" points="110,-108 56,-108 56,-72 110,-72 110,-108"/>
<text text-anchor="middle" x="83" y="-86.4" font-family="Times Roman,serif" font-size="14.00">Eeppl</text>
</g>
<!-- Weather&#45;&gt;Eeppl -->
<g id="edge12" class="edge"><title>Weather&#45;&gt;Eeppl</title>
<path fill="none" stroke="black" d="M43.6993,-215.762C51.4085,-191.093 65.2313,-146.86 74.2584,-117.973"/>
<polygon fill="black" stroke="black" points="77.7049,-118.678 77.347,-108.09 71.0235,-116.59 77.7049,-118.678"/>
</g>
<!-- Address -->
<g id="node4" class="node"><title>Address</title>
<polygon fill="none" stroke="black" points="154,-180 84,-180 84,-144 154,-144 154,-180"/>
<text text-anchor="middle" x="119" y="-158.4" font-family="Times Roman,serif" font-size="14.00">Address</text>
</g>
<!-- Direction&#45;&gt;Address -->
<g id="edge14" class="edge"><title>Direction&#45;&gt;Address</title>
<path fill="none" stroke="black" d="M129.467,-215.831C127.97,-208.131 126.189,-198.974 124.525,-190.417"/>
<polygon fill="black" stroke="black" points="127.925,-189.561 122.58,-180.413 121.053,-190.897 127.925,-189.561"/>
</g>
<!-- Address&#45;&gt;Eeppl -->
<g id="edge16" class="edge"><title>Address&#45;&gt;Eeppl</title>
<path fill="none" stroke="black" d="M109.916,-143.831C105.939,-135.877 101.185,-126.369 96.7861,-117.572"/>
<polygon fill="black" stroke="black" points="99.8093,-115.792 92.2066,-108.413 93.5483,-118.923 99.8093,-115.792"/>
</g>
<!-- Numeral -->
<g id="node17" class="node"><title>Numeral</title>
<polygon fill="none" stroke="black" points="309,-36 235,-36 235,-1.77636e-14 309,-3.55271e-15 309,-36"/>
<text text-anchor="middle" x="272" y="-14.4" font-family="Times Roman,serif" font-size="14.00">Numeral</text>
</g>
<!-- Address&#45;&gt;Numeral -->
<g id="edge18" class="edge"><title>Address&#45;&gt;Numeral</title>
<path fill="none" stroke="black" d="M138.378,-143.762C165.509,-118.227 214.91,-71.7316 245.448,-42.9906"/>
<polygon fill="black" stroke="black" points="247.897,-45.492 252.78,-36.0896 243.099,-40.3946 247.897,-45.492"/>
</g>
<!-- Digit -->
<g id="node7" class="node"><title>Digit</title>
<polygon fill="none" stroke="black" points="226,-180 172,-180 172,-144 226,-144 226,-180"/>
<text text-anchor="middle" x="199" y="-158.4" font-family="Times Roman,serif" font-size="14.00">Digit</text>
</g>
<!-- Dial&#45;&gt;Digit -->
<g id="edge20" class="edge"><title>Dial&#45;&gt;Digit</title>
<path fill="none" stroke="black" d="M212.458,-215.831C210.512,-208.046 208.193,-198.773 206.034,-190.135"/>
<polygon fill="black" stroke="black" points="209.424,-189.266 203.603,-180.413 202.633,-190.964 209.424,-189.266"/>
</g>
<!-- Unitconv -->
<g id="node9" class="node"><title>Unitconv</title>
<polygon fill="none" stroke="black" points="496,-180 418,-180 418,-144 496,-144 496,-180"/>
<text text-anchor="middle" x="457" y="-158.4" font-family="Times Roman,serif" font-size="14.00">Unitconv</text>
</g>
<!-- Calc&#45;&gt;Unitconv -->
<g id="edge24" class="edge"><title>Calc&#45;&gt;Unitconv</title>
<path fill="none" stroke="black" d="M383.73,-215.831C395.916,-206.878 410.782,-195.956 423.931,-186.295"/>
<polygon fill="black" stroke="black" points="426.292,-188.904 432.278,-180.163 422.147,-183.263 426.292,-188.904"/>
</g>
<!-- ArithExpr -->
<g id="node13" class="node"><title>ArithExpr</title>
<polygon fill="none" stroke="black" points="400,-180 318,-180 318,-144 400,-144 400,-180"/>
<text text-anchor="middle" x="359" y="-158.4" font-family="Times Roman,serif" font-size="14.00">ArithExpr</text>
</g>
<!-- Calc&#45;&gt;ArithExpr -->
<g id="edge22" class="edge"><title>Calc&#45;&gt;ArithExpr</title>
<path fill="none" stroke="black" d="M359,-215.831C359,-208.131 359,-198.974 359,-190.417"/>
<polygon fill="black" stroke="black" points="362.5,-190.413 359,-180.413 355.5,-190.413 362.5,-190.413"/>
</g>
<!-- Unit -->
<g id="node10" class="node"><title>Unit</title>
<polygon fill="none" stroke="black" points="484,-108 430,-108 430,-72 484,-72 484,-108"/>
<text text-anchor="middle" x="457" y="-86.4" font-family="Times Roman,serif" font-size="14.00">Unit</text>
</g>
<!-- Unitconv&#45;&gt;Unit -->
<g id="edge28" class="edge"><title>Unitconv&#45;&gt;Unit</title>
<path fill="none" stroke="black" d="M457,-143.831C457,-136.131 457,-126.974 457,-118.417"/>
<polygon fill="black" stroke="black" points="460.5,-118.413 457,-108.413 453.5,-118.413 460.5,-118.413"/>
</g>
<!-- Fraction -->
<g id="node14" class="node"><title>Fraction</title>
<polygon fill="none" stroke="black" points="395,-108 323,-108 323,-72 395,-72 395,-108"/>
<text text-anchor="middle" x="359" y="-86.4" font-family="Times Roman,serif" font-size="14.00">Fraction</text>
</g>
<!-- Unitconv&#45;&gt;Fraction -->
<g id="edge26" class="edge"><title>Unitconv&#45;&gt;Fraction</title>
<path fill="none" stroke="black" d="M432.27,-143.831C420.084,-134.878 405.218,-123.956 392.069,-114.295"/>
<polygon fill="black" stroke="black" points="393.853,-111.263 383.722,-108.163 389.708,-116.904 393.853,-111.263"/>
</g>
<!-- Currency -->
<g id="node11" class="node"><title>Currency</title>
<polygon fill="none" stroke="black" points="538,-36 460,-36 460,-1.77636e-14 538,-3.55271e-15 538,-36"/>
<text text-anchor="middle" x="499" y="-14.4" font-family="Times Roman,serif" font-size="14.00">Currency</text>
</g>
<!-- Unit&#45;&gt;Currency -->
<g id="edge32" class="edge"><title>Unit&#45;&gt;Currency</title>
<path fill="none" stroke="black" d="M467.598,-71.8314C472.288,-63.7925 477.903,-54.1666 483.08,-45.2918"/>
<polygon fill="black" stroke="black" points="486.243,-46.8146 488.259,-36.4133 480.197,-43.2875 486.243,-46.8146"/>
</g>
<!-- Prefix -->
<g id="node12" class="node"><title>Prefix</title>
<polygon fill="none" stroke="black" points="442,-36 386,-36 386,-1.77636e-14 442,-3.55271e-15 442,-36"/>
<text text-anchor="middle" x="414" y="-14.4" font-family="Times Roman,serif" font-size="14.00">Prefix</text>
</g>
<!-- Unit&#45;&gt;Prefix -->
<g id="edge30" class="edge"><title>Unit&#45;&gt;Prefix</title>
<path fill="none" stroke="black" d="M446.149,-71.8314C441.298,-63.7079 435.478,-53.9637 430.132,-45.0118"/>
<polygon fill="black" stroke="black" points="433.129,-43.2041 424.997,-36.4133 427.119,-46.7933 433.129,-43.2041"/>
</g>
<!-- ArithExpr&#45;&gt;Fraction -->
<g id="edge34" class="edge"><title>ArithExpr&#45;&gt;Fraction</title>
<path fill="none" stroke="black" d="M359,-143.831C359,-136.131 359,-126.974 359,-118.417"/>
<polygon fill="black" stroke="black" points="362.5,-118.413 359,-108.413 355.5,-118.413 362.5,-118.413"/>
</g>
<!-- Fraction&#45;&gt;Numeral -->
<g id="edge36" class="edge"><title>Fraction&#45;&gt;Numeral</title>
<path fill="none" stroke="black" d="M337.046,-71.8314C326.331,-62.9632 313.281,-52.1637 301.691,-42.5718"/>
<polygon fill="black" stroke="black" points="303.882,-39.8422 293.947,-36.1628 299.419,-45.2349 303.882,-39.8422"/>
</g>
<!-- Date -->
<g id="node16" class="node"><title>Date</title>
<polygon fill="none" stroke="black" points="299,-108 245,-108 245,-72 299,-72 299,-108"/>
<text text-anchor="middle" x="272" y="-86.4" font-family="Times Roman,serif" font-size="14.00">Date</text>
</g>
<!-- Alarm&#45;&gt;Date -->
<g id="edge38" class="edge"><title>Alarm&#45;&gt;Date</title>
<path fill="none" stroke="black" d="M272,-143.831C272,-136.131 272,-126.974 272,-118.417"/>
<polygon fill="black" stroke="black" points="275.5,-118.413 272,-108.413 268.5,-118.413 275.5,-118.413"/>
</g>
<!-- Date&#45;&gt;Numeral -->
<g id="edge40" class="edge"><title>Date&#45;&gt;Numeral</title>
<path fill="none" stroke="black" d="M272,-71.8314C272,-64.131 272,-54.9743 272,-46.4166"/>
<polygon fill="black" stroke="black" points="275.5,-46.4132 272,-36.4133 268.5,-46.4133 275.5,-46.4132"/>
</g>
</g>
</svg>
