<?xml version="1.0" encoding="UTF-8" standalone="no"?>
<!DOCTYPE svg PUBLIC "-//W3C//DTD SVG 1.1//EN"
 "http://www.w3.org/Graphics/SVG/1.1/DTD/svg11.dtd">
<!-- Generated by graphviz version 2.26.3 (20100126.1600)
 -->
<!-- Title: G Pages: 1 -->
<svg width="878pt" height="98pt"
 viewBox="0.00 0.00 878.00 98.00" xmlns="http://www.w3.org/2000/svg" xmlns:xlink="http://www.w3.org/1999/xlink">
<g id="graph1" class="graph" transform="scale(1 1) rotate(0) translate(4 94)">
<title>G</title>
<polygon fill="white" stroke="white" points="-4,5 -4,-94 875,-94 875,5 -4,5"/>
<!-- speech -->
<g id="node1" class="node"><title>speech</title>
<text text-anchor="middle" x="58" y="-37.4" font-family="serif" font-size="14.00" fill="blue">/one plus two/</text>
</g>
<!-- text -->
<g id="node2" class="node"><title>text</title>
<text text-anchor="middle" x="212" y="-37.4" font-family="monospace" font-size="14.00">one plus two</text>
</g>
<!-- speech&#45;&gt;text -->
<g id="edge2" class="edge"><title>speech&#45;&gt;text</title>
<path fill="none" stroke="grey" d="M116.221,-41C125.194,-41 134.53,-41 143.699,-41"/>
<polygon fill="grey" stroke="grey" points="143.952,-44.5001 153.952,-41 143.952,-37.5001 143.952,-44.5001"/>
</g>
<!-- tree -->
<g id="node3" class="node"><title>tree</title>
<text text-anchor="middle" x="406" y="-37.4" font-family="monospace" font-size="14.00">plus(one,two)</text>
</g>
<!-- text&#45;&gt;tree -->
<g id="edge4" class="edge"><title>text&#45;&gt;tree</title>
<path fill="none" stroke="grey" d="M270.206,-41C290.157,-41 312.728,-41 333.659,-41"/>
<polygon fill="grey" stroke="grey" points="333.783,-44.5001 343.783,-41 333.783,-37.5001 333.783,-44.5001"/>
<text text-anchor="middle" x="307" y="-46.4" font-family="Times Roman,serif" font-size="14.00">parse</text>
</g>
<!-- appin1 -->
<g id="node4" class="node"><title>appin1</title>
<text text-anchor="middle" x="610" y="-68.4" font-family="monospace" font-size="14.00">eval(1+2)</text>
</g>
<!-- tree&#45;&gt;appin1 -->
<g id="edge6" class="edge"><title>tree&#45;&gt;appin1</title>
<path fill="none" stroke="grey" d="M468.038,-50.4273C495.583,-54.613 527.746,-59.5006 554.487,-63.5642"/>
<polygon fill="grey" stroke="grey" points="554.037,-67.0359 564.449,-65.078 555.088,-60.1153 554.037,-67.0359"/>
<text text-anchor="middle" x="516" y="-67.4" font-family="Times Roman,serif" font-size="14.00">linearize</text>
</g>
<!-- appin2 -->
<g id="node5" class="node"><title>appin2</title>
<text text-anchor="middle" x="610" y="-14.4" font-family="monospace" font-size="14.00">...</text>
</g>
<!-- tree&#45;&gt;appin2 -->
<g id="edge10" class="edge"><title>tree&#45;&gt;appin2</title>
<path fill="none" stroke="grey" d="M468.312,-27.6549C474.272,-26.6448 480.239,-25.7349 486,-25 515.008,-21.2991 548.084,-19.5549 572.775,-18.7328"/>
<polygon fill="grey" stroke="grey" points="572.916,-22.2303 582.807,-18.4339 572.707,-15.2334 572.916,-22.2303"/>
<text text-anchor="middle" x="516" y="-30.4" font-family="Times Roman,serif" font-size="14.00">linearize</text>
</g>
<!-- appout1 -->
<g id="node6" class="node"><title>appout1</title>
<text text-anchor="middle" x="782" y="-68.4" font-family="serif" font-size="14.00" fill="blue">/one plus two is three/</text>
</g>
<!-- appin1&#45;&gt;appout1 -->
<g id="edge8" class="edge"><title>appin1&#45;&gt;appout1</title>
<path fill="none" stroke="grey" d="M655.641,-72C664.431,-72 673.949,-72 683.681,-72"/>
<polygon fill="grey" stroke="grey" points="683.879,-75.5001 693.879,-72 683.879,-68.5001 683.879,-75.5001"/>
</g>
</g>
</svg>
